<?xml version="1.0" encoding="UTF-8"?>
<!DOCTYPE svg PUBLIC "-//W3C//DTD SVG 1.1//EN" "http://www.w3.org/Graphics/SVG/1.1/DTD/svg11.dtd">
<!-- Creator: CorelDRAW 2021 (64-Bit) -->
<svg xmlns="http://www.w3.org/2000/svg" xml:space="preserve" width="33.0728mm" height="33.0728mm" version="1.1" style="shape-rendering:geometricPrecision; text-rendering:geometricPrecision; image-rendering:optimizeQuality; fill-rule:evenodd; clip-rule:evenodd"
viewBox="0 0 3307.28 3307.28"
 xmlns:xlink="http://www.w3.org/1999/xlink"
 xmlns:xodm="http://www.corel.com/coreldraw/odm/2003">
 <defs>
  <style type="text/css">
   <![CDATA[
    .fil4 {fill:black}
    .fil8 {fill:#010101}
    .fil9 {fill:#020202}
    .fil6 {fill:#040404}
    .fil2 {fill:#1A2430}
    .fil0 {fill:#1B2531}
    .fil1 {fill:#212A36}
    .fil10 {fill:#212A36}
    .fil3 {fill:#2B3540}
    .fil7 {fill:#C91717}
    .fil5 {fill:#FEFEFE}
   ]]>
  </style>
   <clipPath id="id0">
    <rect x="-69180.42" y="-28792.2" width="20390.56" height="33196.38"/>
   </clipPath>
   <clipPath id="id1">
    <rect x="-41875.13" y="-36741.7" width="18767.78" height="33161.1"/>
   </clipPath>
   <clipPath id="id2">
    <rect x="42320.16" y="7488.52" width="55915.28" height="38452.78"/>
   </clipPath>
 </defs>
 <g id="Слой_x0020_1">
  <metadata id="CorelCorpID_0Corel-Layer"/>
  <g id="_2183087183936">
   <path class="fil0" d="M-76672.87 17645.38l1258.48 1495.31c-8.39,0.09 0,0 0,0 24.72,67.55 117.43,168.13 246.74,283.39 380.45,339.11 1077.7,805.28 1292.27,930.95 1677.77,982.59 3745.45,1305.33 5655.23,899.66 1090.82,-231.71 1915.32,-611.64 2870.26,-1242.71l770.96 -604.02c2099.99,-1822.58 2369.84,-4095.06 2549.57,-4323.36 19.21,561 -273.97,1686.48 -472.8,2236.59 -446.58,1235.57 -1157.97,2411.52 -2124.53,3290.94 -281.91,256.48 -382.14,377.15 -726.09,632.18 -2506.36,1858.4 -5579.07,2227.46 -8436.57,1036.57l-679.09 -327.71c-65.45,-38.09 -149.71,-80.47 -225.69,-123.96 -1150.41,-658.56 -2065.57,-1536.08 -2794.57,-2622.41 -254.97,-379.94 -523.64,-870.89 -710.7,-1301.42 -697.22,-1604.68 -912.09,-3480.92 -519.34,-5195.76 47.37,-206.82 173.77,-712.47 264.32,-916.26 23.76,-53.47 25.2,-82.72 43.27,-136.93 109.08,-327.38 267,-632.19 409.83,-945.8 256.03,-562.22 678.74,-1166.61 1071.05,-1644.37 102.97,-125.4 203.35,-242.17 314.51,-354.78 256.28,-259.61 866.16,-842.77 1102.67,-935.63 -85.94,120.82 -274.95,311.25 -384.34,437.19 -359.26,413.61 -770.64,1017.01 -1021.3,1499.11 -425.25,817.92 -702.51,1597.36 -843.16,2507.84 -223.86,1449.12 -35.52,2972.12 528.17,4315.52 56.47,134.57 151.95,355.02 254.37,568.7 106.72,222.66 220.98,437.98 306.48,541.17 25.77,-2.19 56.59,-7.56 89.69,-14.72 4.22,-0.91 -93.97,15.69 -89.69,14.72z"/>
   <path class="fil0" d="M-53670.25 14676.79c-167.56,-202.23 -445.54,-835.08 -560.85,-1109.87 -563.69,-1343.4 -752.03,-2866.4 -528.17,-4315.52 140.65,-910.48 417.91,-1689.92 843.16,-2507.84 250.66,-482.1 662.04,-1085.5 1021.3,-1499.11 109.39,-125.94 298.4,-316.37 384.34,-437.19 -236.51,92.86 -846.39,676.02 -1102.67,935.63 -111.16,112.61 -211.54,229.38 -314.51,354.78 -392.31,477.76 -815.02,1082.15 -1071.05,1644.37 -142.83,313.61 -300.75,618.42 -409.83,945.8 -18.07,54.21 -19.51,83.46 -43.27,136.93 -90.55,203.79 -216.95,709.44 -264.32,916.26 -392.75,1714.84 -177.88,3591.08 519.34,5195.76 187.06,430.53 455.73,921.48 710.7,1301.42 729,1086.33 1644.16,1963.85 2794.57,2622.41 75.98,43.49 160.24,85.87 225.69,123.96l679.09 327.71c2857.5,1190.89 5930.21,821.83 8436.57,-1036.57 343.95,-255.03 444.18,-375.7 726.09,-632.18 966.56,-879.42 1677.95,-2055.37 2124.53,-3290.94 198.83,-550.11 492.01,-1675.59 472.8,-2236.59 -179.73,228.3 -449.58,2500.78 -2549.57,4323.36l-770.96 604.02c-954.94,631.07 -1779.44,1011 -2870.26,1242.71 -1909.78,405.67 -3977.46,82.93 -5655.23,-899.66 -287.5,-168.38 -1441.56,-948.06 -1539.01,-1214.34 1767.05,-27.75 3518.7,705.95 4650.55,707.73 433.8,0.68 946.8,-252.28 1308.2,-468.43 653.19,-390.65 1609.96,-848.72 2297.76,-1246.19 367.3,-212.26 779.98,-389.45 1137.47,-626.06 661.09,-437.53 63.25,-815.65 -448.43,-729.73 -33.83,189.48 20.78,317.33 -54.77,512.15 -145.64,375.56 -533.1,549.81 -915.34,439.92 -101.31,-29.13 -98.58,-32.27 -185.17,-78.98 -99.2,-11.19 -403.77,388.05 -1023.05,-175.14 -76.99,6.83 -760.68,234.91 -794.55,262.45 88.67,222.31 413.8,467.78 259.18,753.06 -103.8,191.53 -508.93,347.6 -717.58,376.68 -283.16,39.46 -1903.4,66.19 -2053.28,-71.33 256.47,-24.11 471.64,-39.26 730.95,-43.32 418.9,-6.57 1668.97,11.72 1811.77,-420.59 80.96,-245.09 -113.46,-364.62 -296.8,-452.24 -222.23,-106.21 -366.54,-127.27 -615.39,-118.34 -435.31,15.64 -426.44,-119.6 -618.87,-145.55 -110.88,-14.96 -216.42,-29.41 -317.23,-49.02 -83.98,-16.34 -239.72,-57.26 -316.26,-54.53 -127.19,126.13 -236.91,207.85 -425.58,242.5 -273.8,50.27 -329.3,-32.01 -545.45,-100.63 -26,0.67 -544.67,361.76 -1013.24,-172.22 -70.1,-79.89 -110.5,-228.32 -132.13,-344.2 -438.78,-47.52 -1163.44,66.3 -1579.51,164.82l-1060.25 260.84c-95.19,25.41 -250.08,73.29 -341.48,81.04z"/>
   <path class="fil0" d="M-54311.36 9979.93c39.12,-47.35 97.6,-291.77 116.71,-357.48 220.39,-757.72 832.26,-1748.36 1344.39,-2328.21l360.31 -380.58c505.95,-492.04 1088.09,-919.37 1730.34,-1231.1 4004.54,-1943.68 8736.39,437.58 9570.13,4787.59 383.57,2001.27 -125.8,3762.66 -1269.62,5362.89 -80.88,113.15 -391.68,487.99 -424.57,568.28 258.01,-110.15 947.06,-863.66 1141.65,-1103.87 41.45,-51.16 75.22,-96.75 113.07,-150.26 32.46,-45.91 80.46,-105.81 121.91,-161.54 976.28,-1312.68 1455.11,-3171.61 1291.4,-4814.23 -235.02,-2358.17 -1500.96,-4304.19 -3475.89,-5485.62 -2160.52,-1292.45 -4883.47,-1293.33 -7073.59,-87.82 -1671.35,919.98 -2951.21,2566.76 -3435.36,4398.79 -48.1,182 -191.73,830.95 -110.88,983.16z"/>
   <path class="fil1" d="M-43720.26 11872.38c605.66,36.25 295.63,-447.3 135.37,-733.32 -267.32,-477.11 -720.52,-1083 -1149.47,-1425.07 -282.93,-225.62 -693.3,-139.57 -903.21,135.92 -184.53,242.17 -353.5,528.27 -532.61,754.76 -194.48,245.93 -389.26,462.58 -592.11,697.25 -190.22,220.07 -175.84,433.25 -261.65,704.16 -29.79,94.05 -239.97,292.66 -328.62,331.06 -243.46,105.48 -533.92,62.91 -755.17,-112.66 -329.35,-261.35 -156.68,-786.65 -310.14,-995.49 -85.75,-116.69 -211.23,-233.37 -308.88,-344.15 -301.72,-342.25 -545.76,-761.44 -775.19,-1149.23 -182.46,-308.41 -612.28,-338.55 -898.02,-151.27 -494.15,323.87 -1184.78,1868.51 -1130.17,2074.86 43.36,163.89 303.73,220.35 406.41,77.4 65.38,-91.03 273.69,-754.38 448.78,-844.37 9.78,560.36 -14.98,1148.99 -18.33,1714.11 -3.38,569.9 -1.27,1140.57 -1.99,1710.98 -0.13,101.28 -9.11,311.87 51,389.24 76.27,98.16 209.81,111.15 305.89,57.4 126.81,-70.94 108.23,-193.82 119.39,-323.76l111.29 -1590.56c8.99,-117.34 -21.97,-285.7 66.11,-366.59 11.76,14.5 7.2,-12.61 25.54,45.95 0.48,1.55 8.22,42.79 8.34,43.5l62.24 667.73c13.84,263.02 27.69,553.27 52.07,810.51 15.66,165.21 9.16,628.79 149.64,709.98 97.76,56.5 251.03,19.8 313.75,-76.95 56.24,-86.77 34.15,-273.92 35.62,-384.09 7.51,-563.38 -25.06,-1154.54 -6.38,-1710.97 19.1,-568.78 -27.15,-1128.47 -0.85,-1703.46l761.33 768.59c6.47,67.9 6.42,141.07 16.14,207.63 13.25,90.85 17.2,84.66 72.68,136.62 116.52,109.11 -18.93,144.9 68.46,302.92 126.79,229.29 372.99,390.2 386.31,419.5 23.25,51.12 9.3,1467.06 10.51,1737.92 1.2,266.9 -41.48,346.29 269.33,319.47 97.47,-214.56 40.57,-671.18 190.75,-880.63 72.6,103.5 71.05,326.94 92.29,467.73 23.58,156.27 -2.34,328.52 119.26,419.85 258.84,29.44 208.98,-156.56 209.22,-361.7l0.51 -1700.1c137.77,-106.15 293.15,-214.88 367.1,-384.74 65.04,-149.39 86.66,-140.29 127.64,-264.55 37.44,-113.5 39.97,-193.92 68.03,-302.39 20.71,-24.08 335.63,-227.08 411.51,-291.2 83.27,-70.37 298.1,-274.71 386.46,-310.33l-203.98 654.14c-23.86,77.52 -31.9,138.38 -51.46,206.6 -22.25,77.57 -47.73,144.75 -74.33,208.01 -18.86,44.84 -43.34,165.84 -60.22,221.96 -41.95,139.4 -123.11,258.57 -143.9,413.77 238.63,-39.78 374.52,-32.8 614.54,-28.87l-13.28 1366.03c-1.33,203.55 34.22,220.65 -84.85,347.9 25.29,46.44 266.46,339.79 448.09,190.11 130.12,-107.23 115.79,-439 128.16,-608.04 15.43,-210.94 48.41,-1247.84 162.02,-1340.41 112.13,156.61 124.03,1208.38 162.77,1551.31 16.35,144.75 -12.2,349.35 150.16,413.72 182.15,72.23 319.84,-45.84 323.02,-236.59 6.91,-413.55 -25.01,-1436.73 6.56,-1691.34l596.46 -0.67c-11.35,-208.82 -184.42,-731.76 -241.46,-957.33 -52.96,-209.43 -218.83,-792.92 -242.6,-959.98 198.55,116.86 544.28,726.61 648.12,952.22z"/>
   <path class="fil2" d="M-49837.49 8130.33c-817.65,259.9 -440.65,1477.76 361.14,1233.67 344.18,-104.78 541.14,-442.64 444.79,-800.34 -90.91,-337.55 -478.06,-537.55 -805.93,-433.33z"/>
   <path class="fil0" d="M-45485.72 8188.33c-347.83,146.5 -533.09,430.6 -422.57,816.85 95.29,333.04 474.99,529.7 810.99,413.07 310.88,-107.92 554.76,-463.47 420.72,-803.32 -114.23,-289.63 -475.68,-567.05 -809.14,-426.6z"/>
   <path class="fil3" d="M-47784.93 11391.68c-237.54,98.66 -352.67,345.53 -259.74,594.21 77.35,207 367.58,350.72 583.39,252.55 589.62,-268.19 193.2,-1061.43 -323.65,-846.76z"/>
  </g>
  <g style="clip-path:url(#id0)">
   <image x="-69180.42" y="-28792.2" width="20390.56" height="33196.38" xlink:href="Index2_Images\Index2_ImgID1.png"/>
  </g>
  <g id="_2183087237120">
   <path class="fil4" d="M-59395.48 -1571.72c172.01,-345.41 328.63,-602.48 567.99,-850.8 1257.96,-1305.05 1812,-708.24 3285.02,-770.73 -94.25,265.79 -392.23,698.97 -542.51,902.13 -690.51,933.51 -2032.13,1140.5 -3069.36,827.17 261.71,-288.23 1246.55,-801.93 1445.28,-980.32 -514.19,142.59 -1270.01,638.53 -1686.42,872.55zm-1470.85 389.58c-258.81,-142.82 -571.22,-575.27 -737.03,-897.42 -401.02,-779.16 -297.78,-2031.74 -106.8,-2872.06 63.22,-278.15 278.68,-1046.76 396.69,-1238.72l314.44 578.6c362.21,606.88 722.31,881.43 906.23,1669.2 225.18,964.5 -132.23,1990.41 -540.17,2693.43 -48.19,-282.83 -45.26,-611.17 -82.33,-904.99 -114.98,-911.28 -288.96,-1517.15 -334.51,-2559.18 -232.26,326.21 281.16,2458.3 183.48,3531.14zm3806.27 -5914.23c0,-971.84 294.58,-1831.62 1140.22,-2297.76 192.66,871.83 1088.15,1482.51 563.42,2539.92 -355.1,715.58 -1264.98,1327.07 -1946.03,1412.58 89.8,-162.07 311.64,-305.34 451.65,-472.06 376.57,-448.43 825.7,-1146.43 908.39,-1763.3l-251.8 514.72c-187.2,360.81 -661,1089.24 -936.98,1234.78l71.13 -1168.88zm-2060.25 1950.22c-365.36,-199.91 -838.05,-671.43 -1100.56,-960.78 -636.83,-701.93 -1140.55,-2048.06 -699.34,-2994.23 169.42,-363.32 633.08,-853.05 1105.4,-934.74 -215.98,1302.84 -171.55,1094.65 422.23,2288.9 381.03,766.36 553.4,1432.79 405.51,2418.52 -81.51,-104.35 -115.14,-297.01 -168.28,-433.7 -301.89,-776.65 -637.69,-972.24 -909.06,-1983.69 -63.87,-238.06 -88.27,-883.39 -159.32,-1015.74 -273.6,1465.13 979.8,2581.13 1103.42,3615.46zm2513.57 -5353.2c-9.01,-285.82 628.17,-1115.22 777.82,-1272.79 1349.85,-1421.33 1428.6,-937.94 2456.7,-1635.28 527.35,-357.68 1082.28,-956.54 1093.59,-963.5 111.33,635.28 337.31,1108.57 50.73,1790.9 -617.15,1469.42 -2678.56,1796.08 -4072.26,2053.69 664.46,-585.32 3015.11,-1419.79 3304.78,-2171.61 -165.3,79.51 -271.82,202.92 -415.06,311.29 -1119.44,846.95 -2231.38,1037.3 -3196.3,1887.3zm-725.73 -2795.82c147.75,-681.29 790.13,-1354.06 1216.28,-1657.23 400.96,-285.24 1595.18,-785.03 2006.99,-829.49 7.73,942.58 -531.8,1668.12 -1053.63,1995.29 -472.72,296.39 -1564.15,714.6 -2178.07,874.09 124.09,-423.27 793.76,-898.5 1151.37,-1159.75l988.57 -705.46c130.06,-101.29 235.23,-140.47 270.83,-286.18 -177.21,59.02 -472.83,281.43 -656.78,394.28 -482.41,295.96 -1143.89,691.1 -1501.22,1109.84l-244.34 264.61zm-2750.37 1722.54c-519.53,-334.95 -947.7,-694.32 -1267.94,-1236.75 -665.42,-1127.11 -381.25,-2797.12 159.78,-3971.99l53.92 -91.02c302.21,540.73 -56.47,394.81 935.53,1574.05l602.61 666.87c1055.74,1187.68 1735.2,2717.55 1676.42,4582.27l-144.02 -188.53c-1206.24,-1913.46 -2986.67,-3213.74 -2969.96,-5825.28 -202.87,322.76 53.77,1381.63 176.99,1741.07 157.81,460.33 428.43,969.36 660.67,1349.08 439.47,718.55 1512.96,2007.52 1705.93,2341.25l-1589.93 -941.02zm1170.35 -6956.55c-66.6,-137.82 -282.47,-492.26 -304.95,-577.15l445.13 1213.85c250.38,777.61 859.64,3411.74 892.25,4163.61 -100.93,-78.87 -320.9,-511.48 -625.99,-831.08 -1307.59,-1369.82 -2040.74,-2884.19 -2284.19,-4844.63l-328.7 -2564.74c160.9,50.74 418.12,221.27 577.55,307.85 1355.63,736.21 2843.49,1059.02 3451.32,2439.28 525.82,1194 85.24,3030.35 -214.57,4317.23 -101.31,434.85 -177.12,962.86 -246.82,1420.96 -85.33,-219.48 -181.35,-1233.34 -247.13,-1573.34 -242.86,-1255.35 -564.89,-2335.7 -1113.9,-3471.84zm1263.43 7834.48l-42.34 1113.21c-285.51,-193.85 -54.06,-1343.07 -312.29,-2414.56 -282.94,-1173.99 -788.2,-1842.95 -1465.05,-2695.42 -204.98,-258.17 -466.67,-480.92 -673.94,-737.05 -100.51,-124.19 -206.96,-240.07 -306.21,-364.78 -113.92,-143.15 -188.5,-246.58 -288.45,-416.46 -217.19,-369.13 -258.8,-610.7 -369.97,-1049.5 -127.89,159.01 -557.66,1396.9 -624.86,1663.83 -320.7,1273.9 -142.53,2680.05 800.53,3566.46 704.17,661.88 1501.03,902.53 2129.98,1362.29 273.99,200.28 391.5,326.09 590.83,573.29 463.67,575 489.76,932.99 335.62,1810.45 -96.69,550.39 -783.06,3468.27 -1039.37,3619.91 -59.09,-177.86 136.51,-1150.2 126.14,-1516.16 -51.63,-1821.83 -1288.77,-2120.59 -941.36,-3604.14 27.01,-115.34 61.75,-221.2 31.13,-333.7 -84.86,-311.78 -1790.41,547.29 -1541.07,2032.43 157.89,940.42 525.69,1887.16 1287.33,2484.2 1040.26,815.44 1120,974.35 489.27,2435.52 -191.13,442.79 -386.69,858.14 -580.05,1290.33 -95.84,214.23 -203.81,422.73 -307.96,643.87 -95.15,202.04 -179.88,493.89 -347.42,645.93 15.34,-451.64 405.26,-1012.26 574.42,-1477.59 415.7,-1143.55 286.66,-2122.21 -418.72,-3088.61 -220.8,-302.52 -430.54,-585.26 -588.1,-927.56 -57.07,-123.98 -86.32,-282.01 -182.5,-351.78 -129.25,77.48 -217.73,488.32 -269.71,651.17 -248.49,778.58 -471.81,1458.61 -472.23,2316.36 -0.23,480.17 35.06,1012.07 219.24,1403.84 91.08,193.72 188.05,360.33 314.52,498.25 625.32,681.91 750.83,410.71 462.31,1666.23 -395.44,1720.79 -5.68,2060.95 -1055.66,2231.08 -460.52,74.63 -968.67,158.72 -1430.26,215.48l-2121.04 316.46c-177.07,26.83 -389.76,24.5 -559.42,82.57 -129.81,44.42 -85.66,-43 -85.22,97.2l15404.41 0c-6.62,-123.61 26.58,-75.85 -154.92,-109.16 -625.04,-114.73 -1265.57,-166.22 -1892.27,-264.42 -2976.73,-466.43 -3020.62,-39.83 -3161.23,-1731.2 -63.55,-764.3 -130.54,-1522.65 -190.59,-2290.08 -151.74,59.7 -295.85,171.48 -460.56,244.12 -691.72,305.07 -1213.97,224.86 -1913.79,97.37 -1.01,580.65 51.64,2347.51 -9.87,2785.61 -47.05,335.09 -382.03,637.97 -789.28,588.45 -394.73,-48 -629.48,-361.21 -629.48,-787.08l0 -2046.11c0,-179.03 290.99,-472.7 386.51,-560.43 230.96,-212.13 271.69,-272.59 702.28,-226.58 680.81,72.75 1005.97,209.43 1706.57,-10.23 755.15,-236.76 1253.39,-715.07 1567.88,-1359.94 57.65,-118.23 102.8,-214.03 167.84,-326.11 27.69,-47.7 66.08,-102.21 95.87,-156.44 5.55,-10.1 30.9,-65.2 31,-65.64l-2.67 -62.8c-11.22,-96.9 -638.76,-59.57 -757.94,-71.13 -873.18,-84.62 -1215.01,-331 -2090.94,205.45 -500.7,306.65 -905.53,823.34 -1144.36,1360.97 -109.68,246.92 -127.17,425.87 -361.89,517.69l1042.67 -2447.5c227.85,-595.28 223.32,-735.93 623.68,-1105.08 498.01,-459.18 365.73,-387.42 1150.09,-614.07 1296.94,-374.77 2522.78,-1597.97 1696.85,-3001.98 -112.15,-190.64 -246.19,-354.24 -348.37,-533.16 -151.48,-265.23 -121.53,-484.55 -207.2,-666.75l-472.64 390.55c-1453.7,1308.93 -487.64,3125.24 -1427.89,3863.97 -81.98,64.41 -168.22,116.77 -267.91,190.78 -83.75,62.18 -164.33,149.41 -255.54,193.47l449.49 -1550.29c213.34,-813.54 374.82,-1689.83 455.19,-2544.42 45.37,-482.43 30.09,-447.52 273.67,-749.97 379.13,-470.77 584.73,-545.39 1375.13,-671.48 1471.35,-234.72 3394.4,-791.21 3721.95,-2309.44 89.48,-414.74 -5.05,-1471.04 -247.88,-1731.99 -122.74,56.39 -632.18,682.43 -1342.85,1093.49 -298.81,172.84 -523.61,246.8 -849.86,384.43 -346.74,146.28 -505.77,265.31 -775.51,459.31 -826.77,594.62 -1125.99,1234.19 -1548.21,2120.14 -64.59,135.54 -454.1,633.67 -548.43,668.27l-41.43 -1653.35c-19.15,-334.58 -105.42,-769.13 -104.55,-1067.59 0.88,-300.98 433.71,-372.44 663.49,-446.08 780.63,-250.17 1784.53,-601.96 2248.63,-1209.43 220.48,-288.59 746.16,-1460.47 486.2,-1709.54 -69.55,-58.99 -120.58,-23.02 -235.38,16.18 -616.91,210.64 -1306.54,385.04 -1838.77,740.44 -336.4,224.64 -523.23,410.77 -767.23,714.95 -114.73,143.02 -198.47,280.63 -290.96,449.53 -57.43,104.89 -173.55,405.54 -234.65,484.99 -125.58,-1191.16 1495.44,-4252.45 305.56,-6153.4 -478.12,-763.85 -1120.61,-1148.14 -2089.52,-1579.62 -1899.14,-845.73 -2217.61,-1446.22 -2082.09,-525.4 346.39,2353.63 263.41,4078.53 1446.87,5887.9 626.21,957.39 1207.09,1414.25 1630.77,2038.18 587.52,865.21 561.07,1899.46 565.94,3098.6z"/>
   <path class="fil4" d="M-66320.63 -26428.36c304.52,127.57 4337.08,554.8 4675.41,684.15 387.08,148 419.18,391.97 486.9,851 131.31,890.09 128.17,1703.02 229.1,2451.68 37.18,275.83 575.31,516.58 820.42,569 2.17,-824.8 0.28,-1649.84 0.28,-2474.67 0,-361.19 -61.13,-838.41 102.46,-1126.58 127.48,-224.56 465.74,-451.25 862.83,-303.57 649.18,241.43 463.19,1208.6 463.14,1994.59 -0.06,834.91 -0.38,1669.82 0.06,2504.72 14.1,46.8 678.48,405.59 965.89,633.63 317.54,251.95 791.64,826.12 1014.83,1172.73 73.57,114.25 132.87,249.5 207.88,345.45 81.35,-1011.16 87.2,-2052.86 155.5,-3068.86 62.08,-923.6 122.51,-2050.88 262.19,-2951.45 78.9,-508.7 385.31,-599.08 903.74,-678.28 461.2,-70.45 965.13,-143 1418.74,-195.07 409.35,-47 2620.38,-313.94 2840.67,-408.7l14.32 -187.84 -15432.18 -0.02 7.82 188.09z"/>
   <path class="fil5" d="M-57880.06 -13728.87c-32.61,-751.87 -641.87,-3386 -892.25,-4163.61l-445.13 -1213.85c22.48,84.89 238.35,439.33 304.95,577.15 549.01,1136.14 871.04,2216.49 1113.9,3471.84 65.78,340 161.8,1353.86 247.13,1573.34 69.7,-458.1 145.51,-986.11 246.82,-1420.96 299.81,-1286.88 740.39,-3123.23 214.57,-4317.23 -607.83,-1380.26 -2095.69,-1703.07 -3451.32,-2439.28 -159.43,-86.58 -416.65,-257.11 -577.55,-307.85l328.7 2564.74c243.45,1960.44 976.6,3474.81 2284.19,4844.63 305.09,319.6 525.06,752.21 625.99,831.08z"/>
   <path class="fil5" d="M-58492.91 -10631.61c-192.97,-333.73 -1266.46,-1622.7 -1705.93,-2341.25 -232.24,-379.72 -502.86,-888.75 -660.67,-1349.08 -123.22,-359.44 -379.86,-1418.31 -176.99,-1741.07 -16.71,2611.54 1763.72,3911.82 2969.96,5825.28l144.02 188.53c58.78,-1864.72 -620.68,-3394.59 -1676.42,-4582.27l-602.61 -666.87c-992,-1179.24 -633.32,-1033.32 -935.53,-1574.05l-53.92 91.02c-541.03,1174.87 -825.2,2844.88 -159.78,3971.99 320.24,542.43 748.41,901.8 1267.94,1236.75l1589.93 941.02z"/>
   <path class="fil5" d="M-56606.74 -10499.35c964.92,-850 2076.86,-1040.35 3196.3,-1887.3 143.24,-108.37 249.76,-231.78 415.06,-311.29 -289.67,751.82 -2640.32,1586.29 -3304.78,2171.61 1393.7,-257.61 3455.11,-584.27 4072.26,-2053.69 286.58,-682.33 60.6,-1155.62 -50.73,-1790.9 -11.31,6.96 -566.24,605.82 -1093.59,963.5 -1028.1,697.34 -1106.85,213.95 -2456.7,1635.28 -149.65,157.57 -786.83,986.97 -777.82,1272.79z"/>
   <path class="fil5" d="M-60866.33 -1182.14c97.68,-1072.84 -415.74,-3204.93 -183.48,-3531.14 45.55,1042.03 219.53,1647.9 334.51,2559.18 37.07,293.82 34.14,622.16 82.33,904.99 407.94,-703.02 765.35,-1728.93 540.17,-2693.43 -183.92,-787.77 -544.02,-1062.32 -906.23,-1669.2l-314.44 -578.6c-118.01,191.96 -333.47,960.57 -396.69,1238.72 -190.98,840.32 -294.22,2092.9 106.8,2872.06 165.81,322.15 478.22,754.6 737.03,897.42z"/>
   <path class="fil5" d="M-59120.31 -5146.15c-123.62,-1034.33 -1377.02,-2150.33 -1103.42,-3615.46 71.05,132.35 95.45,777.68 159.32,1015.74 271.37,1011.45 607.17,1207.04 909.06,1983.69 53.14,136.69 86.77,329.35 168.28,433.7 147.89,-985.73 -24.48,-1652.16 -405.51,-2418.52 -593.78,-1194.25 -638.21,-986.06 -422.23,-2288.9 -472.32,81.69 -935.98,571.42 -1105.4,934.74 -441.21,946.17 62.51,2292.3 699.34,2994.23 262.51,289.35 735.2,760.87 1100.56,960.78z"/>
   <path class="fil5" d="M-57060.06 -7096.37l-71.13 1168.88c275.98,-145.54 749.78,-873.97 936.98,-1234.78l251.8 -514.72c-82.69,616.87 -531.82,1314.87 -908.39,1763.3 -140.01,166.72 -361.85,309.99 -451.65,472.06 681.05,-85.51 1590.93,-697 1946.03,-1412.58 524.73,-1057.41 -370.76,-1668.09 -563.42,-2539.92 -845.64,466.14 -1140.22,1325.92 -1140.22,2297.76z"/>
   <path class="fil5" d="M-59395.48 -1571.72c416.41,-234.02 1172.23,-729.96 1686.42,-872.55 -198.73,178.39 -1183.57,692.09 -1445.28,980.32 1037.23,313.33 2378.85,106.34 3069.36,-827.17 150.28,-203.16 448.26,-636.34 542.51,-902.13 -1473.02,62.49 -2027.06,-534.32 -3285.02,770.73 -239.36,248.32 -395.98,505.39 -567.99,850.8z"/>
   <path class="fil5" d="M-57332.47 -13295.17l244.34 -264.61c357.33,-418.74 1018.81,-813.88 1501.22,-1109.84 183.95,-112.85 479.57,-335.26 656.78,-394.28 -35.6,145.71 -140.77,184.89 -270.83,286.18l-988.57 705.46c-357.61,261.25 -1027.28,736.48 -1151.37,1159.75 613.92,-159.49 1705.35,-577.7 2178.07,-874.09 521.83,-327.17 1061.36,-1052.71 1053.63,-1995.29 -411.81,44.46 -1606.03,544.25 -2006.99,829.49 -426.15,303.17 -1068.53,975.94 -1216.28,1657.23z"/>
   <path class="fil4" d="M-58663.92 -3137.42c470.34,-232.1 789.91,-553.51 1582.54,-572.44 257.13,-6.14 437.31,48.52 653.76,53.92l-53.88 -1639.12c-228.3,90.63 -454.71,230.24 -716.01,339.95 -281.67,118.27 -537.6,161.21 -747.33,345.28 -292.03,256.28 -723.28,937.85 -719.08,1472.41z"/>
   <path class="fil4" d="M-60649.84 -9985.84c106.25,-51.27 153.7,-102.31 262.31,-171.37 90.53,-57.57 177.41,-88.02 274.88,-149.44l8.11 -847.8 -542.75 -263.79 -2.55 1432.4z"/>
  </g>
  <g style="clip-path:url(#id1)">
   <image x="-41875.13" y="-36741.7" width="18767.78" height="33161.1" xlink:href="Index2_Images\Index2_ImgID2.png"/>
  </g>
  <g id="_2183087236304">
   <path class="fil6" d="M-47629.17 581.68l0.71 21834.98c-995.65,101.59 -2058.95,-205.15 -2079.5,288.28 -11.83,284.05 239.02,302.1 493.42,300.46 2010.62,-12.99 4398.05,-31.95 6386.57,-2.63 272.35,4.01 474.54,11.07 512.19,-242.4 39.59,-266.55 -196.21,-335.58 -440.44,-335.55 -534.81,0.06 -1092.88,19.27 -1625.15,-2.84l-7.04 -21847.01c517.86,-21.91 1076.2,-6.08 1596.3,-3.18 261.04,1.45 458.08,-24.32 478.25,-276.05 23.02,-287.16 -210.79,-316.14 -478.48,-315.05l-6386.59 0.4c-265.46,-1.96 -484.01,19.34 -524.27,258.33 -95.05,564.12 1083.61,231.01 2074.03,342.26z"/>
   <path class="fil7" d="M-46348.66 -6624.78c-2309.05,338.77 -2933.47,3184.82 -1279.32,4493.28 474.07,375 1161.82,674.58 1948.22,563.6 1327.8,-187.39 2406.26,-1377.59 2200.34,-2883.21 -172.44,-1260.84 -1363.27,-2394.61 -2869.24,-2173.67z"/>
  </g>
  <g style="clip-path:url(#id2)">
   <image x="42320.16" y="7488.52" width="55915.28" height="38452.78" xlink:href="Index2_Images\Index2_ImgID3.png"/>
  </g>
  <g id="_2183087227568">
   <path class="fil8" d="M84557.47 42625.19c17.9,274.1 138.17,599.89 275.84,737.32 171.2,170.89 593.52,109.48 878.52,109.48 370.12,0 1696.43,75.21 1888.92,-86.87 359.68,-302.87 298.77,-1114.26 301.68,-1677.15l-0.34 -9913.06c0,-1316.01 -32.79,-2676.08 -3.28,-3986.39 28.91,-1283.38 28.92,-2667.73 0.01,-3951.11 -50.34,-2234.08 32.28,-4647.6 3.2,-6914.45 -6.28,-489.68 92.51,-1356.66 -291.78,-1722.4 -177.4,-168.82 -588.84,-108.59 -875.36,-108.58 -2095.09,0 -2182.22,-323.32 -2182.24,1760.43l0 17850.56c0.1,1317.06 -2.04,2634.37 4.69,3951.11 5.04,988 -53.21,3133.85 0.14,3951.11z"/>
   <path class="fil9" d="M74890.78 42801.58c90.38,773.52 627.35,670.6 1013.83,670.55 553.2,-0.06 1106.45,0.95 1659.62,1.09 616.13,0.16 664.74,-505.76 664.02,-1024.28l-0.31 -20073.2c0,-692.94 154.58,-1857.13 -276.84,-2222.99 -170.29,-144.4 -472.34,-99.76 -741.22,-102.15 -551.14,-4.91 -1108.44,-3.7 -1659.73,-1.12 -580.12,2.71 -671.47,465.59 -670.61,1020.92l19.23 5009.51c-1.3,1116.73 -29.32,2231.9 -19.01,3351.39 20.36,2210.67 36.72,4494.3 4.46,6702.78 -6.21,425.76 -35.91,6304.07 6.56,6667.5z"/>
   <path class="fil9" d="M68530.58 43013.24c85.66,-306.08 27.65,-2240.51 27.65,-2716.38l0 -13758.34c-0.06,-305.5 36.32,-1079.24 -48.73,-1317.41 -58.54,-163.91 -180.6,-332.33 -340.3,-360.46 -289.8,-51.05 -1700.43,-30.04 -2036.54,-30.62 -505.43,-0.88 -759.2,11.25 -894.15,457.85 -60.87,201.46 -30.01,2343.77 -30.01,2732.31l0 13758.33c0,1595 -101.95,1693.65 1065.27,1693.61 458.6,-0.01 917.25,-0.63 1375.84,0.03 480.77,0.69 760.61,-28.84 880.97,-458.92z"/>
   <path class="fil8" d="M55520.96 43048.52c63.04,334.91 327.52,425.04 698.1,424.15 364.72,-0.89 729.43,-0.68 1094.16,-0.68 782.47,0 1552,217.39 1550.03,-669.54 -3.26,-1470.28 -6.81,-2941.55 -0.57,-4410.59 6.26,-1476.65 -27.17,-2972.98 -1.3,-4445.01 9.12,-518.87 31.99,-4164.41 -9.04,-4400.07 -58.5,-336.08 -307.81,-417.57 -691.13,-416.73 -364.98,0.81 -729.95,0.61 -1094.94,0.61 -915.9,0 -1553.42,-191.43 -1554.41,652.27 -0.76,638.35 -27.27,13072.39 9.1,13265.59z"/>
   <path class="fil9" d="M56131.01 25317.08l-619.04 1962.83c214.21,-89.35 1460.43,-1109.34 1695.41,-1192.16 318.9,184.86 1471.24,1101.59 1684.67,1193.68l-630.36 -1977.63c107.8,-107.34 306.64,-235.43 425.81,-318.97l839.92 -606.62c150.97,-114.02 288.16,-187.64 403.45,-308.96l-2079.33 -9.33 -670.3 -1973.88 -630.4 1978.73 -2101.09 5.42 1681.26 1246.89z"/>
   <path class="fil9" d="M85535.44 10220.03l-2038.62 0.56c47.72,82.98 677.82,513.04 809.73,613.66 177.48,135.39 688.81,525.94 854.15,594 -53.44,406.67 -537.59,1527.15 -624.69,1995.54 238.74,-112.11 1387.42,-1007.34 1706.93,-1204.16l1682.37 1224.59 -648.81 -2003.58c234.77,-109.29 644.07,-441.9 867.23,-602.85l825.35 -609.3 -2091.42 -8.46 -642.62 -2000.83 -335.76 1007.7c-55.47,176.28 -103.52,335.27 -161.82,510.76 -28.1,84.58 -50.37,151.58 -75.99,240.47 -41.1,142.63 -39.57,188.17 -126.03,241.9z"/>
   <path class="fil8" d="M75834.05 15013.19l-2028.28 0.65c278.11,175.59 1443.28,1123.93 1689.74,1211.41l-645.72 2006.44c227.44,-105.31 1465.08,-1072.13 1697.14,-1203.24l1697.2 1184.65 -644.31 -1985.43c267.06,-94.06 1423.48,-1037.59 1705.86,-1203.84l-2060.52 -11.14c-124.07,-80.36 -148.83,-311.42 -194.04,-451.35l-492.96 -1519.28 -589.62 1742.29c-6.9,22.39 -32.78,113.63 -43.07,132.98 -45.57,85.69 -6.95,55.74 -91.42,95.86z"/>
   <path class="fil8" d="M64154.07 19797.56c109.55,114.59 259.16,208.53 401.79,309.79l1258.13 927.84 -637.78 1971.23c256.4,-133.22 612.47,-418.18 851.17,-594.71 274.77,-203.21 558.78,-416.17 846.11,-605.8 157.55,74.52 285.11,191.93 421.42,289.5l1264.87 910.63c-68.56,-361.48 -516.46,-1476.34 -633.83,-1970.85 222.26,-205.08 588.54,-434.29 836.43,-615.92l826.95 -619.22 -2066.88 -8.38 -610.52 -1903.28c-53.3,-106.46 -6.89,-24.95 -46.87,-76.47 -127.14,550.75 -402.16,1204.04 -571.16,1762.5 -91.68,302.96 -20.45,220.05 -937.35,217.81 -391.86,-0.96 -813.99,-13.55 -1202.48,5.33z"/>
  </g>
  <path class="fil1" d="M1228.24 1404.28c1.52,85.16 -2.28,173.45 -2.79,259.37 -0.52,88.05 -0.13,176.16 -0.32,264.29 -0.04,18.2 -0.82,46.14 6.67,57.98 8.68,13.72 29.1,19.25 46,11.2 17.31,-8.24 18.18,-24.01 19.74,-44.91l17.13 -246.64c2.08,-24.99 -2.31,-41.39 9.54,-58.77l5.77 12.22c4.86,20.33 15.77,204.75 17.79,227.93 2.35,27.06 2.69,95.5 21.09,107.69 16.7,11.07 39.96,2.5 48.66,-9.14 10.07,-13.47 6.19,-40.42 6.46,-60.26 1.19,-86.53 -3.31,-175.88 -0.97,-261.59 2.41,-87.97 -4.17,-171.9 -1.01,-259.54 13.31,7.62 69.65,70.66 90.47,90.83 42.03,40.71 20.66,18.33 30.03,61.82 3.29,15.3 4.33,10.22 11.66,17.94 20.76,21.88 -28.76,31.74 68.76,108.53 1.3,58.82 0.35,118.38 0.65,177.29 0.15,29.66 0.35,59.33 0.47,89 0.17,44.1 -5.94,50.82 41.97,49.17 9.66,-35.72 9.65,-109.25 28.35,-134.87 25.49,34.95 -0.86,162.05 54.05,134.04 13.17,-6.72 10.29,-34.3 10.3,-53.74 0.06,-86.47 -0.97,-173.55 0.08,-259.93 18.41,-14.6 41.74,-29.51 54.44,-55.13l18.38 -35.99c6.29,-15.56 8.03,-27.39 11.2,-45.43 3.21,-18.34 27.41,-21.66 60.61,-49.72 12.81,-10.82 49.85,-45.77 63.41,-51.2 -10.89,43.83 -27.84,87.17 -39.15,131.45 -7.72,30.23 -39.86,109.36 -42.48,129.15 35.55,-5.95 56.94,-5.03 93.96,-4.41 0.92,45.44 -1.27,92.92 -1.56,138.73l-0.57 102.07c-1.51,9.66 -6.68,14.57 -12.87,21.24 4.78,8.7 40.95,49.58 67.08,30.2 21.56,-15.99 18.83,-66.4 21.01,-94.23 2.63,-33.5 8.64,-192.07 25.06,-204.96 16.34,26.19 18.98,181.66 24.38,234.88 2.9,28.56 -0.71,56.55 23.23,65.73 26.65,10.22 48.38,-6.23 49.35,-33.42 2.51,-70.27 -5.19,-212.06 1,-260.87l91.19 -0.53c-1.09,-20.52 -46.74,-184.39 -55.52,-217.46 -6.22,-23.43 -15.37,-53.35 -18.49,-75.74 29.14,17.17 81.39,106.92 99.09,145.58 92.33,5.58 44.51,-69.88 21.65,-110.4 -45.47,-80.6 -108.06,-162.87 -175.21,-218.34 -19.58,-16.18 -47.06,-23.58 -76.09,-19.3 -63.13,9.31 -95.73,87.52 -143.85,152.65 -28.53,38.61 -58.81,70.47 -90.26,106.74 -16.27,18.76 -24.98,37.89 -30.55,65.41 -1.71,8.46 -1.82,13.58 -3.95,20.57 -8.44,27.78 -7.54,31.56 -26.83,49.33 -21.85,20.14 -27.03,30.52 -69.32,32.36 -16.37,0.72 -33.34,0.75 -44.81,-5.37 -100.2,-53.48 -47.01,-126.14 -77.81,-170.41 -7.82,-11.25 -14.35,-16.03 -22.84,-25.87 -73.39,-85.13 -79.39,-93.66 -143,-202.3 -11.89,-20.31 -27.18,-34.76 -56.11,-40.18 -30.06,-5.63 -57.84,-0.17 -80.72,14.31 -76.08,48.15 -178.6,281.06 -175.15,313.96 2.78,26.6 44.18,39.22 61.73,17.64 10.19,-12.53 44.75,-119.25 69.82,-130.65z"/>
  <path class="fil10" d="M1356.28 982.01c-29.51,9.43 -42.33,19.13 -55.91,42.5 -13.46,23.16 -17.58,52.35 -9.97,80.52 32.49,120.46 223.46,72.72 189.1,-56.9 -11.89,-44.86 -66.1,-84.38 -123.22,-66.12z"/>
  <path class="fil10" d="M2022.55 990.82c-28.23,12.06 -40.32,16.88 -55.59,41.89 -44.42,72.69 19.8,176.45 113.56,146.2 55.21,-17.81 82.7,-78.03 65.04,-123.18 -19.65,-50.22 -80.53,-83.06 -123.01,-64.91z"/>
  <path class="fil10" d="M1670.43 1480.27c-30.79,12.78 -56.56,48.39 -40.1,91.3 9.87,25.72 51.3,56.01 89.07,38.49 4.83,-2.24 15.47,-9.75 19.47,-12.72 61.8,-45.92 3.21,-146.82 -68.44,-117.07z"/>
  <path class="fil10" d="M577.01 2034.25c-16.71,-20.31 -39.93,-70.02 -52.15,-93.55 -129.17,-248.62 -180.9,-562.59 -135.99,-843.58 26.88,-168.24 75.26,-300.64 145.64,-434.21 46.82,-88.87 112.22,-184.03 176.53,-259.32 23.86,-27.94 45.09,-49.03 66.46,-75.52 -38.96,14.94 -151.95,122.42 -190.57,161.8 -19.8,20.19 -34.02,36.61 -54.51,61.26 -66.04,79.41 -137.05,181.82 -185.07,284.38 -53.08,113.37 -93.49,211.47 -124.06,345.36 -28.53,125.01 -42.5,291.72 -28.45,428.9 22.57,220.26 66.01,363.74 155.85,547.99 120.28,246.67 330.51,463.04 570.23,600.82 46.09,26.5 108.15,57.93 156.67,77.89 53.89,22.18 113.75,44.83 172.86,61.3 477.49,133.08 983.98,21.47 1352.61,-297.28l59.75 -56.05c157.43,-137.16 291.14,-363.48 365.6,-570.8 26.12,-72.71 93.04,-320.2 78.3,-385.64 -76.13,252.35 -146.03,436.55 -318.96,630.08 -93.45,104.58 -196.41,195.61 -323.61,270.79 -11.52,6.81 -26.59,17.47 -38.29,23.37 -70.53,35.59 -120.48,62.66 -200.6,92.06 -29.6,10.86 -55.26,19.5 -88.8,29.84 -29.95,9.23 -64.41,17.16 -95.38,23.56 -394.29,81.45 -809.37,-6.3 -1122.42,-250.67 -20.15,-15.74 -115.25,-90.03 -124.09,-114.29 197.61,-3.12 360.71,43.19 536.12,80.36 242.03,51.29 297.22,74.85 493.83,-39.05 68,-39.39 131.87,-70.64 199.69,-108.42 91.64,-51.06 327.4,-170.96 394.33,-215.19 114.18,-75.47 10.92,-141.09 -77.52,-126.14 -6.99,38.82 10.94,98.14 -50.71,144.13 -74.18,55.34 -147.52,6.97 -149.01,6.81 -10.06,-1.13 -38.05,33.17 -99.65,17.32 -34.13,-8.78 -57.13,-29.11 -77.21,-47.6 -9.07,0.8 -128.96,38.64 -137.35,45.37 13.74,33.43 71.42,81.91 44.78,130.13 -57.91,104.76 -385.44,70.96 -478.98,56.8 9.52,-7.45 15.59,-6.09 28.77,-7.06 11.09,-0.81 19.78,-2.16 30.48,-2.74 87.61,-4.78 353.46,9.99 380.31,-74.52 14.37,-45.23 -24.34,-65.21 -51.21,-78.02 -36.12,-17.22 -59.33,-21.75 -106.48,-20.42 -76.94,2.18 -72.13,-20.19 -107.14,-25.18l-109.36 -17.92c-0.04,0.02 -64.23,75.4 -155.48,29.62 -18.97,-9.52 -25.14,3.52 -48.04,10.35 -72.07,21.49 -146.34,-18.37 -162.35,-104.72 -104.42,-11.43 -293.31,29.54 -396.14,57.85 -30.2,8.31 -92.09,27.44 -119.23,29.75z"/>
 </g>
</svg>
