<?xml version="1.0" encoding="UTF-8"?>
<!DOCTYPE svg PUBLIC "-//W3C//DTD SVG 1.1//EN" "http://www.w3.org/Graphics/SVG/1.1/DTD/svg11.dtd">
<!-- Creator: CorelDRAW 2021 (64-Bit) -->
<svg xmlns="http://www.w3.org/2000/svg" xml:space="preserve" width="33.0728mm" height="33.0728mm" version="1.1" style="shape-rendering:geometricPrecision; text-rendering:geometricPrecision; image-rendering:optimizeQuality; fill-rule:evenodd; clip-rule:evenodd"
viewBox="0 0 3307.28 3307.28"
 xmlns:xlink="http://www.w3.org/1999/xlink"
 xmlns:xodm="http://www.corel.com/coreldraw/odm/2003">
 <defs>
  <style type="text/css">
   <![CDATA[
    .fil4 {fill:black}
    .fil8 {fill:#010101}
    .fil9 {fill:#020202}
    .fil6 {fill:#040404}
    .fil2 {fill:#1A2430}
    .fil0 {fill:#1B2531}
    .fil1 {fill:#212A36}
    .fil10 {fill:#212A36}
    .fil3 {fill:#2B3540}
    .fil7 {fill:#C91717}
    .fil5 {fill:#FEFEFE}
   ]]>
  </style>
   <clipPath id="id0">
    <rect x="-69180.42" y="-28792.2" width="20390.56" height="33196.38"/>
   </clipPath>
   <clipPath id="id1">
    <rect x="-41875.13" y="-36741.7" width="18767.78" height="33161.1"/>
   </clipPath>
   <clipPath id="id2">
    <rect x="42320.16" y="7488.52" width="55915.28" height="38452.78"/>
   </clipPath>
 </defs>
 <g id="Слой_x0020_1">
  <metadata id="CorelCorpID_0Corel-Layer"/>
  <g id="_2180880399040">
   <path class="fil0" d="M-33778.74 15742.21c39.12,-47.35 97.6,-291.77 116.71,-357.48 220.39,-757.72 832.26,-1748.36 1344.39,-2328.21l360.31 -380.58c505.95,-492.04 1088.09,-919.37 1730.34,-1231.1 4004.54,-1943.68 8736.39,437.58 9570.13,4787.59 383.57,2001.27 -125.8,3762.66 -1269.62,5362.89 -80.88,113.15 -391.68,487.99 -424.57,568.28 258.01,-110.15 947.06,-863.66 1141.65,-1103.87 41.45,-51.16 75.22,-96.75 113.07,-150.26 32.46,-45.91 80.46,-105.81 121.91,-161.54 976.28,-1312.68 1455.11,-3171.61 1291.4,-4814.23 -235.02,-2358.17 -1500.96,-4304.19 -3475.89,-5485.62 -2160.52,-1292.45 -4883.47,-1293.33 -7073.59,-87.82 -1671.35,919.98 -2951.21,2566.76 -3435.36,4398.79 -48.1,182 -191.73,830.95 -110.88,983.16z"/>
   <path class="fil1" d="M-23187.64 17634.66c605.66,36.25 295.63,-447.3 135.37,-733.32 -267.32,-477.11 -720.52,-1083 -1149.47,-1425.07 -282.93,-225.62 -693.3,-139.57 -903.21,135.92 -184.53,242.17 -353.5,528.27 -532.61,754.76 -194.48,245.93 -389.26,462.58 -592.11,697.25 -190.22,220.07 -175.84,433.25 -261.65,704.16 -29.79,94.05 -239.97,292.66 -328.62,331.06 -243.46,105.48 -533.92,62.91 -755.17,-112.66 -329.35,-261.35 -156.68,-786.65 -310.14,-995.49 -85.75,-116.69 -211.23,-233.37 -308.88,-344.15 -301.72,-342.25 -545.76,-761.44 -775.19,-1149.23 -182.46,-308.41 -612.28,-338.55 -898.02,-151.27 -494.15,323.87 -1184.78,1868.51 -1130.17,2074.86 43.36,163.89 303.73,220.35 406.41,77.4 65.38,-91.03 273.69,-754.38 448.78,-844.37 9.78,560.36 -14.98,1148.99 -18.33,1714.11 -3.38,569.9 -1.27,1140.57 -1.99,1710.98 -0.13,101.28 -9.11,311.87 51,389.24 76.27,98.16 209.81,111.15 305.89,57.4 126.81,-70.94 108.23,-193.82 119.39,-323.76l111.29 -1590.56c8.99,-117.34 -21.97,-285.7 66.11,-366.59 11.76,14.5 7.2,-12.61 25.54,45.95 0.48,1.55 8.22,42.79 8.34,43.5l62.24 667.73c13.84,263.02 27.69,553.27 52.07,810.51 15.66,165.21 9.16,628.79 149.64,709.98 97.76,56.5 251.03,19.8 313.75,-76.95 56.24,-86.77 34.15,-273.92 35.62,-384.09 7.51,-563.38 -25.06,-1154.54 -6.38,-1710.97 19.1,-568.78 -27.15,-1128.47 -0.85,-1703.46l761.33 768.59c6.47,67.9 6.42,141.07 16.14,207.63 13.25,90.85 17.2,84.66 72.68,136.62 116.52,109.11 -18.93,144.9 68.46,302.92 126.79,229.29 372.99,390.2 386.31,419.5 23.25,51.12 9.3,1467.06 10.51,1737.92 1.2,266.9 -41.48,346.29 269.33,319.47 97.47,-214.56 40.57,-671.18 190.75,-880.63 72.6,103.5 71.05,326.94 92.29,467.73 23.58,156.27 -2.34,328.52 119.26,419.85 258.84,29.44 208.98,-156.56 209.22,-361.7l0.51 -1700.1c137.77,-106.15 293.15,-214.88 367.1,-384.74 65.04,-149.39 86.66,-140.29 127.64,-264.55 37.44,-113.5 39.97,-193.92 68.03,-302.39 20.71,-24.08 335.63,-227.08 411.51,-291.2 83.27,-70.37 298.1,-274.71 386.46,-310.33l-203.98 654.14c-23.86,77.52 -31.9,138.38 -51.46,206.6 -22.25,77.57 -47.73,144.75 -74.33,208.01 -18.86,44.84 -43.34,165.84 -60.22,221.96 -41.95,139.4 -123.11,258.57 -143.9,413.77 238.63,-39.78 374.52,-32.8 614.54,-28.87l-13.28 1366.03c-1.33,203.55 34.22,220.65 -84.85,347.9 25.29,46.44 266.46,339.79 448.09,190.11 130.12,-107.23 115.79,-439 128.16,-608.04 15.43,-210.94 48.41,-1247.84 162.02,-1340.41 112.13,156.61 124.03,1208.38 162.77,1551.31 16.35,144.75 -12.2,349.35 150.16,413.72 182.15,72.23 319.84,-45.84 323.02,-236.59 6.91,-413.55 -25.01,-1436.73 6.56,-1691.34l596.46 -0.67c-11.35,-208.82 -184.42,-731.76 -241.46,-957.33 -52.96,-209.43 -218.83,-792.92 -242.6,-959.98 198.55,116.86 544.28,726.61 648.12,952.22z"/>
   <path class="fil2" d="M-29304.87 13892.61c-817.65,259.9 -440.65,1477.76 361.14,1233.67 344.18,-104.78 541.14,-442.64 444.79,-800.34 -90.91,-337.55 -478.06,-537.55 -805.93,-433.33z"/>
   <path class="fil0" d="M-24953.1 13950.61c-347.83,146.5 -533.09,430.6 -422.57,816.85 95.29,333.04 474.99,529.7 810.99,413.07 310.88,-107.92 554.76,-463.47 420.72,-803.32 -114.23,-289.63 -475.68,-567.05 -809.14,-426.6z"/>
   <path class="fil3" d="M-27252.31 17153.96c-237.54,98.66 -352.67,345.53 -259.74,594.21 77.35,207 367.58,350.72 583.39,252.55 589.62,-268.19 193.2,-1061.43 -323.65,-846.76z"/>
  </g>
  <g style="clip-path:url(#id0)">
   <image x="-69180.42" y="-28792.2" width="20390.56" height="33196.38" xlink:href="index3_Images\index3_ImgID1.png"/>
  </g>
  <g id="_2180880436624">
   <path class="fil4" d="M-59395.48 -1571.72c172.01,-345.41 328.63,-602.48 567.99,-850.8 1257.96,-1305.05 1812,-708.24 3285.02,-770.73 -94.25,265.79 -392.23,698.97 -542.51,902.13 -690.51,933.51 -2032.13,1140.5 -3069.36,827.17 261.71,-288.23 1246.55,-801.93 1445.28,-980.32 -514.19,142.59 -1270.01,638.53 -1686.42,872.55zm-1470.85 389.58c-258.81,-142.82 -571.22,-575.27 -737.03,-897.42 -401.02,-779.16 -297.78,-2031.74 -106.8,-2872.06 63.22,-278.15 278.68,-1046.76 396.69,-1238.72l314.44 578.6c362.21,606.88 722.31,881.43 906.23,1669.2 225.18,964.5 -132.23,1990.41 -540.17,2693.43 -48.19,-282.83 -45.26,-611.17 -82.33,-904.99 -114.98,-911.28 -288.96,-1517.15 -334.51,-2559.18 -232.26,326.21 281.16,2458.3 183.48,3531.14zm3806.27 -5914.23c0,-971.84 294.58,-1831.62 1140.22,-2297.76 192.66,871.83 1088.15,1482.51 563.42,2539.92 -355.1,715.58 -1264.98,1327.07 -1946.03,1412.58 89.8,-162.07 311.64,-305.34 451.65,-472.06 376.57,-448.43 825.7,-1146.43 908.39,-1763.3l-251.8 514.72c-187.2,360.81 -661,1089.24 -936.98,1234.78l71.13 -1168.88zm-2060.25 1950.22c-365.36,-199.91 -838.05,-671.43 -1100.56,-960.78 -636.83,-701.93 -1140.55,-2048.06 -699.34,-2994.23 169.42,-363.32 633.08,-853.05 1105.4,-934.74 -215.98,1302.84 -171.55,1094.65 422.23,2288.9 381.03,766.36 553.4,1432.79 405.51,2418.52 -81.51,-104.35 -115.14,-297.01 -168.28,-433.7 -301.89,-776.65 -637.69,-972.24 -909.06,-1983.69 -63.87,-238.06 -88.27,-883.39 -159.32,-1015.74 -273.6,1465.13 979.8,2581.13 1103.42,3615.46zm2513.57 -5353.2c-9.01,-285.82 628.17,-1115.22 777.82,-1272.79 1349.85,-1421.33 1428.6,-937.94 2456.7,-1635.28 527.35,-357.68 1082.28,-956.54 1093.59,-963.5 111.33,635.28 337.31,1108.57 50.73,1790.9 -617.15,1469.42 -2678.56,1796.08 -4072.26,2053.69 664.46,-585.32 3015.11,-1419.79 3304.78,-2171.61 -165.3,79.51 -271.82,202.92 -415.06,311.29 -1119.44,846.95 -2231.38,1037.3 -3196.3,1887.3zm-725.73 -2795.82c147.75,-681.29 790.13,-1354.06 1216.28,-1657.23 400.96,-285.24 1595.18,-785.03 2006.99,-829.49 7.73,942.58 -531.8,1668.12 -1053.63,1995.29 -472.72,296.39 -1564.15,714.6 -2178.07,874.09 124.09,-423.27 793.76,-898.5 1151.37,-1159.75l988.57 -705.46c130.06,-101.29 235.23,-140.47 270.83,-286.18 -177.21,59.02 -472.83,281.43 -656.78,394.28 -482.41,295.96 -1143.89,691.1 -1501.22,1109.84l-244.34 264.61zm-2750.37 1722.54c-519.53,-334.95 -947.7,-694.32 -1267.94,-1236.75 -665.42,-1127.11 -381.25,-2797.12 159.78,-3971.99l53.92 -91.02c302.21,540.73 -56.47,394.81 935.53,1574.05l602.61 666.87c1055.74,1187.68 1735.2,2717.55 1676.42,4582.27l-144.02 -188.53c-1206.24,-1913.46 -2986.67,-3213.74 -2969.96,-5825.28 -202.87,322.76 53.77,1381.63 176.99,1741.07 157.81,460.33 428.43,969.36 660.67,1349.08 439.47,718.55 1512.96,2007.52 1705.93,2341.25l-1589.93 -941.02zm1170.35 -6956.55c-66.6,-137.82 -282.47,-492.26 -304.95,-577.15l445.13 1213.85c250.38,777.61 859.64,3411.74 892.25,4163.61 -100.93,-78.87 -320.9,-511.48 -625.99,-831.08 -1307.59,-1369.82 -2040.74,-2884.19 -2284.19,-4844.63l-328.7 -2564.74c160.9,50.74 418.12,221.27 577.55,307.85 1355.63,736.21 2843.49,1059.02 3451.32,2439.28 525.82,1194 85.24,3030.35 -214.57,4317.23 -101.31,434.85 -177.12,962.86 -246.82,1420.96 -85.33,-219.48 -181.35,-1233.34 -247.13,-1573.34 -242.86,-1255.35 -564.89,-2335.7 -1113.9,-3471.84zm1263.43 7834.48l-42.34 1113.21c-285.51,-193.85 -54.06,-1343.07 -312.29,-2414.56 -282.94,-1173.99 -788.2,-1842.95 -1465.05,-2695.42 -204.98,-258.17 -466.67,-480.92 -673.94,-737.05 -100.51,-124.19 -206.96,-240.07 -306.21,-364.78 -113.92,-143.15 -188.5,-246.58 -288.45,-416.46 -217.19,-369.13 -258.8,-610.7 -369.97,-1049.5 -127.89,159.01 -557.66,1396.9 -624.86,1663.83 -320.7,1273.9 -142.53,2680.05 800.53,3566.46 704.17,661.88 1501.03,902.53 2129.98,1362.29 273.99,200.28 391.5,326.09 590.83,573.29 463.67,575 489.76,932.99 335.62,1810.45 -96.69,550.39 -783.06,3468.27 -1039.37,3619.91 -59.09,-177.86 136.51,-1150.2 126.14,-1516.16 -51.63,-1821.83 -1288.77,-2120.59 -941.36,-3604.14 27.01,-115.34 61.75,-221.2 31.13,-333.7 -84.86,-311.78 -1790.41,547.29 -1541.07,2032.43 157.89,940.42 525.69,1887.16 1287.33,2484.2 1040.26,815.44 1120,974.35 489.27,2435.52 -191.13,442.79 -386.69,858.14 -580.05,1290.33 -95.84,214.23 -203.81,422.73 -307.96,643.87 -95.15,202.04 -179.88,493.89 -347.42,645.93 15.34,-451.64 405.26,-1012.26 574.42,-1477.59 415.7,-1143.55 286.66,-2122.21 -418.72,-3088.61 -220.8,-302.52 -430.54,-585.26 -588.1,-927.56 -57.07,-123.98 -86.32,-282.01 -182.5,-351.78 -129.25,77.48 -217.73,488.32 -269.71,651.17 -248.49,778.58 -471.81,1458.61 -472.23,2316.36 -0.23,480.17 35.06,1012.07 219.24,1403.84 91.08,193.72 188.05,360.33 314.52,498.25 625.32,681.91 750.83,410.71 462.31,1666.23 -395.44,1720.79 -5.68,2060.95 -1055.66,2231.08 -460.52,74.63 -968.67,158.72 -1430.26,215.48l-2121.04 316.46c-177.07,26.83 -389.76,24.5 -559.42,82.57 -129.81,44.42 -85.66,-43 -85.22,97.2l15404.41 0c-6.62,-123.61 26.58,-75.85 -154.92,-109.16 -625.04,-114.73 -1265.57,-166.22 -1892.27,-264.42 -2976.73,-466.43 -3020.62,-39.83 -3161.23,-1731.2 -63.55,-764.3 -130.54,-1522.65 -190.59,-2290.08 -151.74,59.7 -295.85,171.48 -460.56,244.12 -691.72,305.07 -1213.97,224.86 -1913.79,97.37 -1.01,580.65 51.64,2347.51 -9.87,2785.61 -47.05,335.09 -382.03,637.97 -789.28,588.45 -394.73,-48 -629.48,-361.21 -629.48,-787.08l0 -2046.11c0,-179.03 290.99,-472.7 386.51,-560.43 230.96,-212.13 271.69,-272.59 702.28,-226.58 680.81,72.75 1005.97,209.43 1706.57,-10.23 755.15,-236.76 1253.39,-715.07 1567.88,-1359.94 57.65,-118.23 102.8,-214.03 167.84,-326.11 27.69,-47.7 66.08,-102.21 95.87,-156.44 5.55,-10.1 30.9,-65.2 31,-65.64l-2.67 -62.8c-11.22,-96.9 -638.76,-59.57 -757.94,-71.13 -873.18,-84.62 -1215.01,-331 -2090.94,205.45 -500.7,306.65 -905.53,823.34 -1144.36,1360.97 -109.68,246.92 -127.17,425.87 -361.89,517.69l1042.67 -2447.5c227.85,-595.28 223.32,-735.93 623.68,-1105.08 498.01,-459.18 365.73,-387.42 1150.09,-614.07 1296.94,-374.77 2522.78,-1597.97 1696.85,-3001.98 -112.15,-190.64 -246.19,-354.24 -348.37,-533.16 -151.48,-265.23 -121.53,-484.55 -207.2,-666.75l-472.64 390.55c-1453.7,1308.93 -487.64,3125.24 -1427.89,3863.97 -81.98,64.41 -168.22,116.77 -267.91,190.78 -83.75,62.18 -164.33,149.41 -255.54,193.47l449.49 -1550.29c213.34,-813.54 374.82,-1689.83 455.19,-2544.42 45.37,-482.43 30.09,-447.52 273.67,-749.97 379.13,-470.77 584.73,-545.39 1375.13,-671.48 1471.35,-234.72 3394.4,-791.21 3721.95,-2309.44 89.48,-414.74 -5.05,-1471.04 -247.88,-1731.99 -122.74,56.39 -632.18,682.43 -1342.85,1093.49 -298.81,172.84 -523.61,246.8 -849.86,384.43 -346.74,146.28 -505.77,265.31 -775.51,459.31 -826.77,594.62 -1125.99,1234.19 -1548.21,2120.14 -64.59,135.54 -454.1,633.67 -548.43,668.27l-41.43 -1653.35c-19.15,-334.58 -105.42,-769.13 -104.55,-1067.59 0.88,-300.98 433.71,-372.44 663.49,-446.08 780.63,-250.17 1784.53,-601.96 2248.63,-1209.43 220.48,-288.59 746.16,-1460.47 486.2,-1709.54 -69.55,-58.99 -120.58,-23.02 -235.38,16.18 -616.91,210.64 -1306.54,385.04 -1838.77,740.44 -336.4,224.64 -523.23,410.77 -767.23,714.95 -114.73,143.02 -198.47,280.63 -290.96,449.53 -57.43,104.89 -173.55,405.54 -234.65,484.99 -125.58,-1191.16 1495.44,-4252.45 305.56,-6153.4 -478.12,-763.85 -1120.61,-1148.14 -2089.52,-1579.62 -1899.14,-845.73 -2217.61,-1446.22 -2082.09,-525.4 346.39,2353.63 263.41,4078.53 1446.87,5887.9 626.21,957.39 1207.09,1414.25 1630.77,2038.18 587.52,865.21 561.07,1899.46 565.94,3098.6z"/>
   <path class="fil4" d="M-66320.63 -26428.36c304.52,127.57 4337.08,554.8 4675.41,684.15 387.08,148 419.18,391.97 486.9,851 131.31,890.09 128.17,1703.02 229.1,2451.68 37.18,275.83 575.31,516.58 820.42,569 2.17,-824.8 0.28,-1649.84 0.28,-2474.67 0,-361.19 -61.13,-838.41 102.46,-1126.58 127.48,-224.56 465.74,-451.25 862.83,-303.57 649.18,241.43 463.19,1208.6 463.14,1994.59 -0.06,834.91 -0.38,1669.82 0.06,2504.72 14.1,46.8 678.48,405.59 965.89,633.63 317.54,251.95 791.64,826.12 1014.83,1172.73 73.57,114.25 132.87,249.5 207.88,345.45 81.35,-1011.16 87.2,-2052.86 155.5,-3068.86 62.08,-923.6 122.51,-2050.88 262.19,-2951.45 78.9,-508.7 385.31,-599.08 903.74,-678.28 461.2,-70.45 965.13,-143 1418.74,-195.07 409.35,-47 2620.38,-313.94 2840.67,-408.7l14.32 -187.84 -15432.18 -0.02 7.82 188.09z"/>
   <path class="fil5" d="M-57880.06 -13728.87c-32.61,-751.87 -641.87,-3386 -892.25,-4163.61l-445.13 -1213.85c22.48,84.89 238.35,439.33 304.95,577.15 549.01,1136.14 871.04,2216.49 1113.9,3471.84 65.78,340 161.8,1353.86 247.13,1573.34 69.7,-458.1 145.51,-986.11 246.82,-1420.96 299.81,-1286.88 740.39,-3123.23 214.57,-4317.23 -607.83,-1380.26 -2095.69,-1703.07 -3451.32,-2439.28 -159.43,-86.58 -416.65,-257.11 -577.55,-307.85l328.7 2564.74c243.45,1960.44 976.6,3474.81 2284.19,4844.63 305.09,319.6 525.06,752.21 625.99,831.08z"/>
   <path class="fil5" d="M-58492.91 -10631.61c-192.97,-333.73 -1266.46,-1622.7 -1705.93,-2341.25 -232.24,-379.72 -502.86,-888.75 -660.67,-1349.08 -123.22,-359.44 -379.86,-1418.31 -176.99,-1741.07 -16.71,2611.54 1763.72,3911.82 2969.96,5825.28l144.02 188.53c58.78,-1864.72 -620.68,-3394.59 -1676.42,-4582.27l-602.61 -666.87c-992,-1179.24 -633.32,-1033.32 -935.53,-1574.05l-53.92 91.02c-541.03,1174.87 -825.2,2844.88 -159.78,3971.99 320.24,542.43 748.41,901.8 1267.94,1236.75l1589.93 941.02z"/>
   <path class="fil5" d="M-56606.74 -10499.35c964.92,-850 2076.86,-1040.35 3196.3,-1887.3 143.24,-108.37 249.76,-231.78 415.06,-311.29 -289.67,751.82 -2640.32,1586.29 -3304.78,2171.61 1393.7,-257.61 3455.11,-584.27 4072.26,-2053.69 286.58,-682.33 60.6,-1155.62 -50.73,-1790.9 -11.31,6.96 -566.24,605.82 -1093.59,963.5 -1028.1,697.34 -1106.85,213.95 -2456.7,1635.28 -149.65,157.57 -786.83,986.97 -777.82,1272.79z"/>
   <path class="fil5" d="M-60866.33 -1182.14c97.68,-1072.84 -415.74,-3204.93 -183.48,-3531.14 45.55,1042.03 219.53,1647.9 334.51,2559.18 37.07,293.82 34.14,622.16 82.33,904.99 407.94,-703.02 765.35,-1728.93 540.17,-2693.43 -183.92,-787.77 -544.02,-1062.32 -906.23,-1669.2l-314.44 -578.6c-118.01,191.96 -333.47,960.57 -396.69,1238.72 -190.98,840.32 -294.22,2092.9 106.8,2872.06 165.81,322.15 478.22,754.6 737.03,897.42z"/>
   <path class="fil5" d="M-59120.31 -5146.15c-123.62,-1034.33 -1377.02,-2150.33 -1103.42,-3615.46 71.05,132.35 95.45,777.68 159.32,1015.74 271.37,1011.45 607.17,1207.04 909.06,1983.69 53.14,136.69 86.77,329.35 168.28,433.7 147.89,-985.73 -24.48,-1652.16 -405.51,-2418.52 -593.78,-1194.25 -638.21,-986.06 -422.23,-2288.9 -472.32,81.69 -935.98,571.42 -1105.4,934.74 -441.21,946.17 62.51,2292.3 699.34,2994.23 262.51,289.35 735.2,760.87 1100.56,960.78z"/>
   <path class="fil5" d="M-57060.06 -7096.37l-71.13 1168.88c275.98,-145.54 749.78,-873.97 936.98,-1234.78l251.8 -514.72c-82.69,616.87 -531.82,1314.87 -908.39,1763.3 -140.01,166.72 -361.85,309.99 -451.65,472.06 681.05,-85.51 1590.93,-697 1946.03,-1412.58 524.73,-1057.41 -370.76,-1668.09 -563.42,-2539.92 -845.64,466.14 -1140.22,1325.92 -1140.22,2297.76z"/>
   <path class="fil5" d="M-59395.48 -1571.72c416.41,-234.02 1172.23,-729.96 1686.42,-872.55 -198.73,178.39 -1183.57,692.09 -1445.28,980.32 1037.23,313.33 2378.85,106.34 3069.36,-827.17 150.28,-203.16 448.26,-636.34 542.51,-902.13 -1473.02,62.49 -2027.06,-534.32 -3285.02,770.73 -239.36,248.32 -395.98,505.39 -567.99,850.8z"/>
   <path class="fil5" d="M-57332.47 -13295.17l244.34 -264.61c357.33,-418.74 1018.81,-813.88 1501.22,-1109.84 183.95,-112.85 479.57,-335.26 656.78,-394.28 -35.6,145.71 -140.77,184.89 -270.83,286.18l-988.57 705.46c-357.61,261.25 -1027.28,736.48 -1151.37,1159.75 613.92,-159.49 1705.35,-577.7 2178.07,-874.09 521.83,-327.17 1061.36,-1052.71 1053.63,-1995.29 -411.81,44.46 -1606.03,544.25 -2006.99,829.49 -426.15,303.17 -1068.53,975.94 -1216.28,1657.23z"/>
   <path class="fil4" d="M-58663.92 -3137.42c470.34,-232.1 789.91,-553.51 1582.54,-572.44 257.13,-6.14 437.31,48.52 653.76,53.92l-53.88 -1639.12c-228.3,90.63 -454.71,230.24 -716.01,339.95 -281.67,118.27 -537.6,161.21 -747.33,345.28 -292.03,256.28 -723.28,937.85 -719.08,1472.41z"/>
   <path class="fil4" d="M-60649.84 -9985.84c106.25,-51.27 153.7,-102.31 262.31,-171.37 90.53,-57.57 177.41,-88.02 274.88,-149.44l8.11 -847.8 -542.75 -263.79 -2.55 1432.4z"/>
  </g>
  <g style="clip-path:url(#id1)">
   <image x="-41875.13" y="-36741.7" width="18767.78" height="33161.1" xlink:href="index3_Images\index3_ImgID2.png"/>
  </g>
  <g id="_2180880432736">
   <path class="fil6" d="M-47629.17 581.68l0.71 21834.98c-995.65,101.59 -2058.95,-205.15 -2079.5,288.28 -11.83,284.05 239.02,302.1 493.42,300.46 2010.62,-12.99 4398.05,-31.95 6386.57,-2.63 272.35,4.01 474.54,11.07 512.19,-242.4 39.59,-266.55 -196.21,-335.58 -440.44,-335.55 -534.81,0.06 -1092.88,19.27 -1625.15,-2.84l-7.04 -21847.01c517.86,-21.91 1076.2,-6.08 1596.3,-3.18 261.04,1.45 458.08,-24.32 478.25,-276.05 23.02,-287.16 -210.79,-316.14 -478.48,-315.05l-6386.59 0.4c-265.46,-1.96 -484.01,19.34 -524.27,258.33 -95.05,564.12 1083.61,231.01 2074.03,342.26z"/>
   <path class="fil7" d="M-46348.66 -6624.78c-2309.05,338.77 -2933.47,3184.82 -1279.32,4493.28 474.07,375 1161.82,674.58 1948.22,563.6 1327.8,-187.39 2406.26,-1377.59 2200.34,-2883.21 -172.44,-1260.84 -1363.27,-2394.61 -2869.24,-2173.67z"/>
  </g>
  <g style="clip-path:url(#id2)">
   <image x="42320.16" y="7488.52" width="55915.28" height="38452.78" xlink:href="index3_Images\index3_ImgID3.png"/>
  </g>
  <g id="_2180880424384">
   <path class="fil8" d="M84557.47 42625.19c17.9,274.1 138.17,599.89 275.84,737.32 171.2,170.89 593.52,109.48 878.52,109.48 370.12,0 1696.43,75.21 1888.92,-86.87 359.68,-302.87 298.77,-1114.26 301.68,-1677.15l-0.34 -9913.06c0,-1316.01 -32.79,-2676.08 -3.28,-3986.39 28.91,-1283.38 28.92,-2667.73 0.01,-3951.11 -50.34,-2234.08 32.28,-4647.6 3.2,-6914.45 -6.28,-489.68 92.51,-1356.66 -291.78,-1722.4 -177.4,-168.82 -588.84,-108.59 -875.36,-108.58 -2095.09,0 -2182.22,-323.32 -2182.24,1760.43l0 17850.56c0.1,1317.06 -2.04,2634.37 4.69,3951.11 5.04,988 -53.21,3133.85 0.14,3951.11z"/>
   <path class="fil9" d="M74890.78 42801.58c90.38,773.52 627.35,670.6 1013.83,670.55 553.2,-0.06 1106.45,0.95 1659.62,1.09 616.13,0.16 664.74,-505.76 664.02,-1024.28l-0.31 -20073.2c0,-692.94 154.58,-1857.13 -276.84,-2222.99 -170.29,-144.4 -472.34,-99.76 -741.22,-102.15 -551.14,-4.91 -1108.44,-3.7 -1659.73,-1.12 -580.12,2.71 -671.47,465.59 -670.61,1020.92l19.23 5009.51c-1.3,1116.73 -29.32,2231.9 -19.01,3351.39 20.36,2210.67 36.72,4494.3 4.46,6702.78 -6.21,425.76 -35.91,6304.07 6.56,6667.5z"/>
   <path class="fil9" d="M68530.58 43013.24c85.66,-306.08 27.65,-2240.51 27.65,-2716.38l0 -13758.34c-0.06,-305.5 36.32,-1079.24 -48.73,-1317.41 -58.54,-163.91 -180.6,-332.33 -340.3,-360.46 -289.8,-51.05 -1700.43,-30.04 -2036.54,-30.62 -505.43,-0.88 -759.2,11.25 -894.15,457.85 -60.87,201.46 -30.01,2343.77 -30.01,2732.31l0 13758.33c0,1595 -101.95,1693.65 1065.27,1693.61 458.6,-0.01 917.25,-0.63 1375.84,0.03 480.77,0.69 760.61,-28.84 880.97,-458.92z"/>
   <path class="fil8" d="M55520.96 43048.52c63.04,334.91 327.52,425.04 698.1,424.15 364.72,-0.89 729.43,-0.68 1094.16,-0.68 782.47,0 1552,217.39 1550.03,-669.54 -3.26,-1470.28 -6.81,-2941.55 -0.57,-4410.59 6.26,-1476.65 -27.17,-2972.98 -1.3,-4445.01 9.12,-518.87 31.99,-4164.41 -9.04,-4400.07 -58.5,-336.08 -307.81,-417.57 -691.13,-416.73 -364.98,0.81 -729.95,0.61 -1094.94,0.61 -915.9,0 -1553.42,-191.43 -1554.41,652.27 -0.76,638.35 -27.27,13072.39 9.1,13265.59z"/>
   <path class="fil9" d="M56131.01 25317.08l-619.04 1962.83c214.21,-89.35 1460.43,-1109.34 1695.41,-1192.16 318.9,184.86 1471.24,1101.59 1684.67,1193.68l-630.36 -1977.63c107.8,-107.34 306.64,-235.43 425.81,-318.97l839.92 -606.62c150.97,-114.02 288.16,-187.64 403.45,-308.96l-2079.33 -9.33 -670.3 -1973.88 -630.4 1978.73 -2101.09 5.42 1681.26 1246.89z"/>
   <path class="fil9" d="M85535.44 10220.03l-2038.62 0.56c47.72,82.98 677.82,513.04 809.73,613.66 177.48,135.39 688.81,525.94 854.15,594 -53.44,406.67 -537.59,1527.15 -624.69,1995.54 238.74,-112.11 1387.42,-1007.34 1706.93,-1204.16l1682.37 1224.59 -648.81 -2003.58c234.77,-109.29 644.07,-441.9 867.23,-602.85l825.35 -609.3 -2091.42 -8.46 -642.62 -2000.83 -335.76 1007.7c-55.47,176.28 -103.52,335.27 -161.82,510.76 -28.1,84.58 -50.37,151.58 -75.99,240.47 -41.1,142.63 -39.57,188.17 -126.03,241.9z"/>
   <path class="fil8" d="M75834.05 15013.19l-2028.28 0.65c278.11,175.59 1443.28,1123.93 1689.74,1211.41l-645.72 2006.44c227.44,-105.31 1465.08,-1072.13 1697.14,-1203.24l1697.2 1184.65 -644.31 -1985.43c267.06,-94.06 1423.48,-1037.59 1705.86,-1203.84l-2060.52 -11.14c-124.07,-80.36 -148.83,-311.42 -194.04,-451.35l-492.96 -1519.28 -589.62 1742.29c-6.9,22.39 -32.78,113.63 -43.07,132.98 -45.57,85.69 -6.95,55.74 -91.42,95.86z"/>
   <path class="fil8" d="M64154.07 19797.56c109.55,114.59 259.16,208.53 401.79,309.79l1258.13 927.84 -637.78 1971.23c256.4,-133.22 612.47,-418.18 851.17,-594.71 274.77,-203.21 558.78,-416.17 846.11,-605.8 157.55,74.52 285.11,191.93 421.42,289.5l1264.87 910.63c-68.56,-361.48 -516.46,-1476.34 -633.83,-1970.85 222.26,-205.08 588.54,-434.29 836.43,-615.92l826.95 -619.22 -2066.88 -8.38 -610.52 -1903.28c-53.3,-106.46 -6.89,-24.95 -46.87,-76.47 -127.14,550.75 -402.16,1204.04 -571.16,1762.5 -91.68,302.96 -20.45,220.05 -937.35,217.81 -391.86,-0.96 -813.99,-13.55 -1202.48,5.33z"/>
  </g>
  <path class="fil1" d="M1302.44 867.73c2.34,131.26 -3.51,267.34 -4.3,399.77 -0.8,135.7 -0.19,271.5 -0.49,407.34 -0.06,28.05 -1.27,71.1 10.27,89.35 13.38,21.16 44.85,29.67 70.9,17.27 26.69,-12.7 28.03,-37 30.43,-69.22l26.4 -380.14c3.21,-38.51 -3.56,-63.79 14.71,-90.58l8.89 18.84c7.48,31.32 24.31,315.57 27.42,351.3 3.62,41.71 4.14,147.19 32.5,165.98 25.74,17.06 61.59,3.86 75,-14.09 15.53,-20.77 9.54,-62.3 9.96,-92.87 1.83,-133.37 -5.1,-271.09 -1.49,-403.18 3.71,-135.6 -6.44,-264.96 -1.56,-400.03 20.52,11.75 107.35,108.91 139.44,139.99 64.78,62.75 31.84,28.25 46.27,95.29 5.08,23.57 6.69,15.75 17.98,27.65 31.99,33.71 -44.32,48.92 105.98,167.28 1.99,90.65 0.54,182.44 0.99,273.24 0.23,45.72 0.55,91.45 0.73,137.17 0.26,67.98 -9.15,78.33 64.7,75.79 14.88,-55.06 14.86,-168.39 43.68,-207.87 39.29,53.86 -1.32,249.76 83.32,206.59 20.29,-10.36 15.85,-52.87 15.87,-82.83 0.09,-133.27 -1.49,-267.48 0.12,-400.61 28.38,-22.51 64.33,-45.5 83.9,-84.98l28.33 -55.47c9.7,-23.98 12.39,-42.22 17.26,-70.01 4.96,-28.27 42.26,-33.4 93.42,-76.64 19.75,-16.69 76.84,-70.54 97.74,-78.91 -16.78,67.56 -42.91,134.35 -60.35,202.59 -11.9,46.59 -61.43,168.55 -65.46,199.06 54.78,-9.17 87.75,-7.75 144.81,-6.8 1.41,70.05 -1.96,143.22 -2.4,213.83l-0.88 157.31c-2.33,14.9 -10.3,22.45 -19.84,32.74 7.37,13.4 63.12,76.41 103.4,46.54 33.22,-24.64 29,-102.34 32.38,-145.23 4.05,-51.63 13.31,-296.03 38.61,-315.89 25.18,40.36 29.27,279.98 37.58,362.01 4.47,44.01 -1.09,87.15 35.81,101.3 41.07,15.76 74.56,-9.6 76.05,-51.51 3.87,-108.3 -7.99,-326.84 1.54,-402.06l140.55 -0.82c-1.67,-31.63 -72.04,-284.2 -85.57,-335.18 -9.59,-36.11 -23.69,-82.21 -28.49,-116.73 44.91,26.47 125.44,164.8 152.73,224.39 142.3,8.6 68.59,-107.71 33.35,-170.16 -70.08,-124.23 -166.55,-251.03 -270.04,-336.53 -30.18,-24.93 -72.53,-36.34 -117.27,-29.74 -97.3,14.36 -147.54,134.9 -221.71,235.27 -43.98,59.52 -90.65,108.61 -139.12,164.52 -25.07,28.91 -38.5,58.4 -47.09,100.82 -2.64,13.03 -2.8,20.93 -6.07,31.7 -13.02,42.81 -11.63,48.64 -41.36,76.04 -33.68,31.03 -41.66,47.02 -106.85,49.87 -25.23,1.1 -51.39,1.14 -69.05,-8.29 -154.44,-82.43 -72.47,-194.4 -119.93,-262.64 -12.06,-17.34 -22.13,-24.7 -35.21,-39.87 -113.11,-131.22 -122.35,-144.36 -220.4,-311.8 -18.33,-31.3 -41.9,-53.58 -86.49,-61.93 -46.31,-8.67 -89.14,-0.26 -124.4,22.06 -117.26,74.21 -275.26,433.19 -269.96,483.89 4.3,41 68.1,60.45 95.15,27.19 15.71,-19.31 68.97,-183.79 107.61,-201.37z"/>
  <path class="fil10" d="M1499.78 216.9c-45.48,14.54 -65.23,29.48 -86.17,65.51 -20.74,35.7 -27.09,80.68 -15.37,124.1 50.08,185.65 344.41,112.09 291.46,-87.7 -18.33,-69.14 -101.88,-130.05 -189.92,-101.91z"/>
  <path class="fil10" d="M2526.68 230.48c-43.5,18.59 -62.13,26.02 -85.68,64.56 -68.45,112.04 30.52,271.96 175.03,225.34 85.1,-27.45 127.47,-120.26 100.24,-189.86 -30.28,-77.39 -124.12,-128.02 -189.59,-100.04z"/>
  <path class="fil10" d="M1983.97 984.85c-47.45,19.7 -87.16,74.59 -61.79,140.72 15.21,39.65 79.05,86.33 137.28,59.32 7.44,-3.45 23.84,-15.02 29.99,-19.6 95.26,-70.77 4.96,-226.28 -105.48,-180.44z"/>
  <g id="_2180880423280">
   <path class="fil10" d="M793.09 2945.38c0,30.76 -28.93,41.69 -53.7,51.24 -29.42,11.34 -48.69,20.6 -78.61,32.49 -150.25,59.72 -146.66,84.06 -192.25,-24.61l-96.14 -231.02c-40.66,-101.17 -85.88,-201.33 -126.93,-305.16 -16.23,-41.06 -124.25,-288.47 -123.48,-306.29 1.88,-43.6 65.66,-58.53 130.58,-84.34 177.04,-70.36 144.16,-92.3 224.84,103.14l315.69 764.55zm-228.4 -790.12l426.08 -203.55c172.37,-76.55 299.09,-46.27 450.46,55.4 69.03,46.37 54.16,29.53 133.19,51.99 49.38,14.03 99.79,28.06 145.81,39.38 51.44,12.64 95.02,26.77 145.63,39.55 55.54,14.03 85.58,24.88 113.9,71.28 45.46,74.5 19.48,268.51 -203.02,203.02l-508.35 -133.61c-35.44,0 -81.07,69.16 5.99,92.76 28.63,7.77 52.27,14.51 82.86,22.08l330.86 88.89c125.57,32.95 223.55,77.66 338.14,-38.47 43.68,-44.28 63.13,-91.54 63.13,-177.61 158.18,-36.85 591.77,-191.36 716.04,-191.36 62.74,0 144.99,1.86 177.36,69.56 42.73,89.36 -20.91,208.4 -127.87,251.53l-360.73 139.27c-176.56,67.15 -438.57,175.61 -603.11,230.21 -242.29,80.41 -277.7,29.21 -536.27,-42.4 -42.62,-11.8 -84.89,-24.96 -128.88,-37.79 -112.56,-32.83 -176,-49.93 -290.94,6.81 -27.67,13.66 -92.89,53.11 -123.37,55.65 -12.01,-22.71 -20.28,-49.62 -31.02,-73.92l-185.18 -444.44c-10.19,-23.02 -19.93,-51.78 -30.71,-74.23zm-37.03 -86.42c-32.23,-67.16 -44.32,-129.63 -154.32,-129.63 -36.7,0 -259.32,93.81 -290.44,116.97 -112.4,83.69 -2.3,242.07 54.12,384.78l163.19 392.36c16.94,42.16 35.83,88.63 54.45,130.74 19.04,43.05 34.57,89.13 55.51,129.67 72.21,139.85 215.84,46.61 328.18,0.61 90.88,-37.22 141.15,-52.54 141.15,-161.31 0,-38.66 -23.04,-65.2 -30.86,-98.77 30.57,-16.17 67.52,-35.37 98.85,-49.3 131.24,-58.36 141.89,-43.2 291.33,-1.37 83.44,23.35 358.99,112.4 424.63,112.4 224.64,0 422.13,-112.78 619.59,-182.87l369.89 -142.44c64.21,-25.06 122.51,-46.41 186.86,-72.41 53.49,-21.61 121.92,-44.57 164.25,-95 163.41,-194.66 95.01,-522.55 -380.31,-386.48 -142.16,40.7 -438.31,135.03 -559.05,163.16 -75.08,-141.9 -236.57,-140.4 -426.66,-196.79 -200.74,-59.55 -67.06,-10.43 -219.5,-95.31 -255.71,-142.38 -422.82,-44.71 -658.34,74.01l-189.2 88.58c-16.42,7.43 -23.38,13.75 -43.32,18.4z"/>
  </g>
 </g>
</svg>
