<?xml version="1.0" encoding="UTF-8"?>
<!DOCTYPE svg PUBLIC "-//W3C//DTD SVG 1.1//EN" "http://www.w3.org/Graphics/SVG/1.1/DTD/svg11.dtd">
<!-- Creator: CorelDRAW 2021 (64-Bit) -->
<svg xmlns="http://www.w3.org/2000/svg" xml:space="preserve" width="33.0728mm" height="19.8436mm" version="1.1" style="shape-rendering:geometricPrecision; text-rendering:geometricPrecision; image-rendering:optimizeQuality; fill-rule:evenodd; clip-rule:evenodd"
viewBox="0 0 3307.28 1984.36"
 xmlns:xlink="http://www.w3.org/1999/xlink"
 xmlns:xodm="http://www.corel.com/coreldraw/odm/2003">
 <defs>
  <style type="text/css">
   <![CDATA[
    .fil0 {fill:#EDEDE9}
   ]]>
  </style>
 </defs>
 <g id="Слой_x0020_1">
  <metadata id="CorelCorpID_0Corel-Layer"/>
  <g id="_2394933005888">
   <g id="_2182529294784">
    <path class="fil0" d="M1106.79 1280.13c-7.83,-9.53 -18.73,-32.84 -24.46,-43.87 -60.57,-116.56 -84.81,-263.76 -63.76,-395.5 12.6,-78.89 35.29,-140.95 68.29,-203.59 21.95,-41.66 52.61,-86.27 82.76,-121.57 11.18,-13.1 21.14,-22.99 31.16,-35.41 -18.26,7 -71.24,57.4 -89.35,75.86 -9.27,9.46 -15.95,17.17 -25.56,28.72 -30.96,37.23 -64.26,85.25 -86.76,133.32 -24.89,53.15 -43.83,99.15 -58.17,161.93 -13.38,58.61 -19.92,136.77 -13.33,201.08 10.58,103.27 30.95,170.55 73.06,256.92 56.39,115.66 154.96,217.1 267.36,281.7 21.6,12.42 50.69,27.16 73.45,36.53 25.27,10.39 53.34,21 81.04,28.73 223.87,62.39 461.33,10.07 634.16,-139.39l28.02 -26.28c73.81,-64.31 136.49,-170.39 171.4,-267.6 12.25,-34.09 43.62,-150.13 36.71,-180.8 -35.7,118.31 -68.46,204.67 -149.54,295.41 -43.81,49.02 -92.09,91.7 -151.72,126.95 -5.4,3.19 -12.47,8.19 -17.95,10.96 -33.06,16.68 -56.49,29.37 -94.05,43.15 -13.88,5.11 -25.91,9.16 -41.63,14 -14.05,4.33 -30.2,8.04 -44.73,11.04 -184.85,38.19 -379.46,-2.95 -526.23,-117.52 -9.45,-7.38 -54.04,-42.21 -58.18,-53.58 92.64,-1.47 169.11,20.25 251.36,37.67 113.46,24.04 139.35,35.09 231.52,-18.31 31.89,-18.46 61.82,-33.12 93.62,-50.82 42.98,-23.95 153.51,-80.16 184.89,-100.9 53.52,-35.39 5.12,-66.15 -36.35,-59.14 -3.27,18.2 5.13,46.02 -23.78,67.58 -34.77,25.93 -69.16,3.26 -69.86,3.18 -4.71,-0.53 -17.84,15.56 -46.72,8.13 -16,-4.11 -26.77,-13.66 -36.19,-22.32 -4.26,0.38 -60.47,18.12 -64.39,21.27 6.44,15.67 33.47,38.4 20.97,61.01 -27.14,49.12 -180.7,33.27 -224.55,26.64 4.46,-3.5 7.31,-2.86 13.49,-3.32 5.19,-0.37 9.27,-1.01 14.29,-1.28 41.06,-2.24 165.71,4.69 178.3,-34.94 6.74,-21.2 -11.41,-30.57 -24.01,-36.58 -16.93,-8.07 -27.82,-10.2 -49.92,-9.57 -36.07,1.02 -33.82,-9.48 -50.23,-11.8l-51.28 -8.41c-0.02,0 -30.11,35.35 -72.9,13.88 -8.88,-4.46 -11.77,1.66 -22.52,4.86 -33.78,10.07 -68.61,-8.61 -76.11,-49.1 -48.96,-5.37 -137.51,13.85 -185.72,27.13 -14.16,3.89 -43.18,12.86 -55.9,13.95z"/>
    <path class="fil0" d="M1707.1 317.46l-59.66 0 -59.51 7.37c-51.08,7.75 -110.93,26.84 -155.91,47.63 -167.81,77.56 -291.56,229.54 -332.65,408.92 -2.57,11.13 -8.82,52.01 -3.97,61.18l21.11 -60.43c23.14,-58.37 54.6,-107.17 92.24,-153.72 43.08,-53.3 107.69,-108.14 183.61,-145.12 329.06,-160.29 727.57,30.05 800.03,400.13 35.02,178.81 -18.17,335.95 -123.85,472.1 -4.09,5.28 -15.6,18.45 -17.81,23.85 12.38,-5.29 52.7,-44.26 61.57,-53.87 58.1,-62.88 102.18,-129.45 131.6,-216.18 43.5,-128.19 43.74,-269.58 -2.18,-397.13 -60.25,-167.31 -187.77,-292.36 -342.98,-353.01 -39.57,-15.48 -94.98,-31.07 -138.32,-35.94 -9.34,-1.05 -48.53,-3.62 -53.32,-5.78z"/>
    <path class="fil0" d="M1390.07 932.86c0.81,45.14 -1.2,91.95 -1.47,137.5 -0.28,46.67 -0.06,93.37 -0.18,140.1 -0.02,9.65 -0.43,24.45 3.54,30.73 4.61,7.28 15.43,10.22 24.38,5.94 9.18,-4.36 9.65,-12.73 10.47,-23.8l9.08 -130.76c1.12,-13.23 -1.22,-21.94 5.07,-31.15l3.05 6.48c2.58,10.77 8.37,108.54 9.43,120.84 1.26,14.34 1.43,50.61 11.18,57.08 8.85,5.86 21.2,1.32 25.8,-4.84 5.34,-7.16 3.28,-21.44 3.42,-31.95 0.63,-45.87 -1.74,-93.24 -0.5,-138.67 1.27,-46.65 -2.23,-91.14 -0.54,-137.59 7.05,4.04 36.92,37.45 47.96,48.15 22.27,21.58 10.94,9.7 15.91,32.77 1.75,8.12 2.3,5.42 6.18,9.52 11.01,11.58 -15.24,16.81 36.46,57.53 0.69,31.17 0.19,62.76 0.34,93.98 0.09,15.72 0.19,31.44 0.25,47.18 0.1,23.38 -3.14,26.94 22.25,26.07 5.12,-18.94 5.11,-57.92 15.02,-71.5 13.53,18.52 -0.45,85.91 28.66,71.06 6.98,-3.56 5.46,-18.19 5.47,-28.48 0.02,-45.85 -0.53,-92.02 0.04,-137.8 9.75,-7.75 22.11,-15.66 28.85,-29.23l9.75 -19.08c3.33,-8.24 4.25,-14.52 5.93,-24.09 1.7,-9.72 14.53,-11.47 32.13,-26.34 6.8,-5.76 26.43,-24.27 33.63,-27.16 -5.78,23.24 -14.78,46.22 -20.77,69.69 -4.09,16.02 -21.12,57.97 -22.51,68.46 18.85,-3.15 30.18,-2.67 49.81,-2.34 0.48,24.1 -0.67,49.27 -0.83,73.55l-0.3 54.11c-0.8,5.12 -3.54,7.72 -6.83,11.26 2.54,4.6 21.72,26.28 35.56,16.01 11.44,-8.47 9.99,-35.21 11.15,-49.96 1.39,-17.75 4.58,-101.82 13.27,-108.65 8.67,13.89 10.07,96.31 12.94,124.53 1.53,15.13 -0.39,29.97 12.3,34.83 14.13,5.42 25.66,-3.3 26.17,-17.72 1.33,-37.24 -2.75,-112.41 0.53,-138.29l48.34 -0.27c-0.57,-10.88 -24.78,-97.76 -29.44,-115.3 -3.29,-12.41 -8.14,-28.27 -9.8,-40.14 15.45,9.1 43.15,56.68 52.54,77.18 48.95,2.95 23.59,-37.05 11.47,-58.53 -24.1,-42.73 -57.29,-86.35 -92.88,-115.74 -10.39,-8.58 -24.94,-12.51 -40.34,-10.23 -33.46,4.94 -50.75,46.39 -76.25,80.9 -15.14,20.48 -31.17,37.37 -47.86,56.59 -8.62,9.96 -13.23,20.11 -16.19,34.69 -0.9,4.48 -0.97,7.21 -2.09,10.9 -4.47,14.73 -4.01,16.73 -14.23,26.15 -11.57,10.68 -14.32,16.18 -36.75,17.15 -8.67,0.39 -17.66,0.4 -23.74,-2.84 -53.13,-28.36 -24.93,-66.87 -41.26,-90.34 -4.15,-5.96 -7.6,-8.49 -12.11,-13.72 -38.9,-45.12 -42.08,-49.63 -75.8,-107.24 -6.3,-10.75 -14.41,-18.44 -29.75,-21.3 -15.93,-2.98 -30.67,-0.09 -42.79,7.59 -40.33,25.52 -94.68,149 -92.85,166.43 1.47,14.11 23.43,20.79 32.73,9.36 5.39,-6.64 23.72,-63.22 37,-69.26z"/>
    <path class="fil0" d="M1457.95 709c-15.64,5 -22.43,10.14 -29.64,22.54 -7.13,12.27 -9.31,27.73 -5.29,42.68 17.23,63.86 118.46,38.55 100.26,-30.16 -6.32,-23.79 -35.05,-44.73 -65.33,-35.06z"/>
    <path class="fil0" d="M1811.16 713.68c-14.97,6.38 -21.38,8.94 -29.47,22.2 -23.54,38.54 10.49,93.54 60.2,77.51 29.26,-9.45 43.85,-41.37 34.48,-65.31 -10.42,-26.61 -42.69,-44.03 -65.21,-34.4z"/>
    <path class="fil0" d="M1624.49 973.14c-16.31,6.78 -29.98,25.65 -21.25,48.41 5.23,13.63 27.19,29.68 47.21,20.4 2.56,-1.19 8.2,-5.18 10.32,-6.76 32.77,-24.33 1.71,-77.81 -36.28,-62.05z"/>
   </g>
   <g id="_2182529289504">
    <path class="fil0" d="M313.97 1516.68c8.14,-16.32 15.54,-28.48 26.85,-40.21 59.48,-61.71 85.68,-33.49 155.32,-36.44 -4.45,12.57 -18.54,33.05 -25.64,42.64 -32.66,44.15 -96.08,53.93 -145.12,39.12 12.37,-13.62 58.93,-37.92 68.33,-46.35 -24.32,6.73 -60.05,30.19 -79.74,41.24zm-69.54 18.43c-12.24,-6.75 -27.01,-27.19 -34.84,-42.43 -18.97,-36.84 -14.09,-96.06 -5.06,-135.78 2.99,-13.16 13.19,-49.5 18.76,-58.58l14.87 27.35c17.12,28.7 34.15,41.68 42.84,78.94 10.65,45.59 -6.24,94.1 -25.54,127.34 -2.28,-13.38 -2.14,-28.9 -3.89,-42.78 -5.44,-43.1 -13.66,-71.74 -15.81,-121.02 -10.99,15.44 13.29,116.24 8.67,166.96zm179.96 -279.62c0,-45.95 13.92,-86.6 53.91,-108.64 9.11,41.23 51.45,70.08 26.65,120.08 -16.8,33.84 -59.82,62.75 -92.02,66.79 4.26,-7.67 14.74,-14.44 21.36,-22.32 17.81,-21.19 39.04,-54.2 42.94,-83.36l-11.91 24.33c-8.84,17.05 -31.25,51.5 -44.29,58.38l3.36 -55.26zm-97.41 92.2c-17.27,-9.44 -39.62,-31.73 -52.03,-45.42 -30.11,-33.2 -53.93,-96.84 -33.06,-141.57 8,-17.18 29.92,-40.33 52.26,-44.19 -10.22,61.58 -8.12,51.75 19.96,108.22 18.02,36.22 26.16,67.73 19.18,114.34 -3.87,-4.94 -5.44,-14.03 -7.97,-20.5 -14.27,-36.73 -30.15,-45.97 -42.97,-93.79 -3.02,-11.26 -4.19,-41.77 -7.54,-48.02 -12.93,69.27 46.33,122.03 52.17,170.93zm118.85 -253.09c-0.42,-13.51 29.7,-52.73 36.76,-60.18 63.82,-67.2 67.55,-44.35 116.16,-77.32 24.93,-16.91 51.16,-45.23 51.71,-45.56 5.26,30.04 15.95,52.42 2.39,84.68 -29.18,69.47 -126.64,84.92 -192.53,97.09 31.42,-27.66 142.55,-67.12 156.24,-102.67 -7.8,3.76 -12.84,9.6 -19.62,14.72 -52.93,40.05 -105.49,49.05 -151.11,89.24zm-34.32 -132.2c6.99,-32.21 37.36,-64.02 57.51,-78.35 18.95,-13.49 75.42,-37.11 94.88,-39.22 0.38,44.56 -25.13,78.87 -49.81,94.35 -22.35,14.01 -73.95,33.77 -102.98,41.32 5.88,-20.02 37.52,-42.49 54.45,-54.83l46.73 -33.37c6.14,-4.77 11.12,-6.62 12.8,-13.52 -8.37,2.79 -22.36,13.31 -31.05,18.64 -22.8,14 -54.08,32.67 -70.98,52.48l-11.55 12.5zm-130.05 81.45c-24.55,-15.85 -44.79,-32.84 -59.94,-58.48 -31.46,-53.29 -18.01,-132.24 7.56,-187.78l2.55 -4.31c14.28,25.56 -2.68,18.67 44.23,74.41l28.5 31.53c49.92,56.15 82.03,128.49 79.25,216.66l-6.8 -8.92c-57.04,-90.47 -141.22,-151.94 -140.43,-275.42 -9.58,15.26 2.55,65.33 8.37,82.32 7.47,21.76 20.27,45.83 31.25,63.78 20.76,33.97 71.52,94.92 80.64,110.7l-75.18 -44.49zm55.34 -328.91c-3.15,-6.52 -13.34,-23.28 -14.41,-27.28l21.04 57.39c11.84,36.76 40.64,161.3 42.2,196.85 -4.77,-3.73 -15.18,-24.19 -29.61,-39.3 -61.82,-64.76 -96.48,-136.36 -107.99,-229.05l-15.54 -121.25c7.61,2.39 19.77,10.46 27.31,14.55 64.09,34.81 134.43,50.07 163.16,115.32 24.87,56.46 4.04,143.29 -10.14,204.13 -4.79,20.55 -8.37,45.52 -11.66,67.17 -4.04,-10.37 -8.58,-58.3 -11.69,-74.39 -11.49,-59.34 -26.7,-110.43 -52.67,-164.14zm59.75 370.41l-2.01 52.64c-13.51,-9.17 -2.55,-63.51 -14.76,-114.17 -13.38,-55.5 -37.27,-87.12 -69.27,-127.42 -9.69,-12.21 -22.07,-22.75 -31.86,-34.85 -4.75,-5.88 -9.79,-11.36 -14.49,-17.25 -5.39,-6.77 -8.9,-11.66 -13.63,-19.69 -10.27,-17.45 -12.25,-28.87 -17.49,-49.63 -6.05,7.52 -26.38,66.05 -29.54,78.66 -15.18,60.24 -6.75,126.73 37.84,168.63 33.29,31.3 70.97,42.67 100.72,64.41 12.94,9.47 18.5,15.42 27.92,27.11 21.93,27.18 23.16,44.1 15.87,85.59 -4.58,26.02 -37.03,163.98 -49.15,171.16 -2.79,-8.41 6.46,-54.38 5.97,-71.68 -2.44,-86.15 -60.93,-100.28 -44.51,-170.41 1.29,-5.46 2.93,-10.46 1.48,-15.78 -4.02,-14.73 -84.65,25.88 -72.86,96.1 7.45,44.45 24.85,89.21 60.86,117.44 49.19,38.55 52.95,46.07 23.13,115.16 -9.03,20.93 -18.27,40.57 -27.42,61 -4.54,10.14 -9.64,19.99 -14.56,30.45 -4.5,9.55 -8.5,23.34 -16.42,30.54 0.71,-21.36 19.15,-47.86 27.16,-69.87 19.65,-54.06 13.54,-100.33 -19.81,-146.03 -10.44,-14.31 -20.36,-27.66 -27.8,-43.85 -2.71,-5.87 -4.08,-13.34 -8.63,-16.63 -6.11,3.66 -10.29,23.08 -12.75,30.79 -11.75,36.81 -22.3,68.95 -22.33,109.51 -0.01,22.71 1.66,47.86 10.36,66.38 4.31,9.15 8.9,17.03 14.87,23.55 29.57,32.24 35.5,19.43 21.87,78.79 -18.7,81.35 -0.27,97.44 -49.91,105.48 -21.78,3.53 -45.8,7.5 -67.63,10.19l-100.28 14.95c-8.38,1.28 -18.43,1.16 -26.46,3.92 -6.13,2.1 -4.05,-2.03 -4.02,4.59l728.31 0c-0.3,-5.84 1.27,-3.58 -7.32,-5.16 -29.54,-5.43 -59.83,-7.86 -89.46,-12.51 -140.75,-22.05 -142.83,-1.88 -149.47,-81.84 -3,-36.14 -6.16,-71.99 -9,-108.28 -7.18,2.82 -13.99,8.11 -21.78,11.54 -32.7,14.43 -57.39,10.64 -90.48,4.61 -0.06,27.45 2.43,110.98 -0.47,131.69 -2.23,15.85 -18.07,30.18 -37.32,27.82 -18.66,-2.26 -29.76,-17.07 -29.76,-37.21l0 -96.73c0,-8.47 13.75,-22.34 18.28,-26.49 10.91,-10.05 12.83,-12.9 33.2,-10.71 32.2,3.43 47.56,9.89 80.68,-0.49 35.71,-11.2 59.25,-33.81 74.13,-64.31 2.72,-5.59 4.86,-10.12 7.94,-15.41 1.3,-2.26 3.11,-4.83 4.53,-7.39 0.26,-0.49 1.46,-3.09 1.46,-3.12l-0.12 -2.96c-0.53,-4.58 -30.2,-2.83 -35.84,-3.37 -41.28,-4 -57.44,-15.64 -98.86,9.71 -23.67,14.51 -42.8,38.94 -54.1,64.36 -5.18,11.67 -6,20.13 -17.11,24.47l49.3 -115.72c10.77,-28.14 10.55,-34.79 29.49,-52.24 23.54,-21.72 17.28,-18.31 54.37,-29.03 61.31,-17.73 119.28,-75.56 80.23,-141.94 -5.29,-9.02 -11.65,-16.75 -16.48,-25.21 -7.15,-12.54 -5.74,-22.9 -9.78,-31.52l-22.35 18.46c-68.74,61.9 -23.06,147.77 -67.51,182.68 -3.88,3.06 -7.96,5.53 -12.67,9.02 -3.97,2.95 -7.77,7.08 -12.08,9.16l21.24 -73.3c10.09,-38.47 17.73,-79.9 21.53,-120.3 2.15,-22.8 1.42,-21.15 12.94,-35.45 17.92,-22.27 27.64,-25.79 65.01,-31.76 69.57,-11.1 160.5,-37.4 175.98,-109.19 4.23,-19.6 -0.24,-69.55 -11.72,-81.88 -5.8,2.66 -29.89,32.26 -63.49,51.7 -14.13,8.18 -24.76,11.65 -40.18,18.17 -16.4,6.92 -23.92,12.55 -36.67,21.72 -39.09,28.12 -53.23,58.35 -73.2,100.23 -3.06,6.42 -21.47,29.96 -25.93,31.61l-1.96 -78.18c-0.9,-15.81 -4.98,-36.36 -4.94,-50.47 0.05,-14.24 20.51,-17.62 31.37,-21.09 36.91,-11.82 84.37,-28.46 106.31,-57.18 10.43,-13.65 35.28,-69.06 22.99,-80.83 -3.29,-2.79 -5.7,-1.09 -11.12,0.77 -29.17,9.95 -61.78,18.19 -86.95,35 -15.91,10.62 -24.74,19.41 -36.27,33.8 -5.42,6.77 -9.38,13.27 -13.75,21.27 -2.71,4.95 -8.22,19.16 -11.09,22.91 -5.95,-56.31 70.7,-201.05 14.43,-290.93 -22.6,-36.11 -52.97,-54.28 -98.78,-74.68 -89.8,-39.99 -104.85,-68.37 -98.45,-24.84 16.39,111.28 12.45,192.84 68.41,278.38 29.61,45.26 57.07,66.86 77.11,96.36 27.77,40.92 26.52,89.81 26.76,146.5z"/>
    <path class="fil0" d="M-13.44 341.46c14.38,6.03 205.05,26.24 221.04,32.35 18.3,7.01 19.83,18.54 23.03,40.24 6.2,42.08 6.05,80.52 10.83,115.91 1.75,13.05 27.2,24.43 38.78,26.91 0.11,-38.99 0.02,-78.01 0.02,-117.01 0,-17.08 -2.89,-39.63 4.84,-53.25 6.02,-10.63 22.03,-21.34 40.8,-14.36 30.69,11.41 21.9,57.14 21.9,94.3 0,39.48 -0.03,78.96 0,118.42 0.66,2.22 32.07,19.18 45.67,29.96 15.01,11.92 37.43,39.07 47.98,55.44 3.47,5.42 6.28,11.8 9.83,16.34 3.84,-47.81 4.12,-97.06 7.35,-145.09 2.94,-43.67 5.79,-96.97 12.39,-139.55 3.73,-24.05 18.23,-28.32 42.73,-32.06 21.81,-3.34 45.64,-6.77 67.08,-9.23 19.36,-2.23 123.9,-14.84 134.3,-19.33l0.68 -8.87 -729.63 -0.01 0.38 8.89z"/>
    <path class="fil0" d="M385.63 941.9c-1.56,-35.55 -30.36,-160.09 -42.2,-196.85l-21.04 -57.39c1.07,4 11.26,20.76 14.41,27.28 25.97,53.71 41.18,104.8 52.67,164.14 3.11,16.09 7.65,64.02 11.69,74.39 3.29,-21.65 6.87,-46.62 11.66,-67.17 14.18,-60.84 35.01,-147.67 10.14,-204.13 -28.73,-65.25 -99.07,-80.51 -163.16,-115.32 -7.54,-4.09 -19.7,-12.16 -27.31,-14.55l15.54 121.25c11.51,92.69 46.17,164.29 107.99,229.05 14.43,15.11 24.84,35.57 29.61,39.3z"/>
    <path class="fil0" d="M356.64 1088.34c-9.12,-15.78 -59.88,-76.73 -80.64,-110.7 -10.98,-17.95 -23.78,-42.02 -31.25,-63.78 -5.82,-16.99 -17.95,-67.06 -8.37,-82.32 -0.79,123.48 83.39,184.95 140.43,275.42l6.8 8.92c2.78,-88.17 -29.33,-160.51 -79.25,-216.66l-28.5 -31.53c-46.91,-55.74 -29.95,-48.85 -44.23,-74.41l-2.55 4.31c-25.57,55.54 -39.02,134.49 -7.56,187.78 15.15,25.64 35.39,42.63 59.94,58.48l75.18 44.49z"/>
    <path class="fil0" d="M445.83 1094.6c45.62,-40.19 98.18,-49.19 151.11,-89.24 6.78,-5.12 11.82,-10.96 19.62,-14.72 -13.69,35.55 -124.82,75.01 -156.24,102.67 65.89,-12.17 163.35,-27.62 192.53,-97.09 13.56,-32.26 2.87,-54.64 -2.39,-84.68 -0.55,0.33 -26.78,28.65 -51.71,45.56 -48.61,32.97 -52.34,10.12 -116.16,77.32 -7.06,7.45 -37.18,46.67 -36.76,60.18z"/>
    <path class="fil0" d="M244.43 1535.11c4.62,-50.72 -19.66,-151.52 -8.67,-166.96 2.15,49.28 10.37,77.92 15.81,121.02 1.75,13.88 1.61,29.4 3.89,42.78 19.3,-33.24 36.19,-81.75 25.54,-127.34 -8.69,-37.26 -25.72,-50.24 -42.84,-78.94l-14.87 -27.35c-5.57,9.08 -15.77,45.42 -18.76,58.58 -9.03,39.72 -13.91,98.94 5.06,135.78 7.83,15.24 22.6,35.68 34.84,42.43z"/>
    <path class="fil0" d="M326.98 1347.69c-5.84,-48.9 -65.1,-101.66 -52.17,-170.93 3.35,6.25 4.52,36.76 7.54,48.02 12.82,47.82 28.7,57.06 42.97,93.79 2.53,6.47 4.1,15.56 7.97,20.5 6.98,-46.61 -1.16,-78.12 -19.18,-114.34 -28.08,-56.47 -30.18,-46.64 -19.96,-108.22 -22.34,3.86 -44.26,27.01 -52.26,44.19 -20.87,44.73 2.95,108.37 33.06,141.57 12.41,13.69 34.76,35.98 52.03,45.42z"/>
    <path class="fil0" d="M424.39 1255.49l-3.36 55.26c13.04,-6.88 35.45,-41.33 44.29,-58.38l11.91 -24.33c-3.9,29.16 -25.13,62.17 -42.94,83.36 -6.62,7.88 -17.1,14.65 -21.36,22.32 32.2,-4.04 75.22,-32.95 92.02,-66.79 24.8,-50 -17.54,-78.85 -26.65,-120.08 -39.99,22.04 -53.91,62.69 -53.91,108.64z"/>
    <path class="fil0" d="M313.97 1516.68c19.69,-11.05 55.42,-34.51 79.74,-41.24 -9.4,8.43 -55.96,32.73 -68.33,46.35 49.04,14.81 112.46,5.03 145.12,-39.12 7.1,-9.59 21.19,-30.07 25.64,-42.64 -69.64,2.95 -95.84,-25.27 -155.32,36.44 -11.31,11.73 -18.71,23.89 -26.85,40.21z"/>
    <path class="fil0" d="M411.51 962.4l11.55 -12.5c16.9,-19.81 48.18,-38.48 70.98,-52.48 8.69,-5.33 22.68,-15.85 31.05,-18.64 -1.68,6.9 -6.66,8.75 -12.8,13.52l-46.73 33.37c-16.93,12.34 -48.57,34.81 -54.45,54.83 29.03,-7.55 80.63,-27.31 102.98,-41.32 24.68,-15.48 50.19,-49.79 49.81,-94.35 -19.46,2.11 -75.93,25.73 -94.88,39.22 -20.15,14.33 -50.52,46.14 -57.51,78.35z"/>
    <path class="fil0" d="M348.56 1442.67c22.23,-10.97 37.34,-26.17 74.82,-27.07 12.16,-0.29 20.67,2.29 30.91,2.55l-2.54 -77.49c-10.8,4.28 -21.51,10.88 -33.85,16.06 -13.32,5.59 -25.42,7.63 -35.34,16.33 -13.81,12.12 -34.2,44.34 -34,69.62z"/>
    <path class="fil0" d="M254.67 1118.88c5.02,-2.44 7.27,-4.84 12.4,-8.11 4.27,-2.72 8.38,-4.16 12.99,-7.07l0.39 -40.09 -25.67 -12.47 -0.11 67.74z"/>
   </g>
   <g id="_2182529287680">
    <path class="fil0" d="M2881.94 1517.07c-7.95,-16.33 -15.19,-28.48 -26.26,-40.23 -58.17,-61.7 -83.8,-33.48 -151.92,-36.45 4.35,12.57 18.13,33.05 25.09,42.67 31.92,44.13 93.98,53.91 141.94,39.1 -12.1,-13.63 -57.64,-37.92 -66.84,-46.35 23.78,6.75 58.73,30.19 77.99,41.26zm68.02 18.42c11.97,-6.76 26.41,-27.2 34.08,-42.43 18.55,-36.84 13.77,-96.07 4.94,-135.8 -2.91,-13.15 -12.89,-49.49 -18.34,-58.55l-14.54 27.34c-16.75,28.7 -33.41,41.68 -41.92,78.92 -10.41,45.61 6.12,94.11 24.99,127.35 2.23,-13.37 2.09,-28.89 3.81,-42.79 5.31,-43.08 13.37,-71.73 15.46,-121 10.74,15.42 -12.99,116.23 -8.48,166.96zm-176.02 -279.63c0,-45.96 -13.62,-86.6 -52.72,-108.64 -8.92,41.22 -50.34,70.09 -26.07,120.09 16.42,33.83 58.5,62.74 90,66.78 -4.15,-7.65 -14.41,-14.43 -20.89,-22.31 -17.41,-21.21 -38.18,-54.2 -42,-83.37l11.64 24.33c8.66,17.07 30.57,51.51 43.32,58.39l-3.28 -55.27zm95.27 92.21c16.9,-9.46 38.77,-31.75 50.91,-45.42 29.45,-33.19 52.74,-96.84 32.34,-141.57 -7.83,-17.18 -29.29,-40.34 -51.13,-44.2 9.99,61.6 7.93,51.76 -19.52,108.21 -17.63,36.24 -25.6,67.76 -18.75,114.36 3.76,-4.93 5.31,-14.05 7.78,-20.51 13.96,-36.72 29.48,-45.97 42.04,-93.79 2.94,-11.25 4.08,-41.76 7.37,-48.03 12.66,69.27 -45.31,122.05 -51.04,170.95zm-116.23 -253.11c0.41,-13.51 -29.05,-52.72 -35.96,-60.18 -62.44,-67.2 -66.08,-44.34 -113.62,-77.3 -24.4,-16.92 -50.05,-45.22 -50.58,-45.56 -5.14,30.03 -15.59,52.41 -2.34,84.67 28.54,69.48 123.87,84.91 188.33,97.11 -30.74,-27.68 -139.44,-67.14 -152.84,-102.68 7.65,3.76 12.57,9.59 19.19,14.72 51.76,40.04 103.19,49.04 147.82,89.22zm33.56 -132.18c-6.84,-32.21 -36.54,-64.02 -56.25,-78.34 -18.54,-13.5 -73.77,-37.13 -92.82,-39.23 -0.35,44.57 24.59,78.87 48.74,94.34 21.85,14.01 72.33,33.79 100.72,41.32 -5.74,-20 -36.72,-42.48 -53.24,-54.83l-45.73 -33.35c-6.01,-4.79 -10.87,-6.65 -12.52,-13.53 8.2,2.79 21.86,13.29 30.37,18.64 22.31,13.99 52.9,32.67 69.42,52.47l11.31 12.51zm127.19 81.44c24.03,-15.83 43.82,-32.82 58.64,-58.47 30.77,-53.29 17.63,-132.25 -7.39,-187.8l-2.5 -4.3c-13.98,25.57 2.61,18.66 -43.27,74.43l-27.86 31.52c-48.82,56.16 -80.24,128.49 -77.53,216.65l6.66 -8.91c55.79,-90.47 138.12,-151.95 137.36,-275.42 9.36,15.27 -2.49,65.31 -8.2,82.33 -7.29,21.75 -19.81,45.82 -30.54,63.77 -20.33,33.97 -69.98,94.91 -78.9,110.69l73.53 -44.49zm-54.13 -328.9c3.08,-6.52 13.06,-23.28 14.11,-27.3l-20.59 57.39c-11.58,36.78 -39.75,161.32 -41.26,196.87 4.66,-3.73 14.85,-24.18 28.94,-39.29 60.48,-64.77 94.38,-136.36 105.64,-229.06l15.2 -121.27c-7.43,2.41 -19.33,10.46 -26.71,14.56 -62.69,34.8 -131.49,50.06 -159.61,115.34 -24.31,56.45 -3.93,143.26 9.93,204.1 4.68,20.57 8.19,45.54 11.42,67.2 3.94,-10.39 8.38,-58.32 11.42,-74.39 11.24,-59.35 26.12,-110.44 51.51,-164.15zm-58.43 370.41l1.96 52.64c13.21,-9.17 2.5,-63.51 14.44,-114.16 13.09,-55.51 36.45,-87.14 67.76,-127.45 9.47,-12.2 21.57,-22.73 31.16,-34.85 4.66,-5.87 9.57,-11.35 14.16,-17.24 5.27,-6.77 8.72,-11.67 13.34,-19.69 10.06,-17.46 11.97,-28.88 17.11,-49.62 5.92,7.52 25.79,66.05 28.9,78.67 14.83,60.22 6.59,126.71 -37.03,168.62 -32.55,31.28 -69.41,42.68 -98.5,64.41 -12.67,9.46 -18.1,15.42 -27.31,27.1 -21.44,27.2 -22.65,44.12 -15.53,85.6 4.47,26.02 36.22,163.98 48.07,171.15 2.73,-8.41 -6.31,-54.38 -5.83,-71.69 2.38,-86.13 59.6,-100.26 43.54,-170.41 -1.26,-5.45 -2.87,-10.44 -1.44,-15.77 3.91,-14.74 82.79,25.88 71.26,96.1 -7.31,44.46 -24.32,89.23 -59.53,117.45 -48.11,38.55 -51.8,46.07 -22.63,115.15 8.85,20.93 17.88,40.58 26.82,61.01 4.43,10.12 9.43,19.99 14.25,30.43 4.39,9.56 8.32,23.37 16.06,30.55 -0.7,-21.35 -18.74,-47.86 -26.56,-69.86 -19.22,-54.06 -13.27,-100.33 19.35,-146.03 10.22,-14.3 19.92,-27.67 27.21,-43.86 2.64,-5.85 3.98,-13.33 8.44,-16.63 5.97,3.67 10.07,23.09 12.46,30.78 11.5,36.82 21.83,68.98 21.84,109.53 0.02,22.7 -1.61,47.85 -10.13,66.37 -4.21,9.16 -8.69,17.04 -14.55,23.56 -28.92,32.24 -34.72,19.41 -21.37,78.78 18.27,81.37 0.26,97.44 48.82,105.48 21.3,3.53 44.79,7.51 66.13,10.19l98.08 14.97c8.2,1.26 18.04,1.15 25.89,3.9 6,2.09 3.96,-2.04 3.94,4.59l-712.38 0c0.31,-5.84 -1.23,-3.59 7.16,-5.16 28.91,-5.42 58.53,-7.85 87.5,-12.5 137.68,-22.05 139.7,-1.88 146.19,-81.86 2.96,-36.12 6.05,-71.99 8.84,-108.26 7.01,2.82 13.67,8.1 21.29,11.53 31.98,14.42 56.14,10.63 88.5,4.6 0.05,27.46 -2.38,111.01 0.45,131.71 2.19,15.85 17.67,30.17 36.51,27.83 18.25,-2.27 29.11,-17.09 29.11,-37.21l0 -96.76c0,-8.45 -13.46,-22.34 -17.88,-26.49 -10.68,-10.02 -12.57,-12.89 -32.48,-10.71 -31.48,3.44 -46.51,9.9 -78.92,-0.49 -34.93,-11.18 -57.97,-33.8 -72.5,-64.29 -2.67,-5.59 -4.76,-10.12 -7.76,-15.41 -1.29,-2.27 -3.05,-4.84 -4.44,-7.41 -0.26,-0.47 -1.42,-3.08 -1.42,-3.1l0.11 -2.97c0.52,-4.59 29.53,-2.81 35.06,-3.36 40.37,-4 56.18,-15.65 96.68,9.72 23.17,14.48 41.88,38.91 52.93,64.33 5.07,11.69 5.88,20.14 16.75,24.48l-48.23 -115.71c-10.54,-28.15 -10.33,-34.79 -28.84,-52.26 -23.03,-21.7 -16.91,-18.31 -53.19,-29.03 -59.98,-17.71 -116.67,-75.55 -78.47,-141.93 5.18,-9.01 11.39,-16.75 16.11,-25.2 7.01,-12.55 5.62,-22.92 9.59,-31.54l21.85 18.48c67.22,61.88 22.55,147.75 66.03,182.69 3.79,3.04 7.78,5.52 12.39,9.02 3.87,2.94 7.6,7.06 11.82,9.14l-20.79 -73.3c-9.87,-38.45 -17.34,-79.89 -21.05,-120.3 -2.09,-22.81 -1.39,-21.16 -12.65,-35.46 -17.54,-22.25 -27.05,-25.78 -63.6,-31.75 -68.04,-11.09 -156.98,-37.4 -172.12,-109.19 -4.14,-19.6 0.23,-69.54 11.46,-81.89 5.68,2.68 29.23,32.28 62.11,51.71 13.81,8.17 24.21,11.67 39.3,18.18 16.04,6.91 23.38,12.54 35.85,21.71 38.24,28.11 52.09,58.36 71.6,100.25 2.99,6.4 21,29.96 25.37,31.58l1.91 -78.17c0.89,-15.81 4.88,-36.36 4.83,-50.47 -0.02,-14.22 -20.05,-17.6 -30.67,-21.09 -36.1,-11.83 -82.53,-28.46 -104,-57.19 -10.18,-13.63 -34.5,-69.04 -22.48,-80.82 3.22,-2.79 5.58,-1.09 10.88,0.76 28.54,9.97 60.42,18.22 85.04,35.02 15.56,10.62 24.2,19.42 35.48,33.81 5.31,6.75 9.18,13.26 13.45,21.24 2.67,4.96 8.04,19.17 10.86,22.93 5.81,-56.31 -69.16,-201.05 -14.13,-290.93 22.11,-36.12 51.82,-54.28 96.63,-74.68 87.82,-39.99 102.55,-68.39 96.28,-24.84 -16.01,111.27 -12.17,192.82 -66.9,278.37 -28.97,45.27 -55.83,66.87 -75.43,96.37 -27.17,40.9 -25.94,89.81 -26.17,146.5z"/>
    <path class="fil0" d="M3202.2 341.85c-14.09,6.03 -200.57,26.22 -216.22,32.34 -17.9,6.99 -19.39,18.52 -22.52,40.24 -6.07,42.08 -5.92,80.51 -10.59,115.91 -1.71,13.04 -26.61,24.43 -37.95,26.9 -0.09,-38.99 0,-78 0,-116.99 0,-17.08 2.82,-39.64 -4.74,-53.28 -5.91,-10.61 -21.54,-21.34 -39.91,-14.35 -30.02,11.42 -21.41,57.14 -21.41,94.31 0.01,39.46 0.01,78.94 0,118.42 -0.65,2.21 -31.37,19.18 -44.67,29.96 -14.69,11.91 -36.61,39.05 -46.93,55.45 -3.41,5.39 -6.15,11.8 -9.61,16.32 -3.77,-47.8 -4.04,-97.05 -7.19,-145.1 -2.88,-43.65 -5.68,-96.95 -12.12,-139.52 -3.66,-24.07 -17.84,-28.33 -41.81,-32.09 -21.33,-3.32 -44.63,-6.75 -65.61,-9.22 -18.92,-2.21 -121.18,-14.83 -131.35,-19.31l-0.67 -8.89 713.65 0 -0.35 8.9z"/>
    <path class="fil0" d="M2811.86 942.28c1.51,-35.55 29.68,-160.09 41.26,-196.87l20.59 -57.39c-1.05,4.02 -11.03,20.78 -14.11,27.3 -25.39,53.71 -40.27,104.8 -51.51,164.15 -3.04,16.07 -7.48,64 -11.42,74.39 -3.23,-21.66 -6.74,-46.63 -11.42,-67.2 -13.86,-60.84 -34.24,-147.65 -9.93,-204.1 28.12,-65.28 96.92,-80.54 159.61,-115.34 7.38,-4.1 19.28,-12.15 26.71,-14.56l-15.2 121.27c-11.26,92.7 -45.16,164.29 -105.64,229.06 -14.09,15.11 -24.28,35.56 -28.94,39.29z"/>
    <path class="fil0" d="M2840.2 1088.71c8.92,-15.78 58.57,-76.72 78.9,-110.69 10.73,-17.95 23.25,-42.02 30.54,-63.77 5.71,-17.02 17.56,-67.06 8.2,-82.33 0.76,123.47 -81.57,184.95 -137.36,275.42l-6.66 8.91c-2.71,-88.16 28.71,-160.49 77.53,-216.65l27.86 -31.52c45.88,-55.77 29.29,-48.86 43.27,-74.43l2.5 4.3c25.02,55.55 38.16,134.51 7.39,187.8 -14.82,25.65 -34.61,42.64 -58.64,58.47l-73.53 44.49z"/>
    <path class="fil0" d="M2752.98 1094.96c-44.63,-40.18 -96.06,-49.18 -147.82,-89.22 -6.62,-5.13 -11.54,-10.96 -19.19,-14.72 13.4,35.54 122.1,75 152.84,102.68 -64.46,-12.2 -159.79,-27.63 -188.33,-97.11 -13.25,-32.26 -2.8,-54.64 2.34,-84.67 0.53,0.34 26.18,28.64 50.58,45.56 47.54,32.96 51.18,10.1 113.62,77.3 6.91,7.46 36.37,46.67 35.96,60.18z"/>
    <path class="fil0" d="M2949.96 1535.49c-4.51,-50.73 19.22,-151.54 8.48,-166.96 -2.09,49.27 -10.15,77.92 -15.46,121 -1.72,13.9 -1.58,29.42 -3.81,42.79 -18.87,-33.24 -35.4,-81.74 -24.99,-127.35 8.51,-37.24 25.17,-50.22 41.92,-78.92l14.54 -27.34c5.45,9.06 15.43,45.4 18.34,58.55 8.83,39.73 13.61,98.96 -4.94,135.8 -7.67,15.23 -22.11,35.67 -34.08,42.43z"/>
    <path class="fil0" d="M2869.21 1348.07c5.73,-48.9 63.7,-101.68 51.04,-170.95 -3.29,6.27 -4.43,36.78 -7.37,48.03 -12.56,47.82 -28.08,57.07 -42.04,93.79 -2.47,6.46 -4.02,15.58 -7.78,20.51 -6.85,-46.6 1.12,-78.12 18.75,-114.36 27.45,-56.45 29.51,-46.61 19.52,-108.21 21.84,3.86 43.3,27.02 51.13,44.2 20.4,44.73 -2.89,108.38 -32.34,141.57 -12.14,13.67 -34.01,35.96 -50.91,45.42z"/>
    <path class="fil0" d="M2773.94 1255.86l3.28 55.27c-12.75,-6.88 -34.66,-41.32 -43.32,-58.39l-11.64 -24.33c3.82,29.17 24.59,62.16 42,83.37 6.48,7.88 16.74,14.66 20.89,22.31 -31.5,-4.04 -73.58,-32.95 -90,-66.78 -24.27,-50 17.15,-78.87 26.07,-120.09 39.1,22.04 52.72,62.68 52.72,108.64z"/>
    <path class="fil0" d="M2881.94 1517.07c-19.26,-11.07 -54.21,-34.51 -77.99,-41.26 9.2,8.43 54.74,32.72 66.84,46.35 -47.96,14.81 -110.02,5.03 -141.94,-39.1 -6.96,-9.62 -20.74,-30.1 -25.09,-42.67 68.12,2.97 93.75,-25.25 151.92,36.45 11.07,11.75 18.31,23.9 26.26,40.23z"/>
    <path class="fil0" d="M2786.54 962.78l-11.31 -12.51c-16.52,-19.8 -47.11,-38.48 -69.42,-52.47 -8.51,-5.35 -22.17,-15.85 -30.37,-18.64 1.65,6.88 6.51,8.74 12.52,13.53l45.73 33.35c16.52,12.35 47.5,34.83 53.24,54.83 -28.39,-7.53 -78.87,-27.31 -100.72,-41.32 -24.15,-15.47 -49.09,-49.77 -48.74,-94.34 19.05,2.1 74.28,25.73 92.82,39.23 19.71,14.32 49.41,46.13 56.25,78.34z"/>
    <path class="fil0" d="M2848.11 1443.03c-21.75,-10.97 -36.53,-26.17 -73.19,-27.05 -11.88,-0.29 -20.22,2.29 -30.24,2.54l2.51 -77.5c10.55,4.29 21.01,10.89 33.11,16.08 13.02,5.6 24.85,7.63 34.55,16.33 13.51,12.11 33.45,44.33 33.26,69.6z"/>
    <path class="fil0" d="M2939.95 1119.24c-4.92,-2.41 -7.12,-4.83 -12.14,-8.09 -4.17,-2.73 -8.19,-4.17 -12.7,-7.07l-0.38 -40.08 25.11 -12.47 0.11 67.71z"/>
   </g>
   <path class="fil0" d="M1777.2 1513.38l-179.98 0c13.69,2.7 27.52,5.97 41.36,9.86 23.96,6.52 52.63,15.69 86.03,27.02 33.4,11.33 71.5,25.57 113.98,42.93 42.47,17.14 92.19,38.35 148.82,63.44 31.95,14.23 61.01,26.29 87.85,36.18 26.51,10.13 51.56,18.1 74.78,24.6 23.62,6.28 46.09,11.1 68.25,13.75 21.79,2.9 46.45,4.34 73.32,4.34 44.66,0 91.48,-6.75 140.85,-20.26 49.35,-13.49 112.71,-55.17 140.34,-67.57 0.83,-0.62 15.44,-8.47 13.21,-22.16 -35.93,9.41 -69.34,16.89 -99.82,22.19 -30.5,5.56 -61.72,8.21 -93.67,8.21 -25.75,0 -51.88,-1.45 -78.75,-4.58 -26.87,-3.14 -55.19,-7.48 -84.23,-12.8 -29.04,-5.54 -61.35,-12.78 -96.93,-21.7 -35.2,-8.93 -74.77,-20.25 -117.96,-34.01 -38.11,-11.81 -77.31,-23.64 -116.89,-35.45 -39.6,-11.96 -79.54,-23.22 -120.56,-33.99z"/>
  </g>
 </g>
</svg>
