<svg width="45" height="40" viewBox="0 0 45 40" fill="none" xmlns="http://www.w3.org/2000/svg">
<path d="M34.2073 33.9289C33.7837 28.6508 27.2068 31.0655 27.8938 35.4845C28.7112 40.1128 34.4409 37.8909 34.2073 33.9289ZM32.7084 34.24C32.6432 36.6629 29.0615 37.6431 28.7764 34.8155C28.4668 31.9327 32.836 30.859 32.7084 34.24Z" fill="black"/>
<path d="M37.6585 4.17125C37.6775 4.09691 37.6884 4.01982 37.6993 3.94548C37.702 3.91519 37.7101 3.88491 37.7129 3.85462C37.7183 3.80506 37.7183 3.7555 37.721 3.70594C37.721 3.65638 37.721 3.60682 37.7156 3.55726C37.7156 3.54625 37.7156 3.53524 37.7129 3.52422C37.7101 3.51597 37.7101 3.50771 37.7101 3.49945C37.702 3.41134 37.6884 3.32599 37.6667 3.24063C37.6585 3.20759 37.6477 3.17731 37.6395 3.14702C37.6205 3.08094 37.5961 3.01762 37.5716 2.95704C37.5581 2.924 37.5418 2.89372 37.5282 2.86343C37.4956 2.80286 37.4603 2.74779 37.4223 2.69273C37.406 2.66795 37.3897 2.64592 37.3734 2.62114C37.3435 2.5881 37.311 2.55782 37.2811 2.52478C37.2431 2.48623 37.2105 2.44218 37.167 2.40638C37.0992 2.35132 37.0258 2.30726 36.9525 2.26596C36.9281 2.25495 36.9036 2.24394 36.8792 2.23292C36.8303 2.2109 36.7814 2.19438 36.7326 2.17786C36.6674 2.15859 36.6022 2.14482 36.5343 2.13656C36.5045 2.13105 36.4719 2.12555 36.442 2.12279C36.3795 2.11729 36.3144 2.12004 36.2519 2.12279C36.2546 2.1283 36.2601 2.13381 36.2628 2.14207C36.2791 2.17235 36.2927 2.20264 36.3062 2.23568C36.3334 2.29625 36.3551 2.35958 36.3768 2.42566C36.385 2.45594 36.3958 2.48623 36.404 2.51927C36.423 2.60187 36.4393 2.68997 36.4474 2.77808C36.4474 2.79185 36.4529 2.80561 36.4529 2.81938C36.461 2.92125 36.4583 3.02588 36.4501 3.1305C36.4474 3.16079 36.442 3.19107 36.4366 3.22136C36.4257 3.2957 36.4148 3.37279 36.3958 3.44713C36.3877 3.48293 36.3768 3.52147 36.366 3.55726C36.3442 3.6261 36.3198 3.69768 36.2926 3.76376C36.2791 3.79956 36.2628 3.83535 36.2465 3.87114C36.2003 3.96751 36.1487 4.06387 36.0863 4.15473C36.0157 4.25936 35.9369 4.35022 35.8527 4.43557C35.8392 4.44934 35.8283 4.4631 35.8147 4.47411C35.736 4.55121 35.6518 4.61729 35.5649 4.67786C35.535 4.69989 35.5024 4.71641 35.4726 4.73293C35.4047 4.77423 35.3341 4.81002 35.2635 4.8403C35.2363 4.85132 35.2119 4.86233 35.1847 4.87059C35.087 4.90638 34.9892 4.93392 34.8915 4.94768C34.8562 4.95319 34.8181 4.95594 34.7828 4.9587C34.8181 5.02478 34.8562 5.0881 34.9023 5.14592C34.9105 5.15693 34.9213 5.1707 34.9295 5.18171C34.9919 5.25881 35.0598 5.33039 35.1359 5.39372C35.2065 5.45154 35.2825 5.49834 35.3612 5.53964C35.3667 5.5424 35.3694 5.54515 35.3748 5.54515C35.3884 5.55066 35.4047 5.55616 35.4183 5.56167C35.4699 5.58645 35.5215 5.60572 35.5758 5.62224C35.5839 5.625 35.5921 5.62775 35.6002 5.6305C35.6056 5.63326 35.6138 5.63601 35.6192 5.63601C35.6328 5.63876 35.6464 5.63876 35.6572 5.64152C35.7143 5.65528 35.7713 5.66354 35.831 5.66905C35.8555 5.6718 35.8826 5.67456 35.9071 5.67731C35.9912 5.68006 36.0754 5.67731 36.1596 5.6663C36.2574 5.65253 36.3578 5.62224 36.4529 5.5892C36.48 5.58094 36.5045 5.56993 36.5316 5.55616C36.5425 5.55066 36.5533 5.5479 36.5669 5.5424C36.5914 5.53138 36.6158 5.52037 36.6402 5.50936C36.6755 5.49008 36.7081 5.46806 36.7407 5.44879C36.7733 5.42951 36.8032 5.41299 36.833 5.39372C36.8357 5.39097 36.8412 5.38821 36.8439 5.38821C36.8656 5.37169 36.8901 5.35517 36.9118 5.33865C36.9498 5.31112 36.9851 5.28083 37.0204 5.24779C37.0394 5.23127 37.0584 5.21475 37.0747 5.19823C37.0774 5.19548 37.0801 5.19273 37.0829 5.18997C37.0964 5.17896 37.1073 5.16519 37.1209 5.15143C37.1399 5.1294 37.1616 5.11013 37.1806 5.0881C37.1942 5.07158 37.2105 5.05782 37.2241 5.0413C37.2702 4.98623 37.3137 4.93116 37.3544 4.87059C37.3626 4.85958 37.3707 4.84581 37.3761 4.8348C37.4114 4.77973 37.444 4.72467 37.4739 4.6696C37.4848 4.65033 37.4929 4.63381 37.501 4.61453C37.5038 4.60627 37.5092 4.59801 37.5119 4.58975C37.5282 4.55396 37.5445 4.51817 37.5581 4.48238C37.5716 4.44934 37.5907 4.41354 37.6015 4.3805C37.6069 4.36674 37.6097 4.35022 37.6151 4.33645C37.6205 4.31718 37.626 4.29515 37.6314 4.27588C37.6395 4.24559 37.6477 4.2098 37.6585 4.17125Z" fill="black"/>
<path d="M26.3379 23.7638C25.8871 18.4141 19.2233 20.9802 20.0352 25.4406C20.9938 29.9505 26.5714 27.6459 26.3379 23.7638ZM24.839 24.0749C24.8335 26.3987 21.2925 27.467 20.9178 24.7825C20.4507 21.853 24.953 20.6057 24.839 24.0749Z" fill="black"/>
<path d="M41.6993 19.4686C41.7537 17.7478 41.0992 15.9719 39.7714 14.9091L26.5741 4.34745C26.5089 4.29514 26.4437 4.24558 26.3758 4.19602C25.5313 3.5958 24.5157 3.2599 23.492 3.30395C21.6074 3.37829 19.8777 4.55945 18.8186 6.14811L7.6145 22.7973C7.36467 23.1718 7.14472 23.5683 6.96278 23.9813C5.83857 26.4289 6.19973 29.7081 8.36398 31.4014L11.4786 33.8932C11.9104 34.2291 12.3938 34.4989 12.9097 34.6531C14.7698 35.2505 16.8064 34.4686 18.1588 33.0809C18.5281 32.734 20.2307 30.5038 20.5891 30.0633C20.7303 29.8926 20.9204 29.7632 21.1349 29.7329C23.0982 30.1156 25.0833 29.2841 26.3378 27.6569C28.3256 25.3111 28.5184 21.0628 25.8192 19.218C23.6793 17.7175 20.752 18.7885 19.2884 20.8095C18.156 22.288 17.6265 24.3006 18.023 26.1619C18.118 26.8777 18.7887 27.6101 18.2375 28.2792C18.1832 28.3342 16.3828 30.6635 16.3883 30.614C15.6415 31.4455 14.3163 31.7648 13.4148 31.0215L10.273 28.5077C9.67827 28.0341 9.32526 27.2632 9.34427 26.484C9.33884 25.826 9.55879 25.1789 9.91452 24.6393L21.1132 7.99282C21.7839 6.96034 23.1797 6.33258 24.2849 6.98236C24.3745 7.03467 24.4587 7.08974 24.5402 7.15582L37.8352 17.7891C37.8705 17.8194 37.9031 17.8497 37.9384 17.8827C38.9513 18.8133 38.8807 20.5231 38.1285 21.6079L33.4714 28.5297C33.4035 28.6316 33.3166 28.7169 33.2189 28.7803C32.9365 28.9868 32.6215 28.8601 32.3228 28.7803C32.005 28.7087 31.6819 28.6756 31.356 28.6784C29.2543 28.7032 27.3806 30.201 26.4573 32.1173C23.8043 37.6734 29.1891 42.767 33.8 38.3012C35.3288 36.7346 36.1082 34.3061 35.5352 32.1228C35.413 31.6822 35.174 31.2032 35.4917 30.7874L40.4285 23.4499C41.2051 22.2797 41.6695 20.8865 41.6993 19.4686ZM40.7897 19.777C40.7598 20.8728 40.4068 21.9631 39.7985 22.8689L34.8617 30.2065C34.1856 31.1096 34.449 32.1916 34.7477 33.1828C35.0192 34.8017 34.3811 36.5253 33.227 37.6211C32.3336 38.4967 31.0628 38.973 29.8489 38.7087C29.6914 38.6729 29.5394 38.6261 29.3927 38.5655C26.8728 37.5688 26.7098 33.9069 28.3093 31.9521C28.8768 31.1922 29.6534 30.6167 30.5468 30.3414C31.5543 30.0137 32.5617 30.6443 33.5312 30.3304C33.9955 30.2395 34.6119 29.5842 34.6852 29.419C34.821 29.2153 37.4768 25.2726 38.7123 23.4333C39.1685 22.7313 39.2554 22.6487 39.4156 22.3843C40.0673 21.3601 40.347 20.0688 40.0999 18.8601C39.994 18.3563 39.8012 17.8662 39.5079 17.4504C39.0925 16.9108 38.8454 16.7648 38.8372 16.7511C38.0606 16.1316 30.221 9.85956 26.9868 7.27146C25.9223 6.44271 25.8517 6.33258 25.42 6.02972C25.1864 5.87553 24.9366 5.74613 24.6732 5.66353C23.2802 5.21474 21.6617 5.90307 20.7548 7.05945C20.4045 7.53302 20.4941 7.40637 20.4371 7.49448C19.7826 8.46639 13.1758 18.2847 10.4522 22.332C9.5778 23.6591 9.46375 23.7637 9.14332 24.2924C9.06186 24.4273 8.98854 24.5677 8.92337 24.7109C8.08971 26.3656 8.29609 28.6536 9.78961 29.8183C9.78961 29.8183 9.79776 29.8238 9.81133 29.8375C10.0612 30.0385 12.3069 31.8364 12.8255 32.2494C12.9341 32.3458 12.8744 32.2935 13.1242 32.4724C13.985 33.0699 15.1201 33.1085 16.057 32.6927C16.6761 32.4614 17.4609 31.7593 17.7216 31.3821C18.0067 31.0104 19.4893 29.1575 19.5545 29.0253C19.8967 28.4746 20.0406 27.7808 19.9048 27.1365C19.7826 26.6217 19.5002 26.1536 19.4432 25.6167C19.2178 24.1822 19.6821 22.6872 20.5891 21.6052C23.1553 18.5325 27.405 20.2891 26.8972 24.4383C26.6202 26.4758 25.1864 28.4857 23.3128 28.6536C22.4058 28.7197 21.6726 28.5462 21.2191 28.6811C20.7901 28.7362 20.103 29.2208 20.0189 29.4135C19.6061 29.9284 18.0556 31.9438 17.8546 32.1365C16.6299 33.5297 14.4983 34.1822 12.8798 33.1443C12.4073 32.8276 9.55608 30.5369 9.12974 30.1514C6.76727 27.8386 8.22548 24.3557 8.93966 23.5242C9.91181 22.0787 16.7304 11.9493 19.1635 8.33148C19.9374 7.22465 19.7365 7.43115 20.2578 6.72906C21.1567 5.56716 22.5551 4.75769 24.0079 4.84029C24.6352 4.8871 25.2489 5.0936 25.7784 5.44327C26.2889 5.79569 26.0418 5.63875 26.2265 5.77366C27.3588 6.6795 35.1957 12.9515 38.1583 15.3194C39.1196 16.1288 38.9811 15.9223 39.5568 16.4647C40.4149 17.31 40.825 18.56 40.7897 19.777Z" fill="black"/>
<path d="M31.3286 32.2936C31.6545 32.3431 31.9342 32.489 32.146 32.7231C32.4528 33.0645 32.6022 33.5849 32.5777 34.2346C32.5424 35.5314 31.4345 36.4015 30.4189 36.4015C30.0985 36.4015 29.8134 36.3161 29.5798 36.1509C30.1392 36.0353 30.6932 35.5507 31.0734 34.8321C31.5377 33.9621 31.6273 32.9956 31.3286 32.2936ZM31.1087 32.1421C31.9369 33.5188 30.704 36.0463 29.3246 36.0463C29.3056 36.0463 29.2838 36.0463 29.2648 36.0436C29.5717 36.3822 29.9872 36.5364 30.4243 36.5364C31.4861 36.5364 32.6728 35.625 32.7108 34.2401C32.7624 32.7864 31.9858 32.1586 31.1087 32.1421Z" fill="black"/>
<path d="M23.8259 22.233C24.4233 22.4918 24.7437 23.1471 24.7111 24.0749C24.7084 25.3442 23.5679 26.228 22.5441 26.228C22.2943 26.228 21.9657 26.1757 21.6725 25.9582C21.7078 25.9554 21.7404 25.9499 21.7757 25.9472C21.9006 25.9279 22.0336 25.8921 22.1884 25.837C22.2237 25.8233 22.2563 25.8095 22.2916 25.7957L22.2998 25.793C22.3894 25.7544 22.479 25.7076 22.5876 25.6471L22.6229 25.6278C22.6555 25.6085 22.6908 25.5892 22.7261 25.5645C22.8591 25.4736 22.9732 25.3827 23.0764 25.2836C23.0872 25.2726 23.0954 25.2643 23.1063 25.2533C23.1117 25.2478 23.1171 25.2423 23.1225 25.2368C23.2529 25.1074 23.3588 24.978 23.4511 24.8458C23.5326 24.7302 23.6086 24.5953 23.6847 24.4411C23.7009 24.4053 23.7172 24.3723 23.7308 24.3365L23.7471 24.2952C23.7933 24.1878 23.8286 24.0914 23.8557 24.0033C23.872 23.9538 23.8856 23.9015 23.8992 23.8519C23.9236 23.7555 23.9426 23.6537 23.9589 23.5463L23.9643 23.505C23.9698 23.4719 23.9752 23.4417 23.9779 23.4086C23.9915 23.2572 23.9969 23.1223 23.9888 22.9929C23.9888 22.9874 23.9888 22.9791 23.9888 22.9736C23.9806 22.8414 23.9616 22.7038 23.9263 22.5523C23.9209 22.5221 23.91 22.4945 23.9019 22.467C23.8992 22.456 23.8937 22.4422 23.891 22.4284C23.8666 22.3569 23.8476 22.2935 23.8259 22.233ZM23.5787 22.0154C23.5896 22.0375 23.6059 22.0567 23.6168 22.0788C23.6358 22.1201 23.6548 22.1586 23.6738 22.2027C23.7091 22.288 23.739 22.3734 23.7634 22.4642C23.7743 22.5028 23.7878 22.5413 23.796 22.5799C23.8259 22.7093 23.8476 22.8414 23.8557 22.9791C23.8557 22.9846 23.8557 22.9874 23.8557 22.9929C23.8639 23.125 23.8584 23.2599 23.8449 23.3948C23.8394 23.4389 23.8313 23.483 23.8259 23.527C23.8123 23.6234 23.7933 23.7225 23.7688 23.8189C23.7553 23.8684 23.7444 23.9152 23.7281 23.9648C23.6982 24.0584 23.6629 24.152 23.6222 24.2456C23.6032 24.2924 23.5842 24.3392 23.5625 24.386C23.4973 24.5182 23.424 24.6476 23.3398 24.7743C23.2447 24.9119 23.1388 25.0331 23.0275 25.1459C23.0139 25.1597 23.0003 25.1762 22.9841 25.19C22.8782 25.2919 22.7668 25.38 22.6501 25.4571C22.6066 25.4846 22.5632 25.5094 22.5197 25.5342C22.4301 25.5865 22.3405 25.636 22.2482 25.6746C22.2129 25.6883 22.1776 25.7049 22.1423 25.7159C22.0146 25.7627 21.8843 25.7985 21.7539 25.8178C21.6698 25.8288 21.5856 25.8343 21.5014 25.8343C21.4742 25.8343 21.4471 25.8343 21.4199 25.8315C21.3928 25.8315 21.3629 25.826 21.3358 25.8233C21.6453 26.195 22.0798 26.3629 22.5387 26.3629C23.6195 26.3629 24.8306 25.435 24.8333 24.0749C24.8795 22.8084 24.3038 22.1724 23.5787 22.0154Z" fill="black"/>
<path d="M11.9918 8.9896C11.9511 7.43123 10.0231 7.24951 9.32249 8.44719L4.59753 15.6498C4.42103 15.9417 4.08159 15.8839 3.79918 15.9252C3.32668 15.9912 2.88134 16.1867 2.47945 16.4538C0.774121 17.5827 0.0490842 20.369 1.47472 22.0182C2.38169 23.0122 3.51948 23.0177 4.55409 22.5992C5.15421 22.3569 5.7489 21.9549 6.18881 21.3189C6.56898 20.771 6.78079 20.1102 6.84053 19.4466C6.86497 19.2264 6.87311 19.0034 6.85139 18.7803C6.88126 18.3646 6.60157 17.9131 6.85954 17.5386L11.6225 10.2809C11.6225 10.2781 11.6252 10.2781 11.6252 10.2754L11.6279 10.2726C11.8805 9.90369 12.0217 9.43838 11.9918 8.9896ZM11.0441 9.15479L6.12092 16.8806C6.10192 16.9081 6.08834 16.9411 6.07204 16.9714C5.87924 17.3899 5.81136 17.9626 5.84666 18.4582C5.84937 18.505 5.8711 18.6427 5.87653 18.6647C6.41691 21.0188 4.01099 22.2468 2.84333 21.3519C1.7517 20.4351 2.21333 18.326 3.43802 17.69C4.16034 17.423 4.89081 17.4285 5.52352 16.9329C5.56968 16.8971 5.70274 16.7732 5.72989 16.7512C5.75976 16.7209 5.78692 16.6933 5.81679 16.6603C5.8195 16.6575 10.835 9.01713 10.835 9.01713C10.9301 8.8712 11.1392 9.01437 11.0441 9.15479Z" fill="black"/>
<path d="M44.404 10.815C44.6918 10.457 44.8412 10.0275 44.8602 9.61452C44.8629 9.56771 44.8629 9.52366 44.8629 9.47961C44.8629 9.47135 44.8629 9.46584 44.8629 9.46033C44.8602 9.40527 44.8575 9.3502 44.8493 9.29789C44.8004 8.90967 44.6266 8.55725 44.3361 8.32322C42.7937 7.10626 40.5018 5.2643 39.4998 4.41628C39.326 4.27036 39.2473 4.03357 39.2554 3.80229C39.3613 0.658021 36.2521 -0.779204 34.1041 1.62168C31.8204 4.11617 33.6153 8.65086 37.1102 7.08423C37.2215 7.07047 37.3328 7.09525 37.4224 7.16683L42.3429 11.1509C42.419 11.2114 42.4977 11.261 42.5764 11.3023C42.5764 11.3023 42.5792 11.3023 42.5792 11.305C42.8317 11.4372 43.0951 11.473 43.3504 11.4317C43.3612 11.4317 43.3721 11.4317 43.383 11.4289C43.4128 11.4234 43.4427 11.4124 43.4726 11.4069C43.4753 11.4069 43.4807 11.4042 43.4834 11.4042C43.8174 11.3271 44.146 11.1343 44.404 10.815ZM38.5738 6.06276C38.5277 6.02696 38.4679 5.99117 38.4163 5.96639C37.3763 5.49558 36.1896 6.74833 35.2283 5.85626C32.635 3.20207 38.0877 -0.374468 38.2968 3.973C38.2996 4.00879 38.2968 4.04734 38.2941 4.08313C38.2561 4.59525 38.3321 5.24778 38.6417 5.64425C38.6852 5.69657 38.7367 5.75163 38.7856 5.79293L43.8473 9.91463C43.9804 10.0193 43.831 10.2313 43.7034 10.1239L38.5738 6.06276Z" fill="black"/>
<path d="M5.04282 19.7411C5.06998 19.642 5.08899 19.5429 5.09985 19.4438C5.11071 19.3502 5.11071 19.2538 5.108 19.163C5.108 19.1519 5.10528 19.1409 5.10528 19.1299C5.09985 19.0446 5.08627 18.9592 5.06726 18.8794C5.06455 18.8628 5.05912 18.8491 5.05369 18.8326C5.03468 18.7637 5.01295 18.7004 4.9858 18.6371C4.97765 18.6178 4.96951 18.5985 4.96136 18.5793C4.92606 18.5049 4.88533 18.4361 4.83645 18.37C4.83373 18.3672 4.83102 18.3617 4.83102 18.359C4.77671 18.2874 4.71425 18.2186 4.64365 18.1608C4.58391 18.1112 4.52145 18.0699 4.45628 18.0341C4.43727 18.0231 4.41555 18.0148 4.39382 18.0066C4.35037 17.9873 4.30693 17.9708 4.26348 17.957C4.20917 17.9405 4.15214 17.9295 4.09512 17.9212C4.06796 17.9185 4.04081 17.9102 4.01365 17.9074C3.99193 17.9047 3.9702 17.9074 3.94576 17.9047C3.95934 17.9295 3.9702 17.9543 3.98107 17.9818C4.00551 18.0396 4.02723 18.1002 4.04352 18.1635C4.05167 18.191 4.05982 18.2186 4.06525 18.2461C4.08425 18.337 4.10055 18.4306 4.10598 18.5242C4.10598 18.5269 4.10598 18.5297 4.10598 18.5324C4.11141 18.6233 4.10869 18.7197 4.09783 18.8133C4.09512 18.8436 4.08969 18.8739 4.08425 18.9041C4.07339 18.973 4.06253 19.0391 4.04352 19.1079C4.03538 19.1409 4.02451 19.1767 4.01637 19.2098C3.99464 19.2758 3.9702 19.3419 3.94305 19.4052C3.92947 19.4383 3.91589 19.4713 3.90232 19.5016C3.85615 19.5952 3.80727 19.6861 3.74482 19.7714C3.67693 19.8678 3.60361 19.9532 3.52486 20.033C3.514 20.044 3.50585 20.055 3.49499 20.0633C3.42167 20.1349 3.34293 20.1954 3.26146 20.2505C3.23159 20.2698 3.20172 20.2863 3.17185 20.3056C3.10939 20.3414 3.04694 20.3772 2.98176 20.4019C2.95733 20.413 2.93289 20.424 2.90845 20.4322C2.81884 20.4653 2.72922 20.49 2.6369 20.5038C2.62875 20.5038 2.62332 20.5038 2.61517 20.5066C2.62332 20.5176 2.63147 20.5313 2.63961 20.5424C2.64776 20.5534 2.65591 20.5616 2.66134 20.5726C2.71293 20.6387 2.76996 20.702 2.83784 20.7571C2.9003 20.8094 2.96547 20.8507 3.03336 20.8865C3.03879 20.8893 3.04422 20.892 3.04965 20.8948C3.11754 20.9278 3.18543 20.9554 3.25603 20.9746C3.25875 20.9746 3.26146 20.9774 3.26418 20.9774C3.33749 20.9967 3.41353 21.0077 3.48956 21.0132H3.49228C3.57103 21.0159 3.64978 21.0132 3.72853 21.0022C3.82357 20.9884 3.91861 20.9636 4.01365 20.9278H4.01637C4.10326 20.8948 4.19016 20.848 4.27434 20.7957C4.28249 20.7902 4.29063 20.7874 4.29878 20.7819C4.38567 20.7241 4.46714 20.6607 4.54317 20.5837C4.54317 20.5837 4.54317 20.5837 4.54589 20.5809C4.62464 20.5038 4.70067 20.413 4.76856 20.3166C4.83102 20.2285 4.88533 20.1349 4.92877 20.0385C4.92877 20.0385 4.92877 20.0357 4.93149 20.0357C4.97494 19.9421 5.01295 19.843 5.04011 19.7467C5.04282 19.7467 5.04282 19.7439 5.04282 19.7411Z" fill="black"/>
<path d="M27.079 38.6427C25.5584 37.6955 24.7654 35.8233 25.0125 33.7005C25.0261 33.5738 25.0478 33.4389 25.075 33.2875C25.0804 33.2599 25.0859 33.2297 25.0913 33.2021L25.0994 33.1581C25.1212 33.0562 25.1429 32.9626 25.1646 32.8745C25.1755 32.8277 25.1891 32.7809 25.1999 32.7341C25.2244 32.6432 25.2515 32.5523 25.2841 32.4505L25.2977 32.4064C25.3058 32.3816 25.314 32.3569 25.3221 32.3321C25.3248 32.3238 25.3275 32.3156 25.3303 32.3073C25.333 32.3018 25.333 32.2935 25.3357 32.288C25.3466 32.2577 25.3601 32.2275 25.371 32.1944C25.3791 32.1724 25.39 32.1476 25.3981 32.1256L25.4144 32.0843C25.4389 32.021 25.4633 31.9576 25.4878 31.8971C25.5095 31.8475 25.5312 31.8007 25.5529 31.7511L25.5747 31.7016L25.5909 31.6685C25.6208 31.6052 25.648 31.5419 25.6806 31.4813C25.686 31.473 25.6887 31.462 25.6941 31.4538C25.6969 31.4483 25.6996 31.44 25.7023 31.4345C25.7267 31.3877 25.7539 31.3409 25.781 31.2941L25.8136 31.239C25.8218 31.2225 25.8326 31.206 25.8408 31.1895C25.8544 31.1647 25.8679 31.1399 25.8815 31.1151C25.9521 30.9912 26.0281 30.8756 26.0987 30.7654L26.1042 30.7599L26.1069 30.7544C26.2182 30.5892 26.3459 30.4185 26.5034 30.2286C26.5142 30.2175 26.5224 30.2038 26.5305 30.1928C26.5359 30.1845 26.5414 30.1762 26.5468 30.1707C26.5495 30.168 26.5549 30.1625 26.5577 30.1597C26.5658 30.1515 26.574 30.1432 26.5821 30.1349C26.7206 29.9753 26.8645 29.8211 27.0139 29.6779C27.022 29.6696 27.0302 29.6614 27.0383 29.6531C27.041 29.6504 27.0437 29.6449 27.0465 29.6421C27.0736 29.6173 27.1008 29.5925 27.1279 29.5705C27.1442 29.5567 27.1605 29.543 27.1768 29.5265L27.2121 29.4934C27.2393 29.4686 27.2664 29.4439 27.2963 29.4191C27.3669 29.3585 27.4429 29.3007 27.5135 29.2456C27.5271 29.2346 27.5434 29.2236 27.557 29.2126C27.576 29.1961 27.595 29.1823 27.6167 29.1658C27.6221 29.163 27.6249 29.1575 27.6357 29.152C27.6547 29.1382 27.6764 29.1245 27.6982 29.1107C27.7172 29.0997 27.7335 29.0887 27.7525 29.0749L27.7633 29.0694C27.8394 29.0171 27.9127 28.9675 27.9887 28.9207C28.0213 28.9015 28.0566 28.8822 28.0919 28.8629L28.1489 28.8299C28.225 28.7858 28.2956 28.7473 28.3716 28.7087C28.3798 28.7032 28.3906 28.6977 28.3988 28.695C28.4042 28.6922 28.4096 28.6895 28.4151 28.6867C28.4585 28.6647 28.5047 28.6454 28.5481 28.6261L28.6024 28.6014C28.6187 28.5931 28.635 28.5876 28.6513 28.5793C28.673 28.5683 28.6975 28.5573 28.7192 28.549C28.8495 28.4967 28.969 28.4527 29.0858 28.4141C29.3383 28.3343 29.5936 28.2737 29.8461 28.2379C29.9955 28.2159 30.1448 28.2021 30.3078 28.1966C30.3186 28.1966 30.3295 28.1966 30.3403 28.1966C30.3594 28.1966 30.3756 28.1966 30.3947 28.1966C30.4137 28.1966 30.4327 28.1966 30.4571 28.1966H30.5141C30.5875 28.1966 30.6716 28.1966 30.7558 28.2021C30.7938 28.2049 30.8346 28.2104 30.8726 28.2131L30.9296 28.2186C31.0192 28.2297 31.1061 28.2379 31.193 28.2544C31.2419 28.2627 31.2908 28.2737 31.3369 28.2847L31.3695 28.293C31.3912 28.2985 31.4157 28.3012 31.4374 28.3067C31.4673 28.3123 31.4971 28.3178 31.527 28.326C31.5813 28.3398 31.6329 28.3563 31.6845 28.3728C31.728 28.3866 31.7714 28.3921 31.8121 28.3976L31.823 28.4004C31.8366 28.4031 31.8502 28.4059 31.8637 28.4059C31.8827 28.4059 31.9018 28.4086 31.9208 28.4086C31.9561 28.4086 31.9941 28.4059 32.0267 28.4004C32.0946 28.3893 32.1679 28.3673 32.2466 28.3315C32.2792 28.3178 32.3091 28.3012 32.3362 28.2847L32.3471 28.2792C32.3607 28.271 32.3715 28.2654 32.3824 28.2572C32.4286 28.2241 32.4747 28.1884 32.5127 28.1498C32.5182 28.1443 32.5236 28.1388 32.5263 28.1333L32.5317 28.1278C32.5779 28.0782 32.6186 28.0314 32.6512 27.9846L37.3083 21.0628C37.311 21.0601 37.3137 21.0545 37.3137 21.0545C37.3735 20.9637 37.4332 20.8618 37.4957 20.7462C37.5065 20.7241 37.5174 20.7049 37.5283 20.6829L37.5391 20.6636C37.6097 20.5204 37.6667 20.391 37.7102 20.2699C37.7129 20.2643 37.7129 20.2616 37.7129 20.2561C37.7536 20.1377 37.7889 20.011 37.8215 19.8651L37.827 19.8431C37.8324 19.8238 37.8351 19.8045 37.8405 19.7853C37.8677 19.6531 37.884 19.521 37.8948 19.3943C37.8948 19.3778 37.8976 19.3613 37.8976 19.3475V19.3227C37.9057 19.1961 37.9057 19.0722 37.8976 18.9565V18.9428C37.8976 18.9317 37.8976 18.9235 37.8976 18.9125C37.8894 18.7913 37.8731 18.6674 37.846 18.5325C37.8405 18.505 37.8351 18.4775 37.8297 18.4527C37.7998 18.3205 37.7645 18.2021 37.7238 18.092C37.7211 18.081 37.7156 18.0727 37.7102 18.0617L37.7048 18.0479C37.664 17.9433 37.6124 17.8387 37.5554 17.7368L37.5445 17.7175C37.5364 17.7038 37.531 17.6928 37.5228 17.679C37.5201 17.6735 37.5147 17.6652 37.512 17.6597L37.9872 17.9295C37.9709 17.913 37.9573 17.891 37.9383 17.8745C37.903 17.8442 37.8704 17.8112 37.8351 17.7809L36.9308 17.0623C37.9166 18.1278 38.0632 19.7853 37.2078 20.994C37.0503 21.1096 33.2731 27.1283 32.2521 28.1498C32.1244 28.2765 31.9018 28.2462 31.8474 28.2324C25.2026 26.5914 22.0011 36.831 27.9887 39.3971C27.6574 39.1906 27.3506 38.9373 27.079 38.6427Z" fill="black"/>
<path d="M14.3026 31.4042C14.2836 31.3932 14.2619 31.3822 14.2429 31.3712L13.8492 31.1482H13.8736C13.9904 31.1482 14.0854 31.1399 14.1777 31.1261C14.2755 31.1124 14.3787 31.0876 14.5009 31.0518C14.5253 31.0435 14.5525 31.0353 14.5769 31.027C14.6937 30.9885 14.7941 30.9472 14.8892 30.9004C14.8946 30.8976 14.9001 30.8949 14.9109 30.8893C15.0277 30.8315 15.1472 30.7599 15.2639 30.6773L15.2775 30.6691C15.2856 30.6636 15.2938 30.6581 15.3019 30.6526C15.3888 30.5892 15.4757 30.5176 15.5626 30.4378C15.5789 30.424 15.5952 30.4075 15.6088 30.391L15.6278 30.3717C15.6848 30.3167 15.7419 30.2561 15.7934 30.1983L15.8179 30.1707C15.8505 30.1349 15.8803 30.0991 15.9102 30.0606L17.5775 27.9378C17.6373 27.8635 17.6861 27.7809 17.7296 27.6817L17.7323 27.6762C17.7377 27.6652 17.7405 27.657 17.7459 27.646C17.7812 27.5551 17.8056 27.4642 17.8192 27.3734C17.8219 27.3624 17.8219 27.3486 17.8219 27.3376V27.3293C17.8301 27.2522 17.8301 27.1751 17.8219 27.098C17.8192 27.0733 17.8165 27.0485 17.8138 27.0265C17.7975 26.9246 17.773 26.8392 17.7377 26.7649C17.3033 25.8095 17.1621 24.6917 17.3331 23.5298C17.3576 23.3646 17.3929 23.1884 17.4418 22.9819C17.4526 22.9406 17.4635 22.8993 17.4743 22.858L17.4825 22.8277C17.5178 22.69 17.5612 22.5523 17.6047 22.4174C17.6101 22.4009 17.6155 22.3844 17.621 22.3651C17.6237 22.3513 17.6291 22.3376 17.6346 22.3238C17.6373 22.3156 17.64 22.31 17.6427 22.3018C17.6481 22.2908 17.6508 22.2825 17.6536 22.2715C17.678 22.1999 17.7052 22.1338 17.735 22.0595L17.7432 22.0375L17.7649 21.9852C17.7839 21.9384 17.8029 21.8915 17.8219 21.8447C17.8518 21.7787 17.8817 21.7153 17.9142 21.6493L17.9305 21.6135C17.9414 21.5914 17.9523 21.5694 17.9604 21.5474C17.974 21.5199 17.9876 21.4896 18.0011 21.462C18.0039 21.4565 18.0066 21.451 18.0093 21.4483C18.0147 21.44 18.0174 21.4345 18.0202 21.4262C18.0364 21.396 18.0527 21.3684 18.069 21.3381L18.0962 21.2913C18.1369 21.217 18.1831 21.1371 18.2292 21.0573C18.2537 21.016 18.2781 20.9775 18.3053 20.9389L18.3216 20.9169C18.3324 20.9004 18.3433 20.8811 18.3542 20.8618C18.3704 20.837 18.3867 20.8095 18.403 20.7847C18.4057 20.7792 18.4112 20.7737 18.4139 20.7682C18.422 20.7572 18.4302 20.7489 18.4356 20.7379C18.5578 20.5562 18.6882 20.3855 18.8185 20.2286C18.8239 20.2203 18.8321 20.212 18.8375 20.2038C18.8402 20.201 18.8402 20.1983 18.8429 20.1955C18.8484 20.19 18.8538 20.1817 18.862 20.1762C18.8728 20.1652 18.8837 20.1542 18.8918 20.1432C19.0412 19.9725 19.1824 19.8238 19.3236 19.6889C19.329 19.6834 19.3344 19.6779 19.3453 19.6669L19.3535 19.6586C19.367 19.6449 19.3833 19.6338 19.3969 19.6201C19.4105 19.6091 19.4213 19.598 19.4349 19.587C19.5055 19.5237 19.5816 19.4549 19.6603 19.3915C19.6847 19.3723 19.7119 19.353 19.7363 19.331L19.7798 19.2979C19.7961 19.2842 19.8151 19.2704 19.8314 19.2566C19.864 19.2291 19.8993 19.2043 19.9346 19.1768C19.94 19.174 19.9454 19.1685 19.9509 19.1658C19.959 19.1603 19.9672 19.1548 19.978 19.1493C20.0513 19.0969 20.1301 19.0474 20.2034 19.0006C20.2197 18.9896 20.236 18.9786 20.255 18.9675C20.2849 18.9483 20.3147 18.9262 20.3473 18.9097C20.4342 18.8574 20.5238 18.8106 20.6134 18.7638C20.6297 18.7555 20.6487 18.7445 20.665 18.7363C20.6813 18.7252 20.7003 18.717 20.7166 18.7087C20.7221 18.706 20.7248 18.706 20.7302 18.7032C20.8035 18.6674 20.8796 18.6371 20.9583 18.6013L20.9855 18.5903C21.0045 18.5821 21.0235 18.5738 21.0425 18.5656C21.0669 18.5545 21.0914 18.5435 21.1131 18.5353C21.2462 18.483 21.3792 18.4389 21.5068 18.4004C21.7159 18.3398 21.925 18.2957 22.1314 18.2654C22.2536 18.2462 22.3867 18.2352 22.5306 18.2269C22.5577 18.2241 22.5822 18.2241 22.6093 18.2241H22.6528C22.6935 18.2241 22.7342 18.2214 22.775 18.2214C22.8239 18.2214 22.8754 18.2214 22.9243 18.2241C22.9705 18.2269 23.0167 18.2297 23.0601 18.2324C23.1443 18.2379 23.2285 18.2489 23.3181 18.2599L23.3561 18.2654C23.3832 18.2682 23.4131 18.2737 23.4403 18.2765C23.5435 18.293 23.6466 18.315 23.7498 18.3425C23.7607 18.3453 23.7716 18.348 23.7797 18.348C23.7851 18.348 23.7879 18.3508 23.7933 18.3508L23.7987 18.3536H23.8041C23.9182 18.3838 24.035 18.4224 24.1599 18.4692C24.1789 18.4775 24.2006 18.4857 24.2196 18.494L24.2576 18.5105C24.3472 18.5463 24.426 18.5821 24.502 18.6206C24.7383 18.6784 24.9718 18.7638 25.1972 18.8712L24.7654 18.6096C24.7166 18.5821 24.665 18.5545 24.6134 18.527C24.5944 18.5187 24.5753 18.5105 24.5563 18.5022C24.4749 18.4609 24.3907 18.4251 24.3038 18.3893C24.2685 18.3756 24.2359 18.3591 24.2006 18.348C24.0811 18.304 23.9589 18.2627 23.834 18.2297C23.8313 18.2297 23.8286 18.2269 23.8259 18.2269C23.8096 18.2214 23.7933 18.2214 23.777 18.2159C23.6711 18.1884 23.5652 18.1663 23.4566 18.1471C23.4158 18.1388 23.3724 18.136 23.3289 18.1278C23.242 18.1168 23.1524 18.1058 23.0628 18.1002C23.0167 18.0975 22.9705 18.0947 22.9216 18.092C22.87 18.0892 22.8184 18.0892 22.7668 18.0892C22.7261 18.0892 22.6826 18.0892 22.6419 18.092C22.5985 18.092 22.5577 18.092 22.5143 18.0947C22.3785 18.103 22.2427 18.114 22.1015 18.1333C21.8897 18.1636 21.6752 18.2104 21.4607 18.2737C21.3249 18.3123 21.1891 18.3591 21.0561 18.4114C21.0126 18.4279 20.9692 18.4499 20.923 18.4692C20.8361 18.505 20.7465 18.5435 20.6596 18.5848C20.6542 18.5876 20.6515 18.5876 20.646 18.5903C20.6107 18.6069 20.5754 18.6289 20.5401 18.6482C20.4478 18.695 20.3555 18.7445 20.2659 18.7968C20.217 18.8271 20.1681 18.8602 20.1192 18.8904C20.0405 18.94 19.9644 18.9896 19.8884 19.0446C19.8748 19.0556 19.8585 19.0639 19.845 19.0722C19.7907 19.1107 19.7391 19.1548 19.6875 19.1933C19.6467 19.2236 19.606 19.2539 19.5653 19.2869C19.4865 19.3502 19.4105 19.4191 19.3344 19.4879C19.3073 19.5127 19.2774 19.5347 19.2503 19.5623C19.2476 19.565 19.2421 19.5678 19.2394 19.5705C19.2313 19.5788 19.2258 19.587 19.2177 19.5925C19.0629 19.7385 18.9163 19.8954 18.7778 20.0578C18.7615 20.0771 18.7452 20.0909 18.7289 20.1102C18.7207 20.1212 18.7126 20.1322 18.7045 20.1432C18.566 20.3084 18.4356 20.4819 18.3134 20.6608C18.3026 20.6773 18.289 20.6911 18.2781 20.7076C18.2483 20.7517 18.2238 20.7957 18.1939 20.8398C18.1641 20.8866 18.1315 20.9362 18.1016 20.9857C18.0555 21.0628 18.0093 21.1426 17.9658 21.2225C17.9414 21.2693 17.9142 21.3134 17.8898 21.3602C17.8844 21.3739 17.8762 21.3849 17.8681 21.3987C17.8436 21.4483 17.8192 21.5006 17.7948 21.5501C17.7567 21.6272 17.7187 21.7043 17.6834 21.7842C17.6536 21.8502 17.6291 21.9163 17.602 21.9824C17.5694 22.0623 17.5368 22.1393 17.5096 22.2219C17.5042 22.2412 17.4961 22.2577 17.4879 22.2743C17.4771 22.3045 17.4689 22.3376 17.4608 22.3679C17.4146 22.5055 17.3711 22.646 17.3358 22.7864C17.3223 22.8387 17.3087 22.891 17.2951 22.9433C17.2517 23.1278 17.2109 23.315 17.1838 23.505C16.9991 24.7522 17.1729 25.8838 17.5992 26.8172C17.6318 26.8888 17.6508 26.9659 17.6644 27.043C17.6671 27.065 17.6699 27.0843 17.6726 27.1063C17.678 27.1724 17.6807 27.2412 17.6726 27.3101C17.6726 27.3238 17.6726 27.3376 17.6699 27.3486C17.659 27.4312 17.6373 27.511 17.6047 27.5881C17.5992 27.5991 17.5965 27.6102 17.5911 27.6212C17.5558 27.701 17.5124 27.7781 17.458 27.8469L15.7907 29.9697C15.7554 30.0165 15.7174 30.0578 15.6794 30.0991C15.6278 30.157 15.5762 30.2148 15.5219 30.2671C15.5002 30.2891 15.4784 30.3084 15.4567 30.3304C15.3753 30.4048 15.2938 30.4736 15.2069 30.5369C15.196 30.5452 15.1825 30.5534 15.1716 30.5617C15.063 30.6388 14.9489 30.7076 14.8349 30.7654C14.8267 30.7682 14.8213 30.7737 14.8132 30.7765C14.7154 30.8233 14.6149 30.8618 14.5172 30.8949C14.4927 30.9031 14.4683 30.9114 14.4466 30.9169C14.3461 30.9472 14.2429 30.9719 14.1424 30.9885C14.0474 31.0022 13.9496 31.0077 13.8546 31.0077C13.8437 31.0077 13.8329 31.0077 13.8247 31.0077C13.8139 31.0077 13.803 31.0077 13.7921 31.0077C13.6998 31.005 13.6048 30.9967 13.5151 30.983C13.5016 30.9802 13.488 30.9775 13.4744 30.9747C13.412 30.9637 13.3495 30.9444 13.287 30.9251C13.3522 30.9775 13.3957 31.0132 13.3957 31.0132C13.6808 31.239 13.9876 31.3547 14.3026 31.4042Z" fill="black"/>
<path d="M26.4604 4.26216C26.4632 4.26491 26.4659 4.26491 26.4686 4.26766C26.4386 4.24288 26.4085 4.22361 26.3784 4.20158C26.4058 4.22086 26.4331 4.24288 26.4604 4.26216Z" fill="black"/>
<path d="M7.50315 30.5232C6.846 29.967 6.13997 29.152 5.79782 28.0397C5.28731 26.3794 5.69192 24.4604 6.99535 22.3293C9.7027 17.913 18.1099 5.81227 18.194 5.69112L18.1968 5.68837L18.1995 5.68561C19.2069 4.0529 20.9285 3.08099 22.7995 3.08099C23.4159 3.08099 24.0323 3.18837 24.6216 3.39211C24.5537 3.3811 24.4886 3.3811 24.4207 3.37559C25.1185 3.49949 25.7893 3.78308 26.3758 4.20158C25.2923 3.36182 24.0351 2.94608 22.7995 2.94608C20.9666 2.94608 19.1798 3.85191 18.0909 5.61403C18.0909 5.61403 9.62667 17.7891 6.88945 22.2605C3.82638 27.2605 6.40066 29.9643 7.94578 31.0325C7.78556 30.8701 7.63893 30.6994 7.50315 30.5232Z" fill="black"/>
<path d="M1.50999 22.0484L1.47197 22.0292C1.34978 21.9603 1.23301 21.8805 1.12439 21.7896C1.02935 21.7098 0.934306 21.6134 0.828402 21.4895L0.81754 21.4757C0.801247 21.4592 0.78767 21.4399 0.774092 21.4234C0.684481 21.3133 0.608447 21.2004 0.543275 21.0875C0.537845 21.0765 0.532414 21.0655 0.526983 21.0572C0.521552 21.0462 0.516121 21.0352 0.51069 21.027C0.450949 20.9168 0.396639 20.7984 0.350476 20.68C0.345045 20.669 0.342329 20.658 0.336898 20.647C0.331467 20.636 0.328752 20.625 0.323321 20.614C0.277157 20.4873 0.23914 20.3496 0.206554 20.2037C0.201123 20.1789 0.195693 20.1542 0.192977 20.1294L0.190262 20.1101C0.160391 19.9449 0.141383 19.8045 0.133236 19.6723V19.6668C0.12509 19.5319 0.127805 19.386 0.138667 19.2098V19.1905C0.141383 19.1657 0.141383 19.1382 0.144098 19.1134C0.157676 18.9565 0.1794 18.8023 0.20927 18.6591C0.211985 18.6453 0.214701 18.6316 0.217416 18.6206C0.220132 18.6095 0.222847 18.5958 0.225563 18.5848C0.255433 18.4471 0.296166 18.3067 0.342329 18.169C0.34776 18.158 0.350476 18.1442 0.353191 18.1332C0.353191 18.1277 0.355907 18.1222 0.355907 18.1167C0.358622 18.1112 0.358622 18.1084 0.361338 18.1029C0.364053 18.0947 0.366769 18.0892 0.369484 18.0809C0.377631 18.0589 0.385777 18.0396 0.393923 18.0203L0.407501 17.9846C0.437371 17.9102 0.464526 17.8469 0.488966 17.7863C0.505259 17.7505 0.521552 17.7147 0.54056 17.6789C0.545991 17.6652 0.554137 17.6514 0.559568 17.6404C0.567715 17.6266 0.573146 17.6101 0.581292 17.5963C0.584008 17.5881 0.589439 17.5826 0.59487 17.5743C0.603016 17.5633 0.608447 17.5495 0.616594 17.5385C0.668188 17.4422 0.725213 17.343 0.78767 17.2494C0.795816 17.2357 0.803963 17.2246 0.809394 17.2109C0.814825 17.2026 0.81754 17.1944 0.822971 17.1861C0.833833 17.1668 0.847411 17.1503 0.858273 17.1338C0.931591 17.0292 1.01034 16.9273 1.0918 16.8282C1.09724 16.8227 1.09995 16.8199 1.10538 16.8144C1.18685 16.718 1.27646 16.6244 1.3715 16.5336C1.37693 16.5281 1.38236 16.5225 1.39051 16.5143L1.39322 16.5088C1.40137 16.5005 1.40952 16.495 1.41766 16.4868C1.43124 16.4757 1.4421 16.4675 1.45568 16.4565C1.53986 16.3821 1.61861 16.316 1.69736 16.2555C1.70822 16.2472 1.71908 16.239 1.72995 16.2279C1.73538 16.2224 1.74352 16.2169 1.74895 16.2114C1.76525 16.2004 1.78154 16.1894 1.79783 16.1784C1.81141 16.1701 1.82499 16.1619 1.83857 16.1509C1.86844 16.1288 1.90102 16.1096 1.93361 16.0875C1.99063 16.0517 2.05037 16.0159 2.12369 15.9774L2.15628 15.9581C2.17257 15.9499 2.18886 15.9416 2.20244 15.9333C2.20787 15.9306 2.21602 15.9278 2.22145 15.9223L2.22688 15.9196C2.23231 15.9168 2.23774 15.9141 2.24317 15.9141C2.25675 15.9086 2.26761 15.9058 2.28119 15.9003C2.38438 15.8507 2.493 15.8094 2.60162 15.7709C2.63692 15.7599 2.66951 15.7489 2.70481 15.7379C2.85416 15.6938 2.97907 15.6663 3.09584 15.647C3.20989 15.6305 3.32394 15.6222 3.43799 15.6195C3.46514 15.6195 3.4923 15.6167 3.51945 15.614C3.57376 15.6057 3.62807 15.5892 3.69053 15.5616C3.70954 15.5534 3.73126 15.5424 3.7557 15.5286C3.76656 15.5231 3.77743 15.5148 3.78829 15.5066C3.82631 15.4818 3.85618 15.457 3.88333 15.4322C3.88605 15.4295 3.88876 15.4267 3.89148 15.424C3.92678 15.3882 3.95665 15.3551 3.98109 15.3166L8.70604 8.11396C9.01018 7.66517 9.50983 7.38709 10.0122 7.38709C10.1941 7.38709 10.3706 7.42288 10.539 7.49446C10.6884 7.55779 10.8187 7.62387 10.9327 7.68995C11.2722 7.75052 11.579 7.93224 11.7718 8.2351H11.7745C11.7745 8.2351 11.5302 7.7753 10.5879 7.36781C10.4005 7.28797 10.205 7.24942 10.0122 7.24942C9.45823 7.24942 8.92057 7.56054 8.60286 8.03136L3.88062 15.2395C3.85889 15.2725 3.83445 15.3001 3.8073 15.3276C3.80458 15.3304 3.80187 15.3331 3.79915 15.3359C3.77471 15.3579 3.74756 15.3799 3.72312 15.3964C3.71225 15.402 3.70139 15.4102 3.69325 15.4157C3.67695 15.424 3.66066 15.4322 3.64437 15.4405C3.60092 15.4598 3.55476 15.4763 3.50588 15.4846C3.48415 15.4873 3.46243 15.4901 3.44071 15.4901C3.32122 15.4928 3.20446 15.5011 3.08498 15.5203C2.9492 15.5396 2.81343 15.5754 2.67765 15.614C2.63964 15.625 2.60433 15.636 2.56903 15.6497C2.4577 15.6883 2.34636 15.7323 2.23774 15.7847C2.21873 15.7929 2.19973 15.7984 2.18072 15.8067C2.17257 15.8122 2.16442 15.8177 2.15628 15.8205C2.12912 15.8342 2.09925 15.8507 2.0721 15.8673C2.00693 15.9031 1.93904 15.9416 1.87387 15.9801C1.84128 16.0022 1.80869 16.0242 1.77339 16.0462C1.74352 16.0655 1.71365 16.0848 1.68378 16.1068C1.66477 16.1206 1.64848 16.1371 1.62947 16.1509C1.54258 16.2142 1.46111 16.2858 1.37965 16.3573C1.35792 16.3766 1.3362 16.3904 1.31448 16.4097C1.30633 16.4179 1.3009 16.4262 1.29275 16.4344C1.19771 16.5253 1.10538 16.6217 1.01849 16.7235C1.01577 16.729 1.01034 16.7318 1.00491 16.7373C1.00491 16.7373 1.00491 16.7373 1.00491 16.7401C0.920729 16.8392 0.839264 16.9438 0.76323 17.0539C0.749653 17.0732 0.738791 17.0897 0.725213 17.109C0.711636 17.131 0.700774 17.1531 0.687197 17.1751C0.62474 17.2742 0.564999 17.3733 0.51069 17.4752C0.499828 17.4945 0.48625 17.5137 0.475388 17.5358C0.461811 17.5633 0.448233 17.5936 0.434656 17.6239C0.415647 17.6597 0.399354 17.6982 0.383061 17.734C0.353191 17.8028 0.323321 17.8689 0.298881 17.9377C0.285304 17.9708 0.271726 18.0038 0.260864 18.0369C0.255433 18.0479 0.250002 18.0616 0.247287 18.0727C0.241856 18.0892 0.23914 18.1084 0.230994 18.1277C0.182115 18.2709 0.144098 18.4113 0.111512 18.5572C0.106081 18.5848 0.0979348 18.6096 0.0925038 18.6371C0.0599179 18.794 0.038194 18.951 0.0246165 19.1079C0.021901 19.1409 0.0191855 19.1767 0.01647 19.2098C0.000177094 19.3584 -0.0025384 19.5181 0.00560808 19.6751C0.0137546 19.832 0.038194 19.9862 0.0653489 20.1349C0.0707799 20.1679 0.0762109 20.1982 0.0843574 20.2312C0.116943 20.3772 0.15496 20.5203 0.203839 20.658C0.211985 20.68 0.222847 20.7021 0.230994 20.7241C0.279873 20.848 0.334183 20.9691 0.396639 21.0875C0.407501 21.1095 0.418363 21.1316 0.43194 21.1536C0.502543 21.2775 0.584008 21.3959 0.673619 21.5088C0.692628 21.5336 0.714351 21.5556 0.73336 21.5804C0.828402 21.6932 0.931591 21.8006 1.04564 21.8942C1.16241 21.9906 1.28732 22.076 1.41495 22.1503L1.88201 22.3816C1.75438 22.288 1.62947 22.1778 1.50999 22.0484Z" fill="black"/>
<path d="M2.62885 22.7615C2.65071 22.7698 2.67531 22.778 2.69718 22.7863L2.66165 22.767C2.64798 22.7643 2.63978 22.7643 2.62885 22.7615Z" fill="black"/>
<path d="M35.0461 7.30446C35.049 7.30733 35.0518 7.30733 35.0576 7.31019L35.0547 7.30733C35.049 7.30733 35.0461 7.30733 35.0461 7.30446Z" fill="black"/>
<path d="M33.7536 6.39317C33.2132 5.9609 32.8222 5.45705 32.6212 4.89262C32.3361 4.09141 32.4094 3.18833 32.8412 2.2109C32.8737 2.13932 32.9715 1.94383 32.9878 1.91905C33.7237 0.718612 34.5709 0.134912 35.5757 0.134912C35.9993 0.134912 36.4582 0.250551 36.9443 0.465308C37.262 0.520374 37.5634 0.63326 37.8377 0.803965C37.061 0.297357 36.3007 0 35.5757 0C34.5981 0 33.6884 0.536894 32.8928 1.82269C32.871 1.85573 32.7706 2.04846 32.7434 2.10903C31.7903 4.23183 32.5262 5.88656 34.2749 6.91905C34.0794 6.77037 33.9056 6.59416 33.7536 6.39317Z" fill="black"/>
<path d="M42.5193 11.2693C42.4569 11.2335 42.3971 11.1922 42.3374 11.1454L37.4169 7.16138C37.3382 7.09806 37.2404 7.07878 37.1427 7.08154L37.3816 7.21645L41.6721 10.6911L41.1046 10.369L37.0612 7.0953C37.0368 7.10632 37.015 7.11458 36.9906 7.12284L41.0693 10.424C41.1263 10.4709 41.186 10.5122 41.2512 10.5479L42.5193 11.2693Z" fill="black"/>
</svg>
