<?xml version="1.0" encoding="UTF-8"?>
<!DOCTYPE svg PUBLIC "-//W3C//DTD SVG 1.1//EN" "http://www.w3.org/Graphics/SVG/1.1/DTD/svg11.dtd">
<!-- Creator: CorelDRAW 2021 (64-Bit) -->
<svg xmlns="http://www.w3.org/2000/svg" xml:space="preserve" width="33.0728mm" height="33.0728mm" version="1.1" style="shape-rendering:geometricPrecision; text-rendering:geometricPrecision; image-rendering:optimizeQuality; fill-rule:evenodd; clip-rule:evenodd"
viewBox="0 0 3307.28 3307.28"
 xmlns:xlink="http://www.w3.org/1999/xlink"
 xmlns:xodm="http://www.corel.com/coreldraw/odm/2003">
 <defs>
  <style type="text/css">
   <![CDATA[
    .fil1 {fill:#044B4D}
    .fil0 {fill:#044B4D}
    .fil2 {fill:#212A36}
   ]]>
  </style>
 </defs>
 <g id="Слой_x0020_1">
  <metadata id="CorelCorpID_0Corel-Layer"/>
  <path class="fil0" d="M2549.31 2300.35c-42.18,64.75 -42.91,100.45 -122.49,192.61 -38.49,44.57 -181.54,195.29 -233.43,238.39 -85.21,70.76 -169.79,154.24 -260.59,222.93 -227.39,172 -158.39,163.78 -364.29,-2.79 -26.67,-21.58 -54.38,-52.36 -78.88,-76.43 -29.46,-28.95 -47.02,-49.34 -80.92,-80.24 -59.74,-54.46 -165.15,-181.79 -226.91,-250.71 -68.54,-76.51 -150.03,-182.24 -207.38,-270.22 -166.81,-255.88 -220.72,-346 -317.88,-637.6 -72.35,-217.12 -156.12,-591.7 -144.12,-812.47 104.19,-48.26 219.11,-88.24 330.39,-135.42 233.53,-99 563.46,-253.21 764.65,-399.9 33.2,-24.21 103.92,-90.67 135.83,-102.66 72.22,41.76 140.51,95.03 213.32,138.59 127.63,76.36 632.11,309.88 739.55,311.89 -39.19,-10.54 -325.79,-157.94 -376.61,-185.18 -130.44,-69.93 -247.7,-138.17 -358.15,-215.1 -28.2,-19.65 -51.7,-37.75 -78.64,-58.67 -121.54,-94.41 -139.35,-125.92 -273.54,-18.37 -225.58,180.79 -682.95,346.85 -967.45,459.49 -59.78,23.67 -159.44,53.05 -205.9,80.63 -65.36,38.81 -76.75,113.7 -71.37,209.04 14.9,263.94 51.1,477.73 130.71,728.24 150.36,473.13 346.5,731.32 635.1,1072.47 90.05,106.45 181.43,195.36 286.66,286.65 35.07,30.42 281.55,239.91 339.6,219.26 42.65,-15.17 134.98,-94.16 167.24,-120.24 50.87,-41.11 103.96,-92.86 150.23,-136.35 100.87,-94.84 188.04,-186.25 277.35,-295.8 56.52,-69.34 181.95,-237.96 200.34,-337.64 1.48,-7.99 1.82,-4.42 1.1,-13.27 -1.25,-15.15 1.77,-3.32 -3.52,-11.13z"/>
  <path class="fil1" d="M1786.86 924.75c132.85,-28.86 241.44,34.44 292.45,100.88 63.66,82.9 89.21,168.55 103.37,297.29 74.65,678.49 -589.95,748.2 -643.33,158.29 -22.33,-246.74 33.22,-509.91 247.51,-556.46zm33.83 -79.01c-308.03,26.79 -459.06,271.25 -443.72,599.56 13.9,297.33 206.3,538.33 533.02,505.7 304.56,-30.42 445.12,-272.37 435.8,-601.43 -8.34,-294.93 -214.17,-530.87 -525.1,-503.83z"/>
  <path class="fil1" d="M2505.4 895.93c15.59,31.18 91.16,38.57 120.71,48.41 10.08,53.85 10.21,852.89 0.21,906.93 -7.41,4.25 -106.66,33.79 -120.03,38.38l0.03 44.37 388.61 -0.14 0.36 -40.82c-32.28,-23.51 -81.66,-26.38 -102.06,-34.75l-15.84 -9.6c-5.94,-9.46 -12.62,-870.36 -1.42,-897.72l118.93 -44.13 -0.37 -43.6 -385.04 -0.42 -4.09 33.09z"/>
  <path class="fil1" d="M825.95 904.73l120.75 41.07c8,42.67 6.55,879.11 -0.91,907.99 -47.82,13.83 -73.37,14.86 -117.84,37.48l-1.96 40.44 389.11 2.12 -0.2 -42.67c-28.78,-14.29 -105.11,-27.9 -120.5,-42.63 -8.35,-53.98 -5.19,-879.15 1.96,-900.49 25.95,-18.28 108.15,-21.69 119.47,-52.06l0.62 -29.92 -387.31 -3.23 -3.19 41.9z"/>
  <path class="fil1" d="M1572.54 2030.24l17.38 17.88c59.22,8.34 171.33,55.84 224.5,78.4 137.87,58.47 329.87,152.1 467.11,107.79 34.18,-11.04 169.36,-86.2 173.48,-126.3 -30.82,-15.03 -103.24,31.61 -238.05,15.42 -136.36,-16.38 -283.29,-76.74 -417.73,-107.01 -35.93,-8.08 -82.51,-13.84 -121.62,-14.27 -62.73,-0.68 -66.12,0.74 -105.07,28.09z"/>
  <path class="fil2" d="M1651.43 1366.1c0.62,34.7 -0.93,70.68 -1.14,105.69 -0.21,35.88 -0.05,71.79 -0.13,107.7 -0.01,7.41 -0.33,18.8 2.72,23.62 3.54,5.6 11.86,7.85 18.74,4.57 7.06,-3.36 7.42,-9.78 8.05,-18.3l6.98 -100.51c0.85,-10.18 -0.94,-16.86 3.89,-23.94l2.35 4.98c1.98,8.28 6.42,83.43 7.25,92.88 0.96,11.02 1.09,38.91 8.59,43.88 6.81,4.51 16.29,1.02 19.83,-3.73 4.1,-5.49 2.52,-16.47 2.63,-24.55 0.49,-35.26 -1.35,-71.67 -0.39,-106.6 0.98,-35.85 -1.7,-70.05 -0.41,-105.76 5.42,3.11 28.38,28.79 36.86,37.01 17.13,16.59 8.42,7.47 12.24,25.19 1.34,6.24 1.76,4.17 4.75,7.32 8.46,8.91 -11.72,12.93 28.02,44.22 0.53,23.97 0.14,48.24 0.26,72.24 0.06,12.09 0.15,24.18 0.19,36.27 0.07,17.97 -2.41,20.71 17.11,20.04 3.93,-14.56 3.93,-44.52 11.55,-54.96 10.39,14.24 -0.35,66.03 22.03,54.62 5.36,-2.74 4.19,-13.98 4.19,-21.9 0.03,-35.23 -0.39,-70.72 0.03,-105.92 7.51,-5.95 17.01,-12.03 22.19,-22.46l7.49 -14.67c2.56,-6.34 3.27,-11.16 4.56,-18.51 1.31,-7.47 11.17,-8.83 24.7,-20.26 5.22,-4.41 20.32,-18.65 25.84,-20.87 -4.44,17.87 -11.34,35.52 -15.95,53.57 -3.15,12.32 -16.25,44.56 -17.31,52.63 14.48,-2.43 23.2,-2.05 38.28,-1.8 0.38,18.52 -0.51,37.86 -0.63,56.53l-0.23 41.59c-0.62,3.94 -2.73,5.94 -5.25,8.66 1.95,3.54 16.69,20.2 27.34,12.3 8.78,-6.51 7.67,-27.05 8.56,-38.39 1.07,-13.65 3.52,-78.27 10.21,-83.52 6.66,10.67 7.74,74.02 9.93,95.71 1.19,11.64 -0.29,23.04 9.47,26.78 10.86,4.17 19.71,-2.54 20.11,-13.62 1.02,-28.63 -2.12,-86.41 0.41,-106.3l37.16 -0.21c-0.45,-8.36 -19.05,-75.14 -22.63,-88.62 -2.53,-9.55 -6.26,-21.74 -7.53,-30.86 11.87,7 33.16,43.57 40.38,59.32 37.62,2.28 18.13,-28.47 8.82,-44.98 -18.53,-32.85 -44.04,-66.37 -71.4,-88.98 -7.98,-6.59 -19.17,-9.61 -31,-7.86 -25.73,3.79 -39.01,35.66 -58.62,62.2 -11.63,15.74 -23.97,28.72 -36.78,43.5 -6.63,7.64 -10.18,15.44 -12.45,26.65 -0.7,3.45 -0.74,5.54 -1.61,8.38 -3.44,11.32 -3.07,12.86 -10.93,20.11 -8.91,8.2 -11.02,12.43 -28.25,13.18 -6.67,0.3 -13.59,0.31 -18.26,-2.19 -40.83,-21.79 -19.16,-51.4 -31.71,-69.44 -3.19,-4.58 -5.85,-6.53 -9.31,-10.54 -29.9,-34.69 -32.34,-38.16 -58.27,-82.43 -4.84,-8.28 -11.07,-14.17 -22.86,-16.38 -12.25,-2.29 -23.57,-0.07 -32.89,5.83 -31.01,19.62 -72.78,114.53 -71.38,127.94 1.14,10.84 18.01,15.98 25.16,7.19 4.15,-5.11 18.23,-48.59 28.45,-53.24z"/>
  <path class="fil0" d="M1703.6 1194.03c-12.02,3.84 -17.24,7.79 -22.78,17.32 -5.48,9.44 -7.16,21.33 -4.06,32.81 13.24,49.08 91.06,29.63 77.06,-23.19 -4.85,-18.28 -26.94,-34.38 -50.22,-26.94z"/>
  <path class="fil0" d="M1975.1 1197.62c-11.5,4.91 -16.42,6.88 -22.65,17.07 -18.1,29.62 8.07,71.9 46.28,59.57 22.5,-7.25 33.7,-31.79 26.5,-50.19 -8.01,-20.46 -32.82,-33.85 -50.13,-26.45z"/>
  <path class="fil0" d="M1831.62 1397.06c-12.55,5.21 -23.05,19.72 -16.34,37.21 4.02,10.48 20.9,22.82 36.3,15.68 1.96,-0.91 6.3,-3.97 7.93,-5.18 25.18,-18.71 1.31,-59.83 -27.89,-47.71z"/>
 </g>
</svg>
