<?xml version="1.0" encoding="UTF-8"?>
<!DOCTYPE svg PUBLIC "-//W3C//DTD SVG 1.1//EN" "http://www.w3.org/Graphics/SVG/1.1/DTD/svg11.dtd">
<!-- Creator: CorelDRAW 2021 (64-Bit) -->
<svg xmlns="http://www.w3.org/2000/svg" xml:space="preserve" width="26.4582mm" height="15.8748mm" version="1.1" style="shape-rendering:geometricPrecision; text-rendering:geometricPrecision; image-rendering:optimizeQuality; fill-rule:evenodd; clip-rule:evenodd"
viewBox="0 0 2645.82 1587.48"
 xmlns:xlink="http://www.w3.org/1999/xlink"
 xmlns:xodm="http://www.corel.com/coreldraw/odm/2003">
 <defs>
  <style type="text/css">
   <![CDATA[
    .fil0 {fill:#1B2531}
   ]]>
  </style>
 </defs>
 <g id="Слой_x0020_1">
  <metadata id="CorelCorpID_0Corel-Layer"/>
  <g id="_2182529294784">
   <path class="fil0" d="M910.69 923.55c-6.26,-7.62 -14.97,-26.25 -19.55,-35.07 -48.42,-93.18 -67.8,-210.86 -50.97,-316.18 10.07,-63.06 28.21,-112.68 54.59,-162.75 17.55,-33.31 42.06,-68.97 66.16,-97.19 8.94,-10.47 16.9,-18.38 24.91,-28.31 -14.6,5.6 -56.95,45.89 -71.43,60.65 -7.41,7.56 -12.75,13.72 -20.43,22.96 -24.75,29.76 -51.37,68.15 -69.36,106.58 -19.9,42.49 -35.04,79.26 -46.5,129.45 -10.7,46.85 -15.93,109.34 -10.66,160.75 8.46,82.56 24.74,136.34 58.41,205.39 45.08,92.46 123.88,173.56 213.73,225.2 17.27,9.93 40.53,21.71 58.72,29.2 20.2,8.31 42.64,16.79 64.79,22.97 178.97,49.88 368.8,8.05 506.97,-111.43l22.4 -21.01c59,-51.41 109.11,-136.22 137.02,-213.93 9.79,-27.25 34.87,-120.02 29.35,-144.54 -28.54,94.58 -54.73,163.62 -119.55,236.16 -35.02,39.19 -73.62,73.31 -121.29,101.49 -4.32,2.55 -9.97,6.55 -14.35,8.76 -26.43,13.34 -45.16,23.48 -75.19,34.5 -11.09,4.08 -20.71,7.32 -33.28,11.19 -11.23,3.46 -24.14,6.43 -35.76,8.83 -147.77,30.53 -303.35,-2.36 -420.68,-93.95 -7.56,-5.9 -43.2,-33.75 -46.51,-42.84 74.06,-1.17 135.19,16.19 200.94,30.12 90.71,19.22 111.4,28.05 185.09,-14.64 25.49,-14.76 49.42,-26.48 74.84,-40.63 34.36,-19.14 122.72,-64.08 147.81,-80.66 42.78,-28.29 4.09,-52.88 -29.06,-47.28 -2.62,14.55 4.1,36.79 -19.01,54.03 -27.8,20.73 -55.29,2.6 -55.85,2.54 -3.77,-0.42 -14.26,12.44 -37.35,6.5 -12.79,-3.29 -21.4,-10.92 -28.93,-17.84 -3.41,0.3 -48.34,14.48 -51.48,17 5.15,12.53 26.76,30.7 16.77,48.77 -21.7,39.27 -144.46,26.6 -179.52,21.3 3.57,-2.8 5.85,-2.29 10.79,-2.65 4.15,-0.3 7.41,-0.81 11.42,-1.03 32.83,-1.79 132.48,3.75 142.54,-27.93 5.39,-16.95 -9.12,-24.44 -19.19,-29.24 -13.54,-6.45 -22.24,-8.16 -39.91,-7.65 -28.84,0.81 -27.04,-7.58 -40.16,-9.44l-40.99 -6.72c-0.02,0 -24.07,28.26 -58.28,11.1 -7.1,-3.57 -9.41,1.32 -18,3.88 -27.01,8.05 -54.85,-6.88 -60.85,-39.25 -39.14,-4.29 -109.93,11.07 -148.47,21.69 -11.32,3.11 -34.52,10.28 -44.69,11.15z"/>
   <path class="fil0" d="M1390.6 153.96l-47.69 0 -47.58 5.89c-40.83,6.2 -88.68,21.46 -124.64,38.08 -134.15,62 -233.08,183.5 -265.93,326.9 -2.05,8.9 -7.05,41.58 -3.17,48.91l16.87 -48.31c18.5,-46.66 43.65,-85.67 73.74,-122.89 34.44,-42.61 86.09,-86.45 146.79,-116.01 263.06,-128.14 581.64,24.02 639.57,319.88 27.99,142.94 -14.53,268.57 -99.01,377.41 -3.27,4.22 -12.47,14.75 -14.24,19.07 9.9,-4.23 42.13,-35.39 49.22,-43.07 46.45,-50.27 81.69,-103.49 105.21,-172.82 34.77,-102.48 34.96,-215.51 -1.75,-317.48 -48.16,-133.75 -150.11,-233.72 -274.19,-282.21 -31.63,-12.37 -75.93,-24.84 -110.57,-28.73 -7.47,-0.84 -38.8,-2.89 -42.63,-4.62z"/>
   <path class="fil0" d="M1137.16 645.93c0.64,36.09 -0.96,73.51 -1.18,109.92 -0.22,37.31 -0.05,74.65 -0.14,112 -0.02,7.72 -0.35,19.55 2.83,24.57 3.68,5.82 12.33,8.17 19.49,4.75 7.34,-3.49 7.71,-10.18 8.37,-19.03l7.26 -104.53c0.89,-10.58 -0.98,-17.54 4.05,-24.9l2.44 5.18c2.06,8.61 6.69,86.77 7.54,96.6 1,11.46 1.14,40.46 8.93,45.63 7.08,4.69 16.95,1.06 20.63,-3.87 4.27,-5.72 2.62,-17.14 2.73,-25.54 0.51,-36.67 -1.39,-74.54 -0.4,-110.86 1.02,-37.29 -1.78,-72.86 -0.43,-109.99 5.64,3.23 29.52,29.94 38.34,38.49 17.81,17.25 8.75,7.76 12.72,26.2 1.4,6.49 1.84,4.33 4.94,7.61 8.8,9.26 -12.18,13.44 29.15,45.99 0.55,24.92 0.15,50.17 0.27,75.13 0.07,12.57 0.15,25.14 0.2,37.72 0.08,18.69 -2.51,21.54 17.79,20.84 4.09,-15.14 4.08,-46.3 12.01,-57.16 10.81,14.81 -0.36,68.68 22.91,56.81 5.58,-2.85 4.36,-14.54 4.37,-22.77 0.02,-36.65 -0.42,-73.56 0.03,-110.16 7.8,-6.2 17.68,-12.52 23.07,-23.37l7.79 -15.25c2.66,-6.59 3.4,-11.61 4.74,-19.26 1.36,-7.77 11.62,-9.17 25.69,-21.06 5.43,-4.6 21.13,-19.4 26.88,-21.71 -4.62,18.58 -11.81,36.95 -16.6,55.71 -3.27,12.81 -16.89,46.35 -18,54.73 15.07,-2.52 24.13,-2.13 39.82,-1.87 0.39,19.27 -0.53,39.39 -0.66,58.8l-0.24 43.26c-0.64,4.09 -2.83,6.17 -5.46,9 2.03,3.68 17.36,21.01 28.43,12.8 9.14,-6.77 7.98,-28.15 8.91,-39.94 1.11,-14.19 3.66,-81.4 10.61,-86.86 6.93,11.1 8.05,76.99 10.34,99.55 1.23,12.1 -0.31,23.96 9.84,27.85 11.29,4.33 20.51,-2.64 20.92,-14.17 1.06,-29.77 -2.2,-89.86 0.42,-110.55l38.65 -0.22c-0.46,-8.7 -19.81,-78.15 -23.54,-92.17 -2.63,-9.92 -6.51,-22.6 -7.83,-32.09 12.35,7.27 34.49,45.31 42,61.7 39.13,2.36 18.86,-29.62 9.17,-46.79 -19.27,-34.16 -45.8,-69.03 -74.25,-92.53 -8.31,-6.86 -19.94,-10 -32.25,-8.18 -26.75,3.95 -40.57,37.09 -60.96,64.68 -12.1,16.37 -24.92,29.87 -38.26,45.24 -6.89,7.96 -10.58,16.07 -12.94,27.73 -0.72,3.58 -0.78,5.76 -1.67,8.71 -3.58,11.78 -3.21,13.38 -11.38,20.91 -9.25,8.54 -11.45,12.93 -29.38,13.71 -6.93,0.31 -14.12,0.32 -18.98,-2.27 -42.47,-22.67 -19.93,-53.46 -32.98,-72.22 -3.32,-4.77 -6.08,-6.79 -9.68,-10.97 -31.1,-36.07 -33.64,-39.68 -60.6,-85.73 -5.04,-8.6 -11.52,-14.74 -23.78,-17.03 -12.74,-2.38 -24.52,-0.07 -34.21,6.07 -32.24,20.4 -75.69,119.11 -74.23,133.05 1.18,11.28 18.73,16.62 26.17,7.48 4.31,-5.31 18.96,-50.54 29.58,-55.37z"/>
   <path class="fil0" d="M1191.42 466.97c-12.5,4 -17.93,8.11 -23.69,18.02 -5.7,9.81 -7.45,22.17 -4.23,34.12 13.77,51.05 94.7,30.82 80.15,-24.11 -5.05,-19.02 -28.02,-35.76 -52.23,-28.03z"/>
   <path class="fil0" d="M1473.79 470.71c-11.97,5.1 -17.09,7.15 -23.56,17.75 -18.82,30.81 8.39,74.78 48.13,61.96 23.39,-7.55 35.05,-33.07 27.56,-52.21 -8.33,-21.27 -34.13,-35.2 -52.13,-27.5z"/>
   <path class="fil0" d="M1324.56 678.13c-13.04,5.42 -23.97,20.51 -16.99,38.7 4.18,10.9 21.74,23.73 37.74,16.31 2.05,-0.95 6.56,-4.14 8.25,-5.4 26.2,-19.45 1.37,-62.21 -29,-49.61z"/>
  </g>
  <g id="_2182529289504">
   <path class="fil0" d="M276.89 1112.66c6.5,-13.05 12.42,-22.77 21.46,-32.15 47.55,-49.33 68.5,-26.77 124.17,-29.13 -3.56,10.05 -14.82,26.42 -20.5,34.09 -26.11,35.29 -76.81,43.11 -116.01,31.27 9.89,-10.89 47.11,-30.31 54.62,-37.05 -19.44,5.38 -48,24.13 -63.74,32.97zm-55.6 14.73c-9.78,-5.4 -21.59,-21.74 -27.85,-33.92 -15.16,-29.45 -11.26,-76.79 -4.04,-108.55 2.39,-10.52 10.54,-39.57 14.99,-46.83l11.89 21.87c13.69,22.94 27.3,33.32 34.25,63.1 8.51,36.45 -4.99,75.23 -20.42,101.8 -1.82,-10.69 -1.71,-23.1 -3.11,-34.2 -4.35,-34.45 -10.92,-57.35 -12.64,-96.74 -8.78,12.34 10.63,92.92 6.93,133.47zm143.87 -223.54c0,-36.73 11.13,-69.23 43.1,-86.85 7.28,32.96 41.13,56.03 21.3,96 -13.43,27.05 -47.82,50.16 -73.56,53.39 3.4,-6.13 11.78,-11.54 17.07,-17.84 14.24,-16.94 31.21,-43.33 34.33,-66.64l-9.52 19.45c-7.07,13.63 -24.98,41.17 -35.41,46.67l2.69 -44.18zm-77.87 73.71c-13.81,-7.55 -31.68,-25.37 -41.6,-36.31 -24.07,-26.54 -43.11,-77.42 -26.43,-113.18 6.4,-13.73 23.92,-32.24 41.78,-35.32 -8.17,49.23 -6.49,41.37 15.96,86.51 14.4,28.96 20.91,54.15 15.33,91.41 -3.09,-3.95 -4.35,-11.22 -6.37,-16.39 -11.41,-29.36 -24.1,-36.75 -34.35,-74.98 -2.42,-9 -3.35,-33.39 -6.03,-38.39 -10.34,55.38 37.04,97.56 41.71,136.65zm95.01 -202.33c-0.34,-10.8 23.74,-42.15 29.39,-48.11 51.02,-53.72 54,-35.45 92.86,-61.81 19.93,-13.52 40.9,-36.16 41.34,-36.42 4.2,24.01 12.75,41.9 1.91,67.69 -23.33,55.54 -101.24,67.89 -153.92,77.62 25.12,-22.11 113.96,-53.66 124.91,-82.08 -6.24,3.01 -10.27,7.68 -15.69,11.77 -42.31,32.02 -84.33,39.21 -120.8,71.34zm-27.44 -105.68c5.59,-25.75 29.87,-51.18 45.98,-62.64 15.15,-10.78 60.29,-29.67 75.85,-31.35 0.3,35.62 -20.09,63.05 -39.82,75.42 -17.87,11.2 -59.12,27 -82.33,33.04 4.7,-16.01 30,-33.97 43.53,-43.84l37.36 -26.67c4.91,-3.82 8.89,-5.3 10.23,-10.81 -6.69,2.23 -17.87,10.64 -24.82,14.9 -18.23,11.19 -43.23,26.12 -56.74,41.95l-9.24 10zm-103.96 65.11c-19.63,-12.67 -35.81,-26.25 -47.92,-46.75 -25.15,-42.6 -14.4,-105.72 6.04,-150.12l2.04 -3.44c11.42,20.43 -2.14,14.92 35.36,59.48l22.78 25.21c39.91,44.89 65.58,102.72 63.36,173.2l-5.44 -7.13c-45.6,-72.32 -112.89,-121.46 -112.26,-220.18 -7.66,12.2 2.04,52.23 6.69,65.81 5.97,17.4 16.2,36.64 24.98,50.99 16.6,27.16 57.18,75.88 64.47,88.5l-60.1 -35.57zm44.24 -262.94c-2.52,-5.21 -10.67,-18.61 -11.52,-21.81l16.82 45.88c9.46,29.39 32.49,128.95 33.73,157.37 -3.81,-2.98 -12.13,-19.34 -23.67,-31.42 -49.42,-51.77 -77.13,-109.01 -86.33,-183.11l-12.42 -96.93c6.08,1.91 15.8,8.36 21.83,11.63 51.24,27.83 107.47,40.03 130.44,92.19 19.88,45.14 3.23,114.55 -8.11,163.19 -3.83,16.43 -6.69,36.39 -9.32,53.7 -3.23,-8.29 -6.86,-46.61 -9.35,-59.47 -9.18,-47.44 -21.34,-88.28 -42.1,-131.22zm47.76 296.12l-1.6 42.08c-10.8,-7.33 -2.04,-50.77 -11.8,-91.27 -10.7,-44.37 -29.8,-69.65 -55.38,-101.87 -7.75,-9.76 -17.64,-18.18 -25.47,-27.86 -3.8,-4.7 -7.83,-9.08 -11.58,-13.79 -4.31,-5.41 -7.12,-9.32 -10.9,-15.74 -8.21,-13.95 -9.79,-23.08 -13.98,-39.67 -4.84,6.01 -21.09,52.8 -23.62,62.88 -12.13,48.16 -5.39,101.31 30.25,134.81 26.62,25.02 56.74,34.11 80.52,51.49 10.35,7.57 14.79,12.33 22.32,21.67 17.53,21.73 18.52,35.26 12.69,68.43 -3.66,20.8 -29.6,131.09 -39.29,136.83 -2.23,-6.73 5.16,-43.48 4.77,-57.31 -1.95,-68.87 -48.71,-80.16 -35.58,-136.23 1.03,-4.36 2.34,-8.36 1.18,-12.61 -3.21,-11.78 -67.67,20.69 -58.25,76.82 5.96,35.54 19.87,71.32 48.66,93.89 39.32,30.82 42.33,36.83 18.49,92.06 -7.22,16.73 -14.61,32.43 -21.92,48.77 -3.63,8.1 -7.71,15.98 -11.64,24.34 -3.6,7.63 -6.8,18.66 -13.13,24.41 0.57,-17.07 15.31,-38.26 21.71,-55.85 15.71,-43.22 10.83,-80.21 -15.83,-116.74 -8.35,-11.44 -16.28,-22.12 -22.23,-35.06 -2.16,-4.69 -3.26,-10.66 -6.9,-13.29 -4.88,2.92 -8.22,18.45 -10.19,24.61 -9.39,29.43 -17.83,55.12 -17.85,87.55 -0.01,18.15 1.33,38.26 8.28,53.06 3.45,7.32 7.12,13.62 11.89,18.83 23.64,25.77 28.38,15.53 17.48,62.99 -14.95,65.03 -0.21,77.89 -39.9,84.32 -17.41,2.82 -36.61,6 -54.06,8.15l-80.17 11.95c-6.7,1.02 -14.73,0.93 -21.15,3.13 -4.9,1.68 -3.24,-1.62 -3.22,3.67l582.24 0c-0.24,-4.67 1.01,-2.86 -5.85,-4.12 -23.62,-4.34 -47.83,-6.29 -71.52,-10 -112.52,-17.63 -114.18,-1.51 -119.49,-65.43 -2.4,-28.89 -4.93,-57.55 -7.2,-86.56 -5.74,2.25 -11.18,6.48 -17.41,9.22 -26.14,11.54 -45.88,8.51 -72.33,3.69 -0.05,21.94 1.94,88.72 -0.38,105.28 -1.78,12.67 -14.44,24.12 -29.83,22.24 -14.92,-1.81 -23.79,-13.65 -23.79,-29.75l0 -77.33c0,-6.77 10.99,-17.86 14.61,-21.18 8.72,-8.03 10.26,-10.31 26.54,-8.56 25.74,2.74 38.02,7.91 64.5,-0.39 28.55,-8.95 47.37,-27.03 59.26,-51.41 2.18,-4.47 3.89,-8.09 6.35,-12.32 1.04,-1.81 2.49,-3.86 3.62,-5.91 0.21,-0.39 1.17,-2.47 1.17,-2.49l-0.1 -2.37c-0.42,-3.66 -24.14,-2.26 -28.65,-2.69 -33,-3.2 -45.92,-12.51 -79.03,7.76 -18.92,11.6 -34.22,31.13 -43.25,51.45 -4.14,9.33 -4.8,16.09 -13.68,19.56l39.41 -92.51c8.61,-22.49 8.44,-27.81 23.58,-41.76 18.82,-17.36 13.81,-14.64 43.46,-23.21 49.02,-14.17 95.36,-60.4 64.14,-113.47 -4.23,-7.21 -9.31,-13.39 -13.17,-20.15 -5.72,-10.03 -4.59,-18.31 -7.82,-25.2l-17.87 14.76c-54.95,49.48 -18.43,118.13 -53.97,146.04 -3.1,2.44 -6.36,4.42 -10.13,7.21 -3.17,2.36 -6.21,5.66 -9.65,7.32l16.98 -58.6c8.06,-30.75 14.17,-63.87 17.21,-96.17 1.72,-18.23 1.13,-16.91 10.34,-28.34 14.33,-17.8 22.1,-20.62 51.97,-25.39 55.62,-8.87 128.31,-29.9 140.69,-87.29 3.38,-15.67 -0.19,-55.6 -9.37,-65.46 -4.64,2.13 -23.9,25.79 -50.76,41.33 -11.29,6.54 -19.79,9.32 -32.12,14.53 -13.11,5.53 -19.12,10.03 -29.31,17.36 -31.25,22.48 -42.56,46.65 -58.52,80.13 -2.45,5.13 -17.17,23.95 -20.73,25.27l-1.57 -62.5c-0.72,-12.64 -3.98,-29.07 -3.95,-40.35 0.04,-11.38 16.4,-14.08 25.08,-16.86 29.51,-9.45 67.45,-22.75 84.99,-45.71 8.34,-10.91 28.2,-55.21 18.38,-64.62 -2.63,-2.23 -4.56,-0.87 -8.89,0.62 -23.32,7.95 -49.39,14.54 -69.51,27.98 -12.72,8.49 -19.78,15.52 -29,27.02 -4.33,5.41 -7.5,10.61 -10.99,17 -2.17,3.96 -6.57,15.32 -8.87,18.32 -4.75,-45.02 56.52,-160.73 11.54,-232.58 -18.07,-28.87 -42.35,-43.39 -78.97,-59.7 -71.79,-31.97 -83.82,-54.66 -78.7,-19.86 13.1,88.96 9.95,154.16 54.69,222.55 23.67,36.18 45.62,53.45 61.64,77.03 22.2,32.71 21.2,71.8 21.39,117.12z"/>
   <path class="fil0" d="M15.14 173.15c11.5,4.82 163.93,20.97 176.71,25.86 14.63,5.6 15.85,14.82 18.41,32.17 4.96,33.64 4.84,64.37 8.66,92.66 1.4,10.43 21.74,19.53 31,21.51 0.09,-31.17 0.02,-62.36 0.02,-93.54 0,-13.65 -2.31,-31.68 3.87,-42.57 4.81,-8.5 17.61,-17.06 32.61,-11.48 24.54,9.12 17.51,45.68 17.51,75.39 0,31.56 -0.02,63.12 0,94.67 0.53,1.77 25.64,15.33 36.51,23.95 12,9.53 29.92,31.23 38.36,44.32 2.77,4.33 5.02,9.43 7.86,13.06 3.07,-38.22 3.29,-77.59 5.87,-115.99 2.35,-34.91 4.63,-77.52 9.91,-111.56 2.98,-19.23 14.57,-22.64 34.16,-25.63 17.43,-2.67 36.48,-5.41 53.62,-7.38 15.48,-1.78 99.05,-11.86 107.37,-15.45l0.54 -7.09 -583.29 -0.01 0.3 7.11z"/>
   <path class="fil0" d="M334.17 653.16c-1.24,-28.42 -24.27,-127.98 -33.73,-157.37l-16.82 -45.88c0.85,3.2 9,16.6 11.52,21.81 20.76,42.94 32.92,83.78 42.1,131.22 2.49,12.86 6.12,51.18 9.35,59.47 2.63,-17.31 5.49,-37.27 9.32,-53.7 11.34,-48.64 27.99,-118.05 8.11,-163.19 -22.97,-52.16 -79.2,-64.36 -130.44,-92.19 -6.03,-3.27 -15.75,-9.72 -21.83,-11.63l12.42 96.93c9.2,74.1 36.91,131.34 86.33,183.11 11.54,12.08 19.86,28.44 23.67,31.42z"/>
   <path class="fil0" d="M311 770.23c-7.29,-12.62 -47.87,-61.34 -64.47,-88.5 -8.78,-14.35 -19.01,-33.59 -24.98,-50.99 -4.65,-13.58 -14.35,-53.61 -6.69,-65.81 -0.63,98.72 66.66,147.86 112.26,220.18l5.44 7.13c2.22,-70.48 -23.45,-128.31 -63.36,-173.2l-22.78 -25.21c-37.5,-44.56 -23.94,-39.05 -35.36,-59.48l-2.04 3.44c-20.44,44.4 -31.19,107.52 -6.04,150.12 12.11,20.5 28.29,34.08 47.92,46.75l60.1 35.57z"/>
   <path class="fil0" d="M382.3 775.23c36.47,-32.13 78.49,-39.32 120.8,-71.34 5.42,-4.09 9.45,-8.76 15.69,-11.77 -10.95,28.42 -99.79,59.97 -124.91,82.08 52.68,-9.73 130.59,-22.08 153.92,-77.62 10.84,-25.79 2.29,-43.68 -1.91,-67.69 -0.44,0.26 -21.41,22.9 -41.34,36.42 -38.86,26.36 -41.84,8.09 -92.86,61.81 -5.65,5.96 -29.73,37.31 -29.39,48.11z"/>
   <path class="fil0" d="M221.29 1127.39c3.7,-40.55 -15.71,-121.13 -6.93,-133.47 1.72,39.39 8.29,62.29 12.64,96.74 1.4,11.1 1.29,23.51 3.11,34.2 15.43,-26.57 28.93,-65.35 20.42,-101.8 -6.95,-29.78 -20.56,-40.16 -34.25,-63.1l-11.89 -21.87c-4.45,7.26 -12.6,36.31 -14.99,46.83 -7.22,31.76 -11.12,79.1 4.04,108.55 6.26,12.18 18.07,28.52 27.85,33.92z"/>
   <path class="fil0" d="M287.29 977.56c-4.67,-39.09 -52.05,-81.27 -41.71,-136.65 2.68,5 3.61,29.39 6.03,38.39 10.25,38.23 22.94,45.62 34.35,74.98 2.02,5.17 3.28,12.44 6.37,16.39 5.58,-37.26 -0.93,-62.45 -15.33,-91.41 -22.45,-45.14 -24.13,-37.28 -15.96,-86.51 -17.86,3.08 -35.38,21.59 -41.78,35.32 -16.68,35.76 2.36,86.64 26.43,113.18 9.92,10.94 27.79,28.76 41.6,36.31z"/>
   <path class="fil0" d="M365.16 903.85l-2.69 44.18c10.43,-5.5 28.34,-33.04 35.41,-46.67l9.52 -19.45c-3.12,23.31 -20.09,49.7 -34.33,66.64 -5.29,6.3 -13.67,11.71 -17.07,17.84 25.74,-3.23 60.13,-26.34 73.56,-53.39 19.83,-39.97 -14.02,-63.04 -21.3,-96 -31.97,17.62 -43.1,50.12 -43.1,86.85z"/>
   <path class="fil0" d="M276.89 1112.66c15.74,-8.84 44.3,-27.59 63.74,-32.97 -7.51,6.74 -44.73,26.16 -54.62,37.05 39.2,11.84 89.9,4.02 116.01,-31.27 5.68,-7.67 16.94,-24.04 20.5,-34.09 -55.67,2.36 -76.62,-20.2 -124.17,29.13 -9.04,9.38 -14.96,19.1 -21.46,32.15z"/>
   <path class="fil0" d="M354.86 669.55l9.24 -10c13.51,-15.83 38.51,-30.76 56.74,-41.95 6.95,-4.26 18.13,-12.67 24.82,-14.9 -1.34,5.51 -5.32,6.99 -10.23,10.81l-37.36 26.67c-13.53,9.87 -38.83,27.83 -43.53,43.84 23.21,-6.04 64.46,-21.84 82.33,-33.04 19.73,-12.37 40.12,-39.8 39.82,-75.42 -15.56,1.68 -60.7,20.57 -75.85,31.35 -16.11,11.46 -40.39,36.89 -45.98,62.64z"/>
   <path class="fil0" d="M304.54 1053.49c17.77,-8.77 29.85,-20.92 59.81,-21.64 9.72,-0.23 16.53,1.83 24.71,2.04l-2.03 -61.95c-8.63,3.42 -17.19,8.7 -27.06,12.84 -10.65,4.47 -20.32,6.1 -28.25,13.05 -11.04,9.69 -27.34,35.45 -27.18,55.66z"/>
   <path class="fil0" d="M229.48 794.64c4.01,-1.95 5.81,-3.87 9.91,-6.48 3.42,-2.18 6.7,-3.33 10.39,-5.65l0.31 -32.05 -20.52 -9.97 -0.09 54.15z"/>
  </g>
  <g id="_2182529287680">
   <path class="fil0" d="M2329.81 1112.97c-6.36,-13.06 -12.15,-22.77 -21,-32.16 -46.5,-49.33 -66.99,-26.77 -121.45,-29.14 3.48,10.05 14.5,26.42 20.06,34.11 25.52,35.28 75.13,43.1 113.47,31.26 -9.67,-10.9 -46.08,-30.32 -53.43,-37.06 19.01,5.4 46.95,24.14 62.35,32.99zm54.37 14.72c9.57,-5.4 21.12,-21.74 27.25,-33.92 14.83,-29.45 11.01,-76.8 3.95,-108.56 -2.33,-10.51 -10.31,-39.56 -14.66,-46.81l-11.63 21.86c-13.39,22.94 -26.71,33.32 -33.51,63.09 -8.32,36.46 4.89,75.24 19.98,101.81 1.78,-10.69 1.67,-23.1 3.04,-34.21 4.25,-34.44 10.69,-57.34 12.36,-96.73 8.59,12.33 -10.38,92.92 -6.78,133.47zm-140.71 -223.54c0,-36.74 -10.89,-69.23 -42.15,-86.85 -7.13,32.95 -40.24,56.03 -20.84,96 13.13,27.05 46.77,50.16 71.95,53.39 -3.32,-6.12 -11.52,-11.54 -16.7,-17.84 -13.92,-16.95 -30.52,-43.33 -33.58,-66.65l9.31 19.45c6.92,13.65 24.44,41.18 34.63,46.68l-2.62 -44.18zm76.16 73.71c13.51,-7.56 30.99,-25.38 40.7,-36.31 23.54,-26.53 42.16,-77.41 25.85,-113.17 -6.26,-13.74 -23.41,-32.25 -40.87,-35.34 7.98,49.25 6.34,41.38 -15.61,86.51 -14.09,28.97 -20.46,54.17 -14.99,91.42 3.01,-3.94 4.25,-11.23 6.22,-16.39 11.16,-29.36 23.57,-36.75 33.61,-74.98 2.35,-9 3.26,-33.39 5.89,-38.4 10.12,55.38 -36.22,97.57 -40.8,136.66zm-92.92 -202.34c0.33,-10.8 -23.22,-42.15 -28.75,-48.11 -49.91,-53.72 -52.82,-35.45 -90.83,-61.8 -19.5,-13.52 -40.01,-36.15 -40.43,-36.42 -4.11,24.01 -12.47,41.9 -1.87,67.69 22.81,55.54 99.02,67.88 150.55,77.63 -24.57,-22.13 -111.47,-53.67 -122.18,-82.08 6.11,3 10.05,7.66 15.34,11.76 41.38,32.01 82.49,39.21 118.17,71.33zm26.83 -105.67c-5.47,-25.75 -29.21,-51.18 -44.97,-62.63 -14.82,-10.79 -58.97,-29.68 -74.2,-31.36 -0.28,35.63 19.66,63.05 38.96,75.42 17.47,11.2 57.83,27.01 80.52,33.03 -4.59,-15.99 -29.35,-33.96 -42.56,-43.83l-36.56 -26.66c-4.8,-3.83 -8.69,-5.32 -10.01,-10.82 6.56,2.23 17.48,10.63 24.28,14.9 17.84,11.19 42.29,26.12 55.5,41.95l9.04 10zm101.68 65.11c19.21,-12.66 35.03,-26.24 46.88,-46.75 24.6,-42.6 14.09,-105.72 -5.91,-150.13l-2 -3.44c-11.17,20.44 2.09,14.92 -34.59,59.5l-22.27 25.2c-39.03,44.9 -64.15,102.72 -61.98,173.2l5.32 -7.12c44.6,-72.33 110.42,-121.48 109.81,-220.18 7.49,12.2 -1.99,52.21 -6.55,65.81 -5.83,17.39 -15.84,36.63 -24.42,50.98 -16.25,27.16 -55.94,75.88 -63.07,88.49l58.78 -35.56zm-43.27 -262.94c2.46,-5.21 10.44,-18.61 11.28,-21.82l-16.46 45.88c-9.26,29.4 -31.78,128.96 -32.99,157.38 3.73,-2.98 11.87,-19.33 23.14,-31.41 48.35,-51.78 75.45,-109.01 84.45,-183.12l12.15 -96.94c-5.94,1.92 -15.45,8.36 -21.35,11.64 -50.12,27.82 -105.12,40.02 -127.6,92.2 -19.43,45.13 -3.14,114.53 7.94,163.17 3.74,16.44 6.55,36.4 9.13,53.72 3.15,-8.31 6.7,-46.62 9.13,-59.47 8.98,-47.45 20.88,-88.29 41.18,-131.23zm-46.71 296.12l1.56 42.08c10.56,-7.33 2,-50.77 11.55,-91.26 10.46,-44.38 29.14,-69.66 54.17,-101.89 7.57,-9.75 17.24,-18.17 24.91,-27.86 3.72,-4.69 7.65,-9.07 11.32,-13.78 4.21,-5.41 6.97,-9.33 10.66,-15.74 8.04,-13.96 9.57,-23.09 13.68,-39.67 4.73,6.01 20.62,52.8 23.1,62.89 11.86,48.14 5.27,101.3 -29.6,134.8 -26.02,25.01 -55.49,34.12 -78.74,51.49 -10.13,7.57 -14.47,12.33 -21.84,21.67 -17.14,21.74 -18.1,35.27 -12.41,68.43 3.57,20.8 28.95,131.09 38.43,136.82 2.18,-6.72 -5.05,-43.47 -4.66,-57.31 1.9,-68.85 47.64,-80.15 34.8,-136.23 -1,-4.36 -2.29,-8.35 -1.15,-12.61 3.13,-11.78 66.19,20.69 56.97,76.83 -5.84,35.54 -19.44,71.33 -47.59,93.89 -38.46,30.82 -41.41,36.83 -18.09,92.06 7.07,16.73 14.29,32.44 21.44,48.77 3.54,8.09 7.54,15.98 11.39,24.33 3.51,7.64 6.65,18.68 12.84,24.42 -0.56,-17.07 -14.98,-38.26 -21.23,-55.85 -15.37,-43.22 -10.61,-80.21 15.47,-116.74 8.17,-11.43 15.92,-22.12 21.75,-35.06 2.11,-4.68 3.18,-10.66 6.75,-13.3 4.77,2.94 8.05,18.46 9.96,24.61 9.19,29.43 17.45,55.14 17.46,87.56 0.01,18.15 -1.29,38.25 -8.1,53.06 -3.37,7.32 -6.95,13.62 -11.63,18.83 -23.12,25.78 -27.76,15.52 -17.09,62.98 14.61,65.05 0.21,77.9 39.03,84.33 17.03,2.82 35.81,6 52.87,8.14l78.41 11.97c6.55,1.01 14.42,0.92 20.69,3.12 4.8,1.67 3.17,-1.63 3.15,3.67l-569.5 0c0.25,-4.67 -0.98,-2.87 5.73,-4.13 23.11,-4.33 46.79,-6.27 69.95,-9.99 110.06,-17.63 111.68,-1.5 116.87,-65.44 2.36,-28.88 4.83,-57.55 7.06,-86.55 5.61,2.26 10.93,6.48 17.02,9.22 25.57,11.53 44.88,8.5 70.75,3.68 0.04,21.95 -1.9,88.74 0.36,105.29 1.75,12.67 14.13,24.12 29.19,22.25 14.59,-1.82 23.27,-13.66 23.27,-29.75l0 -77.35c0,-6.76 -10.76,-17.86 -14.29,-21.18 -8.54,-8.01 -10.05,-10.3 -25.97,-8.56 -25.16,2.75 -37.18,7.91 -63.09,-0.39 -27.92,-8.94 -46.34,-27.02 -57.96,-51.4 -2.13,-4.47 -3.8,-8.09 -6.2,-12.32 -1.03,-1.81 -2.44,-3.87 -3.55,-5.92 -0.21,-0.38 -1.14,-2.46 -1.14,-2.48l0.09 -2.37c0.42,-3.67 23.61,-2.25 28.03,-2.69 32.27,-3.2 44.91,-12.51 77.29,7.77 18.52,11.58 33.48,31.11 42.31,51.43 4.06,9.34 4.7,16.1 13.39,19.57l-38.55 -92.5c-8.43,-22.51 -8.26,-27.82 -23.06,-41.78 -18.41,-17.35 -13.52,-14.64 -42.52,-23.21 -47.95,-14.16 -93.27,-60.4 -62.73,-113.46 4.14,-7.21 9.1,-13.39 12.88,-20.15 5.6,-10.03 4.49,-18.32 7.66,-25.21l17.47 14.77c53.74,49.47 18.03,118.12 52.79,146.05 3.03,2.43 6.22,4.41 9.9,7.21 3.1,2.35 6.08,5.64 9.45,7.31l-16.62 -58.6c-7.89,-30.74 -13.86,-63.87 -16.83,-96.17 -1.67,-18.24 -1.11,-16.92 -10.11,-28.35 -14.02,-17.79 -21.62,-20.61 -50.84,-25.38 -54.4,-8.87 -125.5,-29.9 -137.6,-87.29 -3.31,-15.67 0.18,-55.6 9.16,-65.47 4.54,2.14 23.37,25.81 49.65,41.34 11.04,6.53 19.36,9.33 31.42,14.53 12.82,5.53 18.69,10.03 28.66,17.36 30.57,22.47 41.64,46.65 57.24,80.14 2.39,5.12 16.79,23.95 20.28,25.25l1.53 -62.49c0.71,-12.64 3.9,-29.07 3.86,-40.35 -0.02,-11.37 -16.03,-14.07 -24.52,-16.86 -28.86,-9.46 -65.98,-22.75 -83.14,-45.72 -8.14,-10.9 -27.58,-55.19 -17.97,-64.61 2.57,-2.23 4.46,-0.87 8.7,0.61 22.81,7.97 48.3,14.56 67.98,27.99 12.44,8.49 19.35,15.53 28.36,27.03 4.25,5.4 7.34,10.6 10.76,16.98 2.13,3.97 6.42,15.33 8.68,18.33 4.64,-45.01 -55.29,-160.72 -11.3,-232.58 17.68,-28.87 41.43,-43.39 77.25,-59.7 70.21,-31.97 81.98,-54.67 76.97,-19.86 -12.8,88.96 -9.73,154.15 -53.48,222.54 -23.16,36.19 -44.63,53.46 -60.3,77.04 -21.72,32.7 -20.74,71.8 -20.92,117.12z"/>
   <path class="fil0" d="M2585.83 173.46c-11.26,4.82 -160.34,20.96 -172.85,25.85 -14.31,5.59 -15.5,14.81 -18,32.17 -4.86,33.64 -4.74,64.36 -8.47,92.66 -1.37,10.43 -21.27,19.53 -30.34,21.51 -0.07,-31.17 0,-62.36 0,-93.53 0,-13.65 2.26,-31.69 -3.79,-42.59 -4.72,-8.48 -17.22,-17.06 -31.9,-11.47 -24,9.13 -17.12,45.68 -17.12,75.39 0.01,31.55 0.01,63.11 0,94.67 -0.52,1.77 -25.08,15.33 -35.71,23.95 -11.74,9.52 -29.27,31.22 -37.52,44.33 -2.72,4.31 -4.91,9.43 -7.68,13.05 -3.01,-38.22 -3.23,-77.59 -5.75,-116 -2.3,-34.9 -4.54,-77.51 -9.69,-111.54 -2.92,-19.24 -14.26,-22.65 -33.42,-25.65 -17.05,-2.66 -35.68,-5.4 -52.45,-7.37 -15.13,-1.77 -96.88,-11.86 -105.01,-15.44l-0.53 -7.11 570.51 0 -0.28 7.12z"/>
   <path class="fil0" d="M2273.78 653.46c1.21,-28.42 23.73,-127.98 32.99,-157.38l16.46 -45.88c-0.84,3.21 -8.82,16.61 -11.28,21.82 -20.3,42.94 -32.2,83.78 -41.18,131.23 -2.43,12.85 -5.98,51.16 -9.13,59.47 -2.58,-17.32 -5.39,-37.28 -9.13,-53.72 -11.08,-48.64 -27.37,-118.04 -7.94,-163.17 22.48,-52.18 77.48,-64.38 127.6,-92.2 5.9,-3.28 15.41,-9.72 21.35,-11.64l-12.15 96.94c-9,74.11 -36.1,131.34 -84.45,183.12 -11.27,12.08 -19.41,28.43 -23.14,31.41z"/>
   <path class="fil0" d="M2296.44 770.52c7.13,-12.61 46.82,-61.33 63.07,-88.49 8.58,-14.35 18.59,-33.59 24.42,-50.98 4.56,-13.6 14.04,-53.61 6.55,-65.81 0.61,98.7 -65.21,147.85 -109.81,220.18l-5.32 7.12c-2.17,-70.48 22.95,-128.3 61.98,-173.2l22.27 -25.2c36.68,-44.58 23.42,-39.06 34.59,-59.5l2 3.44c20,44.41 30.51,107.53 5.91,150.13 -11.85,20.51 -27.67,34.09 -46.88,46.75l-58.78 35.56z"/>
   <path class="fil0" d="M2226.71 775.52c-35.68,-32.12 -76.79,-39.32 -118.17,-71.33 -5.29,-4.1 -9.23,-8.76 -15.34,-11.76 10.71,28.41 97.61,59.95 122.18,82.08 -51.53,-9.75 -127.74,-22.09 -150.55,-77.63 -10.6,-25.79 -2.24,-43.68 1.87,-67.69 0.42,0.27 20.93,22.9 40.43,36.42 38.01,26.35 40.92,8.08 90.83,61.8 5.53,5.96 29.08,37.31 28.75,48.11z"/>
   <path class="fil0" d="M2384.18 1127.69c-3.6,-40.55 15.37,-121.14 6.78,-133.47 -1.67,39.39 -8.11,62.29 -12.36,96.73 -1.37,11.11 -1.26,23.52 -3.04,34.21 -15.09,-26.57 -28.3,-65.35 -19.98,-101.81 6.8,-29.77 20.12,-40.15 33.51,-63.09l11.63 -21.86c4.35,7.25 12.33,36.3 14.66,46.81 7.06,31.76 10.88,79.11 -3.95,108.56 -6.13,12.18 -17.68,28.52 -27.25,33.92z"/>
   <path class="fil0" d="M2319.63 977.86c4.58,-39.09 50.92,-81.28 40.8,-136.66 -2.63,5.01 -3.54,29.4 -5.89,38.4 -10.04,38.23 -22.45,45.62 -33.61,74.98 -1.97,5.16 -3.21,12.45 -6.22,16.39 -5.47,-37.25 0.9,-62.45 14.99,-91.42 21.95,-45.13 23.59,-37.26 15.61,-86.51 17.46,3.09 34.61,21.6 40.87,35.34 16.31,35.76 -2.31,86.64 -25.85,113.17 -9.71,10.93 -27.19,28.75 -40.7,36.31z"/>
   <path class="fil0" d="M2243.47 904.15l2.62 44.18c-10.19,-5.5 -27.71,-33.03 -34.63,-46.68l-9.31 -19.45c3.06,23.32 19.66,49.7 33.58,66.65 5.18,6.3 13.38,11.72 16.7,17.84 -25.18,-3.23 -58.82,-26.34 -71.95,-53.39 -19.4,-39.97 13.71,-63.05 20.84,-96 31.26,17.62 42.15,50.11 42.15,86.85z"/>
   <path class="fil0" d="M2329.81 1112.97c-15.4,-8.85 -43.34,-27.59 -62.35,-32.99 7.35,6.74 43.76,26.16 53.43,37.06 -38.34,11.84 -87.95,4.02 -113.47,-31.26 -5.56,-7.69 -16.58,-24.06 -20.06,-34.11 54.46,2.37 74.95,-20.19 121.45,29.14 8.85,9.39 14.64,19.1 21,32.16z"/>
   <path class="fil0" d="M2253.54 669.85l-9.04 -10c-13.21,-15.83 -37.66,-30.76 -55.5,-41.95 -6.8,-4.27 -17.72,-12.67 -24.28,-14.9 1.32,5.5 5.21,6.99 10.01,10.82l36.56 26.66c13.21,9.87 37.97,27.84 42.56,43.83 -22.69,-6.02 -63.05,-21.83 -80.52,-33.03 -19.3,-12.37 -39.24,-39.79 -38.96,-75.42 15.23,1.68 59.38,20.57 74.2,31.36 15.76,11.45 39.5,36.88 44.97,62.63z"/>
   <path class="fil0" d="M2302.76 1053.78c-17.39,-8.77 -29.2,-20.92 -58.51,-21.63 -9.5,-0.23 -16.16,1.83 -24.17,2.03l2 -61.95c8.44,3.43 16.8,8.7 26.47,12.85 10.41,4.48 19.87,6.1 27.62,13.06 10.8,9.68 26.74,35.44 26.59,55.64z"/>
   <path class="fil0" d="M2376.18 794.93c-3.93,-1.93 -5.69,-3.86 -9.7,-6.47 -3.34,-2.18 -6.55,-3.33 -10.16,-5.65l-0.3 -32.04 20.07 -9.97 0.09 54.13z"/>
  </g>
  <path class="fil0" d="M1446.64 1110.02l-143.88 0c10.94,2.16 22,4.77 33.06,7.88 19.16,5.21 42.08,12.54 68.78,21.6 26.7,9.06 57.16,20.44 91.12,34.32 33.95,13.7 73.7,30.66 118.97,50.72 25.54,11.37 48.77,21.01 70.23,28.92 21.19,8.1 41.22,14.47 59.78,19.67 18.88,5.02 36.85,8.87 54.56,10.99 17.42,2.32 37.14,3.47 58.62,3.47 35.7,0 73.13,-5.4 112.6,-16.2 39.45,-10.78 90.1,-44.1 112.19,-54.02 0.66,-0.49 12.34,-6.77 10.56,-17.71 -28.72,7.52 -55.43,13.5 -79.8,17.74 -24.38,4.44 -49.34,6.56 -74.88,6.56 -20.59,0 -41.48,-1.16 -62.96,-3.66 -21.48,-2.51 -44.12,-5.98 -67.33,-10.23 -23.22,-4.43 -49.05,-10.22 -77.49,-17.35 -28.14,-7.14 -59.78,-16.19 -94.3,-27.19 -30.47,-9.44 -61.81,-18.9 -93.45,-28.34 -31.66,-9.56 -63.59,-18.56 -96.38,-27.17z"/>
 </g>
</svg>
