<?xml version="1.0" encoding="UTF-8"?>
<!DOCTYPE svg PUBLIC "-//W3C//DTD SVG 1.1//EN" "http://www.w3.org/Graphics/SVG/1.1/DTD/svg11.dtd">
<!-- Creator: CorelDRAW 2021 (64-Bit) -->
<svg xmlns="http://www.w3.org/2000/svg" xml:space="preserve" width="33.0728mm" height="15.8748mm" version="1.1" style="shape-rendering:geometricPrecision; text-rendering:geometricPrecision; image-rendering:optimizeQuality; fill-rule:evenodd; clip-rule:evenodd"
viewBox="0 0 3307.28 1587.48"
 xmlns:xlink="http://www.w3.org/1999/xlink"
 xmlns:xodm="http://www.corel.com/coreldraw/odm/2003">
 <defs>
  <style type="text/css">
   <![CDATA[
    .fil0 {fill:#1B2531}
    .fil1 {fill:#2EC4B6}
   ]]>
  </style>
   <clipPath id="id0">
    <rect x="-26342.12" y="-11964.28" width="12170.82" height="5397.5"/>
   </clipPath>
 </defs>
 <g id="Слой_x0020_1">
  <metadata id="CorelCorpID_0Corel-Layer"/>
  <g id="_2182527403712">
   <path class="fil0" d="M1223.56 1007.14c-7.21,-8.77 -17.23,-30.22 -22.51,-40.38 -55.75,-107.3 -78.07,-242.81 -58.69,-364.09 11.6,-72.61 32.48,-129.75 62.86,-187.4 20.21,-38.36 48.43,-79.42 76.19,-111.92 10.29,-12.06 19.46,-21.16 28.68,-32.6 -16.81,6.45 -65.58,52.84 -82.25,69.84 -8.54,8.71 -14.68,15.8 -23.53,26.44 -28.5,34.27 -59.15,78.47 -79.87,122.73 -22.91,48.93 -40.35,91.27 -53.54,149.06 -12.32,53.95 -18.35,125.91 -12.28,185.11 9.74,95.07 28.49,156.99 67.26,236.51 51.91,106.47 142.65,199.85 246.11,259.32 19.89,11.43 46.68,25 67.62,33.62 23.26,9.57 49.1,19.34 74.61,26.45 206.08,57.44 424.68,9.27 583.78,-128.31l25.79 -24.19c67.94,-59.2 125.65,-156.87 157.79,-246.35 11.27,-31.38 40.15,-138.2 33.79,-166.44 -32.86,108.91 -63.02,188.41 -137.66,271.94 -40.33,45.13 -84.77,84.42 -139.67,116.87 -4.97,2.94 -11.48,7.54 -16.52,10.09 -30.44,15.36 -52,27.04 -86.58,39.73 -12.78,4.69 -23.85,8.42 -38.33,12.88 -12.93,3.98 -27.8,7.4 -41.17,10.17 -170.17,35.15 -349.32,-2.72 -484.43,-108.19 -8.7,-6.79 -49.74,-38.86 -53.55,-49.33 85.28,-1.35 155.67,18.64 231.38,34.69 104.46,22.13 128.28,32.3 213.14,-16.86 29.35,-17 56.91,-30.49 86.18,-46.79 39.56,-22.04 141.31,-73.79 170.2,-92.88 49.27,-32.57 4.71,-60.89 -33.46,-54.44 -3.02,16.75 4.72,42.36 -21.89,62.21 -32.01,23.88 -63.67,3 -64.31,2.93 -4.34,-0.48 -16.42,14.32 -43.01,7.48 -14.73,-3.79 -24.65,-12.57 -33.32,-20.54 -3.92,0.34 -55.66,16.67 -59.28,19.58 5.93,14.43 30.82,35.35 19.32,56.16 -24.99,45.22 -166.35,30.63 -206.72,24.52 4.11,-3.22 6.73,-2.63 12.42,-3.05 4.78,-0.35 8.53,-0.93 13.15,-1.18 37.81,-2.07 152.55,4.31 164.14,-32.17 6.2,-19.52 -10.5,-28.14 -22.1,-33.67 -15.59,-7.43 -25.61,-9.39 -45.96,-8.81 -33.21,0.94 -31.13,-8.72 -46.24,-10.87l-47.2 -7.73c-0.02,0 -27.72,32.54 -67.11,12.78 -8.18,-4.11 -10.84,1.52 -20.73,4.47 -31.1,9.27 -63.16,-7.93 -70.07,-45.2 -45.07,-4.94 -126.59,12.75 -170.97,24.97 -13.03,3.58 -39.75,11.84 -51.46,12.84z"/>
   <path class="fil0" d="M1776.19 120.95l-54.92 0 -54.79 6.78c-47.01,7.14 -102.11,24.71 -143.52,43.85 -154.48,71.39 -268.4,211.31 -306.23,376.43 -2.35,10.25 -8.11,47.88 -3.65,56.32l19.43 -55.63c21.31,-53.73 50.26,-98.65 84.91,-141.51 39.66,-49.06 99.14,-99.54 169.03,-133.58 302.92,-147.56 669.77,27.65 736.48,368.34 32.23,164.6 -16.73,309.27 -114.01,434.59 -3.77,4.86 -14.36,16.99 -16.4,21.96 11.4,-4.87 48.51,-40.75 56.68,-49.59 53.49,-57.89 94.06,-119.17 121.15,-199.01 40.04,-118 40.25,-248.16 -2.02,-365.58 -55.45,-154.01 -172.85,-269.13 -315.73,-324.97 -36.42,-14.24 -87.44,-28.6 -127.32,-33.08 -8.61,-0.97 -44.68,-3.33 -49.09,-5.32z"/>
   <path class="fil1" d="M1484.35 687.46c0.74,41.56 -1.11,84.65 -1.36,126.57 -0.26,42.97 -0.06,85.97 -0.16,128.98 -0.02,8.88 -0.4,22.51 3.26,28.29 4.23,6.7 14.2,9.4 22.44,5.47 8.45,-4.02 8.88,-11.72 9.64,-21.92l8.36 -120.36c1.02,-12.19 -1.13,-20.2 4.66,-28.68l2.81 5.97c2.37,9.91 7.7,99.91 8.68,111.23 1.15,13.2 1.32,46.6 10.29,52.55 8.15,5.4 19.51,1.22 23.75,-4.46 4.92,-6.58 3.02,-19.73 3.15,-29.41 0.58,-42.23 -1.61,-85.83 -0.47,-127.66 1.18,-42.93 -2.04,-83.89 -0.49,-126.65 6.49,3.72 33.99,34.48 44.15,44.32 20.51,19.87 10.08,8.94 14.65,30.17 1.61,7.47 2.12,4.99 5.69,8.76 10.13,10.67 -14.03,15.48 33.56,52.96 0.63,28.7 0.17,57.77 0.31,86.52 0.08,14.47 0.17,28.95 0.23,43.43 0.09,21.52 -2.89,24.8 20.49,24 4.71,-17.44 4.7,-53.32 13.83,-65.82 12.44,17.05 -0.42,79.08 26.38,65.41 6.42,-3.28 5.02,-16.74 5.03,-26.22 0.02,-42.2 -0.48,-84.7 0.03,-126.85 8.99,-7.13 20.37,-14.41 26.57,-26.91l8.97 -17.56c3.07,-7.59 3.92,-13.37 5.46,-22.17 1.57,-8.95 13.38,-10.57 29.58,-24.26 6.25,-5.29 24.33,-22.34 30.95,-24.99 -5.31,21.39 -13.59,42.54 -19.11,64.15 -3.77,14.75 -19.45,53.37 -20.73,63.02 17.35,-2.9 27.79,-2.45 45.86,-2.15 0.44,22.18 -0.62,45.35 -0.76,67.7l-0.28 49.82c-0.74,4.71 -3.26,7.1 -6.29,10.36 2.34,4.24 19.99,24.2 32.74,14.74 10.52,-7.8 9.19,-32.41 10.26,-45.99 1.28,-16.34 4.21,-93.73 12.22,-100.02 7.98,12.78 9.27,88.65 11.9,114.63 1.42,13.93 -0.35,27.59 11.34,32.07 13,4.99 23.61,-3.04 24.08,-16.31 1.22,-34.29 -2.53,-103.48 0.49,-127.3l44.5 -0.26c-0.53,-10.02 -22.81,-89.99 -27.1,-106.13 -3.03,-11.43 -7.5,-26.03 -9.02,-36.96 14.22,8.38 39.72,52.18 48.36,71.05 45.06,2.72 21.72,-34.1 10.56,-53.88 -22.19,-39.33 -52.73,-79.48 -85.5,-106.55 -9.56,-7.9 -22.96,-11.51 -37.13,-9.42 -30.81,4.55 -46.72,42.71 -70.2,74.49 -13.93,18.85 -28.7,34.39 -44.05,52.09 -7.94,9.16 -12.19,18.5 -14.91,31.93 -0.83,4.12 -0.89,6.63 -1.92,10.03 -4.12,13.56 -3.69,15.41 -13.1,24.08 -10.66,9.83 -13.19,14.89 -33.83,15.79 -7.99,0.35 -16.27,0.36 -21.86,-2.62 -48.9,-26.1 -22.95,-61.56 -37.98,-83.16 -3.82,-5.49 -7,-7.82 -11.14,-12.63 -35.82,-41.54 -38.74,-45.7 -69.79,-98.72 -5.8,-9.91 -13.26,-16.97 -27.38,-19.61 -14.67,-2.74 -28.23,-0.08 -39.39,6.99 -37.13,23.49 -87.16,137.15 -85.48,153.21 1.36,12.98 21.57,19.14 30.13,8.61 4.97,-6.12 21.84,-58.2 34.07,-63.76z"/>
   <path class="fil1" d="M1546.83 481.39c-14.4,4.6 -20.65,9.33 -27.28,20.74 -6.57,11.3 -8.58,25.54 -4.87,39.29 15.86,58.79 109.05,35.49 92.29,-27.76 -5.81,-21.9 -32.26,-41.18 -60.14,-32.27z"/>
   <path class="fil1" d="M1871.98 485.69c-13.78,5.88 -19.68,8.23 -27.13,20.44 -21.67,35.48 9.66,86.11 55.42,71.35 26.94,-8.69 40.36,-38.08 31.74,-60.12 -9.59,-24.5 -39.3,-40.53 -60.03,-31.67z"/>
   <path class="fil1" d="M1700.14 724.54c-15.02,6.24 -27.6,23.62 -19.56,44.56 4.81,12.55 25.03,27.33 43.46,18.78 2.36,-1.09 7.55,-4.76 9.5,-6.21 30.16,-22.4 1.57,-71.64 -33.4,-57.13z"/>
  </g>
  <path class="fil1" d="M1257.33 500.92l-54.71 151.77c-0.35,-0.6 0,0 0,0 -3.8,4.56 -7.14,15.34 -10.02,29.35 -8.48,41.2 -12.91,110.29 -13,130.82 -0.74,160.48 61.79,321.51 169.8,441.11 61.7,68.31 122.95,111.47 207.55,153.55l75.04 30.06c217.08,74.54 390.54,-0.24 414.28,3.14 -39.27,24.6 -131.78,50.24 -179.3,58.81 -106.72,19.24 -220.14,17.11 -322.95,-15.52 -29.99,-9.52 -42.75,-11.69 -75.2,-25.69 -236.45,-102.08 -389.98,-306.25 -423.2,-559.61l-4.7 -62.06c0.01,-6.25 -0.45,-14.03 -0.49,-21.25 -0.58,-109.42 24.21,-211.09 71.62,-308.12 16.58,-33.93 40.52,-73.44 63.53,-104.61 85.74,-116.21 210.84,-209.21 349.57,-252.14 16.73,-5.17 58.07,-17.07 76.37,-19.04 4.8,-0.52 6.95,-1.62 11.57,-2.58 27.9,-5.76 56.2,-7.09 84.51,-9.87 50.75,-4.99 111.41,0.19 161.76,8.43 13.22,2.16 25.71,4.5 38.36,7.78 29.14,7.56 96.03,26.98 112.45,40.02 -12.18,-1.13 -33.6,-6.75 -47.13,-9.35 -44.4,-8.54 -104.52,-12.95 -149.33,-10.89 -76.01,3.48 -143.15,15.94 -213.99,43.57 -112.76,43.99 -213.73,120.48 -286.34,216.33 -7.28,9.61 -19.07,25.55 -30.09,41.71 -11.48,16.84 -22.13,33.91 -25.96,44.28 1.22,1.75 2.88,3.73 4.76,5.8 0.24,0.26 -5.01,-6.06 -4.76,-5.8z"/>
  <g id="_2182527399200">
   <path class="fil1" d="M493.73 1224.91c7.49,-15.03 14.3,-26.22 24.72,-37.03 54.75,-56.8 78.87,-30.82 142.98,-33.54 -4.1,11.57 -17.07,30.42 -23.61,39.26 -30.06,40.63 -88.45,49.64 -133.59,36 11.39,-12.54 54.25,-34.9 62.9,-42.66 -22.38,6.2 -55.27,27.79 -73.4,37.97zm-64.02 16.96c-11.26,-6.22 -24.86,-25.04 -32.07,-39.06 -17.46,-33.91 -12.97,-88.43 -4.65,-125 2.75,-12.11 12.13,-45.56 17.26,-53.92l13.69 25.18c15.76,26.42 31.44,38.37 39.44,72.66 9.8,41.97 -5.75,86.63 -23.51,117.22 -2.1,-12.31 -1.97,-26.6 -3.58,-39.38 -5.01,-39.67 -12.58,-66.04 -14.56,-111.39 -10.11,14.2 12.24,106.99 7.98,153.69zm165.67 -257.41c0,-42.3 12.82,-79.72 49.63,-100.01 8.38,37.95 47.36,64.52 24.52,110.55 -15.46,31.14 -55.06,57.76 -84.7,61.48 3.91,-7.06 13.56,-13.29 19.66,-20.55 16.39,-19.51 35.93,-49.89 39.53,-76.74l-10.96 22.4c-8.14,15.7 -28.77,47.41 -40.78,53.74l3.1 -50.87zm-89.67 84.88c-15.9,-8.7 -36.48,-29.22 -47.9,-41.82 -27.72,-30.55 -49.64,-89.14 -30.44,-130.32 7.37,-15.81 27.55,-37.13 48.11,-40.68 -9.4,56.7 -7.47,47.64 18.38,99.62 16.58,33.35 24.08,62.36 17.65,105.26 -3.55,-4.54 -5.01,-12.92 -7.33,-18.87 -13.14,-33.81 -27.75,-42.32 -39.56,-86.34 -2.78,-10.36 -3.85,-38.45 -6.94,-44.21 -11.91,63.77 42.65,112.34 48.03,157.36zm109.4 -232.99c-0.39,-12.44 27.34,-48.54 33.85,-55.4 58.75,-61.86 62.18,-40.82 106.93,-71.17 22.95,-15.57 47.1,-41.64 47.6,-41.94 4.84,27.65 14.68,48.25 2.2,77.95 -26.86,63.95 -116.58,78.17 -177.24,89.38 28.92,-25.47 131.23,-61.79 143.84,-94.52 -7.19,3.47 -11.83,8.84 -18.07,13.55 -48.72,36.87 -97.11,45.15 -139.11,82.15zm-31.59 -121.69c6.43,-29.65 34.39,-58.93 52.94,-72.13 17.45,-12.41 69.43,-34.17 87.35,-36.1 0.34,41.02 -23.14,72.6 -45.86,86.84 -20.57,12.9 -68.07,31.1 -94.8,38.05 5.41,-18.43 34.55,-39.11 50.12,-50.48l43.02 -30.71c5.66,-4.4 10.24,-6.11 11.79,-12.45 -7.71,2.57 -20.58,12.25 -28.58,17.16 -21,12.88 -49.79,30.08 -65.34,48.3l-10.64 11.52zm-119.71 74.97c-22.61,-14.58 -41.24,-30.22 -55.18,-53.83 -28.96,-49.05 -16.59,-121.74 6.95,-172.87l2.35 -3.96c13.15,23.53 -2.46,17.18 40.72,68.5l26.23 29.03c45.95,51.69 75.52,118.28 72.96,199.44l-6.27 -8.21c-52.5,-83.28 -129.99,-139.87 -129.26,-253.54 -8.83,14.05 2.34,60.14 7.7,75.78 6.87,20.04 18.65,42.19 28.76,58.72 19.12,31.27 65.85,87.37 74.24,101.9l-69.2 -40.96zm50.94 -302.77c-2.9,-6 -12.29,-21.43 -13.27,-25.12l19.37 52.83c10.9,33.84 37.42,148.49 38.84,181.21 -4.39,-3.43 -13.97,-22.26 -27.25,-36.17 -56.91,-59.62 -88.82,-125.53 -99.41,-210.86l-14.31 -111.62c7,2.2 18.2,9.63 25.14,13.4 59,32.04 123.76,46.09 150.21,106.16 22.89,51.97 3.71,131.9 -9.34,187.91 -4.41,18.92 -7.71,41.9 -10.74,61.84 -3.71,-9.55 -7.89,-53.68 -10.76,-68.48 -10.57,-54.63 -24.58,-101.66 -48.48,-151.1zm54.99 340.98l-1.84 48.46c-12.43,-8.44 -2.35,-58.46 -13.59,-105.1 -12.32,-51.09 -34.31,-80.21 -63.77,-117.31 -8.92,-11.24 -20.31,-20.93 -29.33,-32.08 -4.37,-5.41 -9.01,-10.45 -13.33,-15.88 -4.96,-6.23 -8.2,-10.73 -12.55,-18.12 -9.45,-16.07 -11.27,-26.58 -16.1,-45.68 -5.57,6.92 -24.28,60.8 -27.2,72.41 -13.96,55.45 -6.2,116.65 34.84,155.23 30.65,28.81 65.33,39.28 92.71,59.29 11.92,8.72 17.04,14.2 25.71,24.96 20.18,25.02 21.32,40.6 14.61,78.79 -4.21,23.96 -34.08,150.96 -45.24,157.56 -2.57,-7.74 5.94,-50.06 5.49,-65.99 -2.25,-79.3 -56.09,-92.3 -40.97,-156.87 1.18,-5.02 2.69,-9.63 1.36,-14.52 -3.7,-13.57 -77.93,23.82 -67.08,88.46 6.87,40.93 22.88,82.13 56.03,108.12 45.28,35.49 48.75,42.41 21.3,106 -8.32,19.27 -16.83,37.35 -25.25,56.16 -4.17,9.33 -8.87,18.4 -13.4,28.03 -4.14,8.79 -7.83,21.49 -15.12,28.11 0.66,-19.66 17.63,-44.06 25,-64.31 18.09,-49.77 12.47,-92.37 -18.23,-134.43 -9.61,-13.17 -18.74,-25.47 -25.59,-40.37 -2.49,-5.4 -3.76,-12.28 -7.95,-15.31 -5.62,3.37 -9.47,21.25 -11.74,28.34 -10.81,33.89 -20.53,63.48 -20.55,100.82 -0.01,20.9 1.53,44.05 9.54,61.1 3.97,8.43 8.19,15.68 13.69,21.68 27.22,29.68 32.68,17.88 20.12,72.53 -17.21,74.89 -0.24,89.7 -45.94,97.1 -20.05,3.25 -42.16,6.91 -62.25,9.38l-92.32 13.77c-7.71,1.17 -16.96,1.07 -24.35,3.6 -5.65,1.93 -3.73,-1.87 -3.71,4.23l670.46 0c-0.28,-5.38 1.16,-3.3 -6.74,-4.75 -27.2,-5 -55.08,-7.24 -82.36,-11.51 -129.56,-20.3 -131.47,-1.74 -137.59,-75.35 -2.76,-33.27 -5.68,-66.27 -8.29,-99.67 -6.61,2.59 -12.88,7.46 -20.05,10.62 -30.1,13.28 -52.83,9.79 -83.29,4.24 -0.05,25.27 2.24,102.17 -0.43,121.24 -2.05,14.58 -16.63,27.77 -34.36,25.61 -17.18,-2.09 -27.39,-15.72 -27.39,-34.26l0 -89.05c0,-7.79 12.66,-20.57 16.82,-24.39 10.05,-9.24 11.82,-11.87 30.57,-9.86 29.63,3.16 43.78,9.11 74.27,-0.45 32.87,-10.3 54.55,-31.12 68.24,-59.19 2.51,-5.15 4.48,-9.32 7.31,-14.19 1.2,-2.08 2.87,-4.45 4.17,-6.81 0.24,-0.44 1.35,-2.84 1.35,-2.86l-0.12 -2.73c-0.48,-4.22 -27.8,-2.6 -32.99,-3.1 -38,-3.68 -52.88,-14.41 -91,8.94 -21.79,13.35 -39.41,35.84 -49.81,59.24 -4.77,10.75 -5.53,18.53 -15.75,22.53l45.38 -106.53c9.92,-25.9 9.72,-32.03 27.15,-48.09 21.67,-19.99 15.91,-16.86 50.05,-26.73 56.45,-16.31 109.81,-69.55 73.86,-130.66 -4.88,-8.3 -10.72,-15.42 -15.17,-23.2 -6.59,-11.55 -5.28,-21.09 -9.01,-29.02l-20.57 17c-63.28,56.97 -21.23,136.02 -62.15,168.17 -3.57,2.8 -7.32,5.08 -11.66,8.3 -3.65,2.71 -7.15,6.51 -11.12,8.43l19.56 -67.48c9.28,-35.41 16.31,-73.55 19.81,-110.74 1.98,-21 1.31,-19.48 11.91,-32.64 16.5,-20.49 25.45,-23.74 59.85,-29.23 64.04,-10.22 147.74,-34.44 162,-100.52 3.89,-18.05 -0.22,-64.02 -10.79,-75.38 -5.34,2.45 -27.52,29.7 -58.45,47.59 -13,7.53 -22.79,10.74 -36.99,16.74 -15.09,6.36 -22.01,11.54 -33.75,19.99 -35.98,25.88 -49.01,53.71 -67.38,92.27 -2.82,5.9 -19.77,27.58 -23.87,29.09l-1.81 -71.96c-0.83,-14.56 -4.59,-33.48 -4.55,-46.47 0.04,-13.1 18.88,-16.21 28.88,-19.41 33.98,-10.89 77.67,-26.2 97.87,-52.64 9.6,-12.56 32.47,-63.57 21.16,-74.41 -3.03,-2.57 -5.25,-1 -10.24,0.71 -26.85,9.16 -56.87,16.75 -80.04,32.22 -14.64,9.78 -22.77,17.88 -33.39,31.12 -4.99,6.23 -8.64,12.22 -12.66,19.57 -2.5,4.56 -7.56,17.65 -10.21,21.1 -5.47,-51.84 65.08,-185.08 13.29,-267.82 -20.81,-33.24 -48.77,-49.97 -90.94,-68.75 -82.66,-36.81 -96.52,-62.94 -90.62,-22.87 15.08,102.44 11.46,177.52 62.97,256.27 27.26,41.67 52.54,61.55 70.98,88.71 25.57,37.66 24.42,82.67 24.63,134.86z"/>
   <path class="fil0" d="M192.32 143.05c13.25,5.55 188.77,24.15 203.49,29.78 16.85,6.44 18.25,17.06 21.2,37.04 5.71,38.74 5.57,74.12 9.97,106.7 1.61,12.01 25.04,22.49 35.7,24.77 0.1,-35.9 0.02,-71.81 0.02,-107.71 0,-15.72 -2.66,-36.49 4.46,-49.03 5.54,-9.78 20.27,-19.64 37.55,-13.21 28.26,10.5 20.16,52.6 20.16,86.81 0,36.34 -0.02,72.68 0,109.01 0.61,2.04 29.53,17.66 42.04,27.58 13.82,10.97 34.46,35.96 44.17,51.04 3.2,4.98 5.78,10.86 9.05,15.04 3.54,-44.01 3.79,-89.35 6.77,-133.57 2.7,-40.2 5.33,-89.26 11.41,-128.46 3.43,-22.14 16.77,-26.07 39.33,-29.52 20.07,-3.07 42.01,-6.22 61.75,-8.49 17.82,-2.05 114.05,-13.66 123.64,-17.79l0.62 -8.17 -671.67 -0.01 0.34 8.19z"/>
   <path class="fil0" d="M559.69 695.78c-1.42,-32.72 -27.94,-147.37 -38.84,-181.21l-19.37 -52.83c0.98,3.69 10.37,19.12 13.27,25.12 23.9,49.44 37.91,96.47 48.48,151.1 2.87,14.8 7.05,58.93 10.76,68.48 3.03,-19.94 6.33,-42.92 10.74,-61.84 13.05,-56.01 32.23,-135.94 9.34,-187.91 -26.45,-60.07 -91.21,-74.12 -150.21,-106.16 -6.94,-3.77 -18.14,-11.2 -25.14,-13.4l14.31 111.62c10.59,85.33 42.5,151.24 99.41,210.86 13.28,13.91 22.86,32.74 27.25,36.17z"/>
   <path class="fil0" d="M533.01 830.59c-8.39,-14.53 -55.12,-70.63 -74.24,-101.9 -10.11,-16.53 -21.89,-38.68 -28.76,-58.72 -5.36,-15.64 -16.53,-61.73 -7.7,-75.78 -0.73,113.67 76.76,170.26 129.26,253.54l6.27 8.21c2.56,-81.16 -27.01,-147.75 -72.96,-199.44l-26.23 -29.03c-43.18,-51.32 -27.57,-44.97 -40.72,-68.5l-2.35 3.96c-23.54,51.13 -35.91,123.82 -6.95,172.87 13.94,23.61 32.57,39.25 55.18,53.83l69.2 40.96z"/>
   <path class="fil0" d="M615.11 836.35c42,-37 90.39,-45.28 139.11,-82.15 6.24,-4.71 10.88,-10.08 18.07,-13.55 -12.61,32.73 -114.92,69.05 -143.84,94.52 60.66,-11.21 150.38,-25.43 177.24,-89.38 12.48,-29.7 2.64,-50.3 -2.2,-77.95 -0.5,0.3 -24.65,26.37 -47.6,41.94 -44.75,30.35 -48.18,9.31 -106.93,71.17 -6.51,6.86 -34.24,42.96 -33.85,55.4z"/>
   <path class="fil0" d="M429.71 1241.87c4.26,-46.7 -18.09,-139.49 -7.98,-153.69 1.98,45.35 9.55,71.72 14.56,111.39 1.61,12.78 1.48,27.07 3.58,39.38 17.76,-30.59 33.31,-75.25 23.51,-117.22 -8,-34.29 -23.68,-46.24 -39.44,-72.66l-13.69 -25.18c-5.13,8.36 -14.51,41.81 -17.26,53.92 -8.32,36.57 -12.81,91.09 4.65,125 7.21,14.02 20.81,32.84 32.07,39.06z"/>
   <path class="fil0" d="M505.71 1069.34c-5.38,-45.02 -59.94,-93.59 -48.03,-157.36 3.09,5.76 4.16,33.85 6.94,44.21 11.81,44.02 26.42,52.53 39.56,86.34 2.32,5.95 3.78,14.33 7.33,18.87 6.43,-42.9 -1.07,-71.91 -17.65,-105.26 -25.85,-51.98 -27.78,-42.92 -18.38,-99.62 -20.56,3.55 -40.74,24.87 -48.11,40.68 -19.2,41.18 2.72,99.77 30.44,130.32 11.42,12.6 32,33.12 47.9,41.82z"/>
   <path class="fil0" d="M595.38 984.46l-3.1 50.87c12.01,-6.33 32.64,-38.04 40.78,-53.74l10.96 -22.4c-3.6,26.85 -23.14,57.23 -39.53,76.74 -6.1,7.26 -15.75,13.49 -19.66,20.55 29.64,-3.72 69.24,-30.34 84.7,-61.48 22.84,-46.03 -16.14,-72.6 -24.52,-110.55 -36.81,20.29 -49.63,57.71 -49.63,100.01z"/>
   <path class="fil0" d="M493.73 1224.91c18.13,-10.18 51.02,-31.77 73.4,-37.97 -8.65,7.76 -51.51,30.12 -62.9,42.66 45.14,13.64 103.53,4.63 133.59,-36 6.54,-8.84 19.51,-27.69 23.61,-39.26 -64.11,2.72 -88.23,-23.26 -142.98,33.54 -10.42,10.81 -17.23,22 -24.72,37.03z"/>
   <path class="fil0" d="M583.52 714.66l10.64 -11.52c15.55,-18.22 44.34,-35.42 65.34,-48.3 8,-4.91 20.87,-14.59 28.58,-17.16 -1.55,6.34 -6.13,8.05 -11.79,12.45l-43.02 30.71c-15.57,11.37 -44.71,32.05 -50.12,50.48 26.73,-6.95 74.23,-25.15 94.8,-38.05 22.72,-14.24 46.2,-45.82 45.86,-86.84 -17.92,1.93 -69.9,23.69 -87.35,36.1 -18.55,13.2 -46.51,42.48 -52.94,72.13z"/>
   <path class="fil0" d="M525.57 1156.77c20.47,-10.1 34.38,-24.09 68.88,-24.92 11.19,-0.26 19.03,2.11 28.45,2.35l-2.34 -71.34c-9.94,3.94 -19.79,10.02 -31.16,14.79 -12.26,5.15 -23.4,7.02 -32.53,15.03 -12.71,11.16 -31.48,40.82 -31.3,64.09z"/>
   <path class="fil0" d="M439.14 858.7c4.62,-2.24 6.69,-4.46 11.41,-7.46 3.94,-2.51 7.72,-3.83 11.97,-6.51l0.35 -36.9 -23.62 -11.48 -0.11 62.35z"/>
  </g>
  <g id="_2182552366432">
   <path class="fil1" d="M2857.7 1225.26c-7.32,-15.04 -13.99,-26.22 -24.18,-37.03 -53.55,-56.8 -77.14,-30.83 -139.85,-33.55 4.01,11.57 16.7,30.42 23.1,39.27 29.39,40.63 86.51,49.64 130.66,36 -11.14,-12.55 -53.06,-34.91 -61.52,-42.67 21.88,6.21 54.06,27.79 71.79,37.98zm62.61 16.95c11.02,-6.21 24.32,-25.03 31.38,-39.06 17.07,-33.91 12.68,-88.43 4.55,-125 -2.69,-12.11 -11.87,-45.56 -16.89,-53.91l-13.39 25.18c-15.42,26.41 -30.75,38.36 -38.58,72.65 -9.58,41.98 5.63,86.63 23,117.23 2.05,-12.31 1.93,-26.6 3.5,-39.39 4.9,-39.66 12.31,-66.03 14.24,-111.39 9.89,14.2 -11.96,107 -7.81,153.69zm-162.03 -257.41c0,-42.3 -12.54,-79.72 -48.54,-100.01 -8.21,37.95 -46.33,64.53 -23.99,110.55 15.12,31.15 53.85,57.76 82.85,61.48 -3.83,-7.05 -13.27,-13.29 -19.23,-20.54 -16.03,-19.52 -35.15,-49.9 -38.67,-76.75l10.72 22.4c7.97,15.71 28.14,47.41 39.88,53.75l-3.02 -50.88zm87.7 84.88c15.56,-8.7 35.68,-29.22 46.86,-41.81 27.11,-30.55 48.55,-89.14 29.77,-130.32 -7.21,-15.82 -26.95,-37.13 -47.06,-40.69 9.19,56.71 7.3,47.65 -17.98,99.62 -16.22,33.36 -23.55,62.37 -17.26,105.27 3.47,-4.54 4.9,-12.93 7.17,-18.88 12.85,-33.8 27.14,-42.31 38.7,-86.34 2.71,-10.36 3.75,-38.45 6.78,-44.21 11.65,63.77 -41.71,112.35 -46.98,157.36zm-107 -232.99c0.38,-12.44 -26.74,-48.54 -33.11,-55.4 -57.47,-61.86 -60.82,-40.82 -104.59,-71.17 -22.45,-15.57 -46.07,-41.63 -46.55,-41.94 -4.74,27.65 -14.36,48.25 -2.16,77.95 26.27,63.96 114.03,78.17 173.36,89.39 -28.29,-25.48 -128.36,-61.8 -140.69,-94.52 7.04,3.46 11.57,8.83 17.67,13.55 47.65,36.86 94.99,45.15 136.07,82.14zm30.89 -121.68c-6.29,-29.66 -33.63,-58.94 -51.78,-72.13 -17.06,-12.42 -67.9,-34.17 -85.44,-36.11 -0.32,41.03 22.64,72.61 44.86,86.85 20.12,12.9 66.59,31.1 92.72,38.04 -5.28,-18.42 -33.79,-39.11 -49.01,-50.48l-42.09 -30.7c-5.53,-4.41 -10.01,-6.12 -11.53,-12.46 7.55,2.57 20.13,12.25 27.96,17.16 20.54,12.89 48.7,30.08 63.91,48.31l10.4 11.52zm117.09 74.97c22.12,-14.58 40.34,-30.22 53.98,-53.83 28.33,-49.06 16.23,-121.74 -6.8,-172.88l-2.3 -3.96c-12.87,23.53 2.4,17.18 -39.83,68.51l-25.65 29.02c-44.94,51.7 -73.87,118.28 -71.37,199.44l6.13 -8.2c51.35,-83.28 127.15,-139.88 126.44,-253.54 8.63,14.05 -2.29,60.13 -7.54,75.78 -6.71,20.03 -18.24,42.19 -28.12,58.71 -18.71,31.28 -64.41,87.38 -72.63,101.9l67.69 -40.95zm-49.82 -302.78c2.83,-6 12.02,-21.43 12.98,-25.12l-18.95 52.83c-10.66,33.85 -36.6,148.49 -37.99,181.22 4.3,-3.43 13.67,-22.26 26.65,-36.17 55.67,-59.62 86.88,-125.53 97.24,-210.86l14 -111.63c-6.85,2.21 -17.8,9.63 -24.59,13.4 -57.71,32.04 -121.05,46.09 -146.93,106.17 -22.38,51.97 -3.62,131.89 9.14,187.9 4.31,18.93 7.54,41.91 10.51,61.85 3.63,-9.56 7.72,-53.68 10.52,-68.48 10.34,-54.64 24.04,-101.66 47.42,-151.11zm-53.79 340.99l1.8 48.45c12.16,-8.44 2.3,-58.46 13.3,-105.09 12.04,-51.1 33.55,-80.21 62.37,-117.32 8.72,-11.23 19.86,-20.93 28.69,-32.08 4.28,-5.4 8.81,-10.45 13.03,-15.87 4.85,-6.23 8.03,-10.74 12.28,-18.13 9.25,-16.07 11.02,-26.58 15.75,-45.68 5.45,6.92 23.74,60.8 26.6,72.42 13.66,55.44 6.07,116.65 -34.08,155.23 -29.97,28.8 -63.9,39.28 -90.67,59.29 -11.67,8.71 -16.67,14.19 -25.15,24.95 -19.74,25.03 -20.85,40.61 -14.29,78.8 4.11,23.95 33.33,150.95 44.25,157.55 2.51,-7.74 -5.82,-50.06 -5.37,-65.99 2.19,-79.29 54.86,-92.3 40.07,-156.87 -1.15,-5.02 -2.63,-9.62 -1.32,-14.52 3.61,-13.57 76.22,23.82 65.6,88.46 -6.72,40.93 -22.38,82.14 -54.8,108.12 -44.29,35.49 -47.68,42.41 -20.83,106.01 8.14,19.27 16.46,37.35 24.69,56.16 4.08,9.32 8.68,18.4 13.11,28.02 4.05,8.79 7.66,21.5 14.79,28.11 -0.65,-19.65 -17.25,-44.05 -24.45,-64.31 -17.7,-49.77 -12.21,-92.36 17.82,-134.43 9.4,-13.16 18.33,-25.47 25.04,-40.37 2.43,-5.39 3.67,-12.27 7.77,-15.31 5.5,3.38 9.27,21.26 11.48,28.34 10.58,33.89 20.09,63.49 20.1,100.82 0.01,20.9 -1.49,44.05 -9.33,61.1 -3.88,8.43 -8,15.69 -13.39,21.69 -26.62,29.68 -31.96,17.87 -19.68,72.52 16.83,74.9 0.24,89.7 44.94,97.11 19.61,3.24 41.24,6.9 60.89,9.37l90.29 13.78c7.54,1.17 16.6,1.06 23.82,3.59 5.53,1.93 3.65,-1.87 3.63,4.23l-655.79 0c0.29,-5.38 -1.13,-3.3 6.6,-4.75 26.61,-4.99 53.88,-7.23 80.55,-11.51 126.73,-20.3 128.6,-1.73 134.58,-75.35 2.71,-33.26 5.56,-66.27 8.12,-99.67 6.46,2.6 12.59,7.46 19.6,10.62 29.45,13.28 51.68,9.79 81.47,4.24 0.05,25.27 -2.19,102.18 0.42,121.24 2.01,14.59 16.27,27.77 33.61,25.62 16.8,-2.09 26.79,-15.73 26.79,-34.26l0 -89.06c0,-7.79 -12.38,-20.57 -16.45,-24.39 -9.83,-9.23 -11.57,-11.86 -29.9,-9.86 -28.98,3.17 -42.82,9.11 -72.65,-0.45 -32.15,-10.3 -53.36,-31.12 -66.75,-59.19 -2.45,-5.14 -4.37,-9.31 -7.14,-14.19 -1.18,-2.08 -2.81,-4.45 -4.08,-6.81 -0.24,-0.44 -1.32,-2.84 -1.32,-2.86l0.11 -2.73c0.48,-4.22 27.19,-2.59 32.27,-3.09 37.17,-3.69 51.72,-14.41 89.01,8.94 21.32,13.34 38.55,35.83 48.72,59.23 4.67,10.75 5.41,18.54 15.41,22.53l-44.39 -106.52c-9.7,-25.91 -9.51,-32.03 -26.55,-48.1 -21.2,-19.98 -15.57,-16.86 -48.96,-26.73 -55.22,-16.31 -107.4,-69.55 -72.24,-130.65 4.77,-8.3 10.48,-15.42 14.83,-23.21 6.45,-11.54 5.17,-21.09 8.82,-29.02l20.12 17c61.89,56.97 20.76,136.02 60.79,168.18 3.49,2.8 7.16,5.08 11.4,8.3 3.57,2.71 7,6.5 10.88,8.42l-19.13 -67.48c-9.09,-35.4 -15.96,-73.54 -19.38,-110.74 -1.93,-21 -1.28,-19.48 -11.65,-32.64 -16.14,-20.49 -24.89,-23.74 -58.54,-29.23 -62.64,-10.21 -144.51,-34.43 -158.45,-100.51 -3.81,-18.05 0.21,-64.03 10.55,-75.39 5.23,2.46 26.91,29.71 57.17,47.6 12.72,7.52 22.29,10.74 36.18,16.73 14.76,6.37 21.53,11.55 33.01,19.99 35.2,25.88 47.94,53.72 65.91,92.28 2.75,5.9 19.33,27.58 23.35,29.08l1.76 -71.96c0.82,-14.56 4.49,-33.47 4.45,-46.46 -0.03,-13.1 -18.46,-16.21 -28.24,-19.42 -33.23,-10.89 -75.97,-26.2 -95.73,-52.64 -9.38,-12.56 -31.76,-63.56 -20.7,-74.4 2.96,-2.57 5.14,-1.01 10.02,0.7 26.27,9.17 55.62,16.76 78.28,32.23 14.32,9.78 22.28,17.88 32.66,31.12 4.89,6.22 8.45,12.21 12.39,19.56 2.45,4.57 7.39,17.65 9.99,21.11 5.35,-51.84 -63.66,-185.08 -13.01,-267.82 20.36,-33.25 47.71,-49.97 88.96,-68.75 80.84,-36.81 94.4,-62.95 88.63,-22.87 -14.74,102.44 -11.21,177.51 -61.59,256.26 -26.66,41.67 -51.39,61.56 -69.43,88.71 -25.01,37.66 -23.88,82.68 -24.09,134.87z"/>
   <path class="fil0" d="M3152.51 143.4c-12.96,5.55 -184.63,24.14 -199.04,29.77 -16.48,6.44 -17.84,17.06 -20.73,37.04 -5.59,38.74 -5.45,74.12 -9.75,106.71 -1.58,12 -24.49,22.48 -34.93,24.76 -0.09,-35.89 -0.01,-71.8 -0.01,-107.7 0,-15.72 2.61,-36.49 -4.36,-49.04 -5.43,-9.77 -19.83,-19.64 -36.73,-13.21 -27.64,10.51 -19.72,52.6 -19.72,86.81 0.01,36.34 0.02,72.68 0,109.02 -0.6,2.04 -28.88,17.65 -41.12,27.58 -13.52,10.96 -33.7,35.95 -43.2,51.04 -3.13,4.97 -5.66,10.86 -8.85,15.03 -3.46,-44.01 -3.71,-89.34 -6.62,-133.57 -2.64,-40.19 -5.22,-89.26 -11.16,-128.45 -3.36,-22.15 -16.41,-26.08 -38.48,-29.53 -19.63,-3.06 -41.08,-6.22 -60.39,-8.49 -17.43,-2.04 -111.56,-13.66 -120.93,-17.78l-0.61 -8.18 656.96 0 -0.33 8.19z"/>
   <path class="fil0" d="M2793.18 696.13c1.39,-32.73 27.33,-147.37 37.99,-181.22l18.95 -52.83c-0.96,3.69 -10.15,19.12 -12.98,25.12 -23.38,49.45 -37.08,96.47 -47.42,151.11 -2.8,14.8 -6.89,58.92 -10.52,68.48 -2.97,-19.94 -6.2,-42.92 -10.51,-61.85 -12.76,-56.01 -31.52,-135.93 -9.14,-187.9 25.88,-60.08 89.22,-74.13 146.93,-106.17 6.79,-3.77 17.74,-11.19 24.59,-13.4l-14 111.63c-10.36,85.33 -41.57,151.24 -97.24,210.86 -12.98,13.91 -22.35,32.74 -26.65,36.17z"/>
   <path class="fil0" d="M2819.27 830.93c8.22,-14.52 53.92,-70.62 72.63,-101.9 9.88,-16.52 21.41,-38.68 28.12,-58.71 5.25,-15.65 16.17,-61.73 7.54,-75.78 0.71,113.66 -75.09,170.26 -126.44,253.54l-6.13 8.2c-2.5,-81.16 26.43,-147.74 71.37,-199.44l25.65 -29.02c42.23,-51.33 26.96,-44.98 39.83,-68.51l2.3 3.96c23.03,51.14 35.13,123.82 6.8,172.88 -13.64,23.61 -31.86,39.25 -53.98,53.83l-67.69 40.95z"/>
   <path class="fil0" d="M2738.98 836.69c-41.08,-36.99 -88.42,-45.28 -136.07,-82.14 -6.1,-4.72 -10.63,-10.09 -17.67,-13.55 12.33,32.72 112.4,69.04 140.69,94.52 -59.33,-11.22 -147.09,-25.43 -173.36,-89.39 -12.2,-29.7 -2.58,-50.3 2.16,-77.95 0.48,0.31 24.1,26.37 46.55,41.94 43.77,30.35 47.12,9.31 104.59,71.17 6.37,6.86 33.49,42.96 33.11,55.4z"/>
   <path class="fil0" d="M2920.31 1242.21c-4.15,-46.69 17.7,-139.49 7.81,-153.69 -1.93,45.36 -9.34,71.73 -14.24,111.39 -1.57,12.79 -1.45,27.08 -3.5,39.39 -17.37,-30.6 -32.58,-75.25 -23,-117.23 7.83,-34.29 23.16,-46.24 38.58,-72.65l13.39 -25.18c5.02,8.35 14.2,41.8 16.89,53.91 8.13,36.57 12.52,91.09 -4.55,125 -7.06,14.03 -20.36,32.85 -31.38,39.06z"/>
   <path class="fil0" d="M2845.98 1069.68c5.27,-45.01 58.63,-93.59 46.98,-157.36 -3.03,5.76 -4.07,33.85 -6.78,44.21 -11.56,44.03 -25.85,52.54 -38.7,86.34 -2.27,5.95 -3.7,14.34 -7.17,18.88 -6.29,-42.9 1.04,-71.91 17.26,-105.27 25.28,-51.97 27.17,-42.91 17.98,-99.62 20.11,3.56 39.85,24.87 47.06,40.69 18.78,41.18 -2.66,99.77 -29.77,130.32 -11.18,12.59 -31.3,33.11 -46.86,41.81z"/>
   <path class="fil0" d="M2758.28 984.8l3.02 50.88c-11.74,-6.34 -31.91,-38.04 -39.88,-53.75l-10.72 -22.4c3.52,26.85 22.64,57.23 38.67,76.75 5.96,7.25 15.4,13.49 19.23,20.54 -29,-3.72 -67.73,-30.33 -82.85,-61.48 -22.34,-46.02 15.78,-72.6 23.99,-110.55 36,20.29 48.54,57.71 48.54,100.01z"/>
   <path class="fil0" d="M2857.7 1225.26c-17.73,-10.19 -49.91,-31.77 -71.79,-37.98 8.46,7.76 50.38,30.12 61.52,42.67 -44.15,13.64 -101.27,4.63 -130.66,-36 -6.4,-8.85 -19.09,-27.7 -23.1,-39.27 62.71,2.72 86.3,-23.25 139.85,33.55 10.19,10.81 16.86,21.99 24.18,37.03z"/>
   <path class="fil0" d="M2769.87 715.01l-10.4 -11.52c-15.21,-18.23 -43.37,-35.42 -63.91,-48.31 -7.83,-4.91 -20.41,-14.59 -27.96,-17.16 1.52,6.34 6,8.05 11.53,12.46l42.09 30.7c15.22,11.37 43.73,32.06 49.01,50.48 -26.13,-6.94 -72.6,-25.14 -92.72,-38.04 -22.22,-14.24 -45.18,-45.82 -44.86,-86.85 17.54,1.94 68.38,23.69 85.44,36.11 18.15,13.19 45.49,42.47 51.78,72.13z"/>
   <path class="fil0" d="M2826.55 1157.11c-20.02,-10.1 -33.62,-24.09 -67.37,-24.91 -10.94,-0.27 -18.61,2.11 -27.83,2.34l2.3 -71.34c9.72,3.95 19.35,10.02 30.48,14.8 11.99,5.15 22.88,7.02 31.81,15.03 12.43,11.15 30.79,40.82 30.61,64.08z"/>
   <path class="fil0" d="M2911.1 859.04c-4.53,-2.23 -6.55,-4.45 -11.17,-7.46 -3.85,-2.5 -7.55,-3.83 -11.7,-6.5l-0.35 -36.9 23.11 -11.48 0.11 62.34z"/>
  </g>
  <g style="clip-path:url(#id0)">
   <image x="-26342.12" y="-11964.28" width="12170.82" height="5397.5" xlink:href="logo_Images\logo_ImgID1.png"/>
  </g>
 </g>
</svg>
